<svg xmlns="http://www.w3.org/2000/svg" width="752" height="471" viewBox="0 0 752 471"><title>Slice 1</title><path fill="#2557D6" d="M554.594 130.608l-14.52 35.04h29.12l-14.6-35.04zM387.03 152.32c2.738-1.42 4.35-4.514 4.35-8.355 0-3.764-1.694-6.49-4.432-7.77-2.492-1.42-6.328-1.585-10.006-1.585h-25.978v19.523h25.63c4.106 0 7.537-.06 10.436-1.812zM54.142 130.61l-14.357 35.04h28.8l-14.443-35.04zM722.565 355.08h-40.742v-18.852H722.4c4.024 0 6.84-.525 8.538-2.177 1.47-1.357 2.494-3.335 2.494-5.732 0-2.562-1.023-4.596-2.578-5.813-1.53-1.342-3.76-1.953-7.434-1.953-19.81-.67-44.523.61-44.523-27.21 0-12.75 8.13-26.173 30.27-26.173h42.025v-17.493h-39.045c-11.783 0-20.344 2.81-26.406 7.18v-7.18h-57.75c-9.234 0-20.075 2.28-25.202 7.18v-7.18H499.655v7.18c-8.207-5.897-22.057-7.18-28.447-7.18H403.18v7.18c-6.492-6.26-20.935-7.18-29.734-7.18h-76.134l-17.42 18.775-16.318-18.775H149.847v122.675h111.586l17.95-19.076 16.91 19.076 68.78.06v-28.86h6.764c9.125.145 19.89-.223 29.387-4.31v33.106h56.73v-31.976h2.737c3.493 0 3.84.146 3.84 3.62v28.35h172.343c10.94 0 22.38-2.787 28.712-7.854v7.853h54.668c11.375 0 22.485-1.587 30.938-5.652v-22.853c-5.12 7.462-15.11 11.245-28.625 11.245zm-349.83-28.967h-26.326V355.6h-41.007l-25.978-29.1-26.997 29.102h-83.57v-87.914h84.856l25.955 28.818 26.834-28.818h67.414c16.743 0 35.555 4.617 35.555 28.963 0 24.422-18.297 29.463-36.74 29.463zm126.588-3.986c2.98 4.29 3.41 8.297 3.496 16.047v17.428h-21.183v-10.998c0-5.29.512-13.12-3.41-17.21-3.08-3.148-7.78-3.9-15.48-3.9h-22.545v32.108h-21.198v-87.914h48.706c10.685 0 18.462.472 25.386 4.148 6.658 4.006 10.848 9.494 10.848 19.523-.002 14.03-9.4 21.19-14.953 23.388 4.694 1.725 8.532 4.818 10.333 7.38zm87.15-36.258H537.07v15.98h48.196v17.94H537.07v17.49l49.403.08v18.24H516.06v-87.913h70.413v18.182zm54.213 69.73h-41.09v-18.852h40.926c4.002 0 6.84-.527 8.62-2.178 1.448-1.36 2.49-3.336 2.49-5.73 0-2.564-1.128-4.598-2.573-5.818-1.616-1.34-3.843-1.948-7.515-1.948-19.73-.673-44.44.606-44.44-27.212 0-12.752 8.048-26.174 30.165-26.174h42.297v18.71h-38.703c-3.836 0-6.33.145-8.45 1.59-2.314 1.424-3.17 3.536-3.17 6.323 0 3.317 1.962 5.575 4.614 6.55 2.228.77 4.617.996 8.21.996l11.36.308c11.45.274 19.313 2.25 24.092 7.07 4.105 4.23 6.31 9.577 6.31 18.624 0 18.913-11.867 27.742-33.144 27.742zm110.506-11.762zm-274.13-56.55c-2.55-1.51-6.312-1.59-10.067-1.59h-25.98v19.745h25.632c4.104 0 7.594-.144 10.414-1.812 2.735-1.645 4.372-4.677 4.372-8.437s-1.637-6.482-4.37-7.906zm235.722-1.59c-3.838 0-6.39.144-8.537 1.587-2.227 1.426-3.08 3.537-3.08 6.326 0 3.316 1.878 5.573 4.61 6.55 2.23.77 4.616.996 8.13.996l11.437.303c11.537.284 19.242 2.26 23.938 7.08.855.667 1.37 1.42 1.957 2.173V285.7h-38.454l-.002-.003zm-339.314 0h-27.51v22.39h27.266c8.105 0 13.146-4.006 13.15-11.61-.004-7.69-5.29-10.78-12.906-10.78zm-183.598 0v15.983h46.315v17.94h-46.315v17.49h51.87l24.1-25.792-23.076-25.62h-52.894zm135.45 61.478v-70.482l-32.392 34.673 32.39 35.81zm-133.673-141.15v15.147H367.91l-.082-32.046h3.41c2.39.083 3.085.302 3.085 4.23v27.817h91.164v-7.46c7.352 3.923 18.788 7.46 33.837 7.46h38.353l8.21-19.522h18.196l8.026 19.522h73.906V202.63l11.19 18.543h59.226V98.59h-58.61v14.477l-8.208-14.477h-60.143v14.477l-7.537-14.477h-81.24c-13.6 0-25.55 1.89-35.207 7.158V98.59h-56.064v7.158c-6.146-5.43-14.52-7.158-23.826-7.158H180.784l-13.742 31.662-14.114-31.662h-64.51v14.477l-7.09-14.477H26.313L.762 156.874v46.62l37.78-87.893h31.346l35.88 83.218V115.6h34.435l27.61 59.626 25.365-59.625h35.126v87.895H206.68l-.08-68.837-30.593 68.837h-18.524l-30.67-68.898v68.898H83.898l-8.107-19.605H31.865l-8.19 19.605H.762v17.682h36.05l8.127-19.523h18.197l8.106 19.523h70.925V206.25l6.33 14.99h36.82l6.33-15.215zm277.75-80.177c6.82-7.016 17.5-10.25 32.04-10.25h20.424v18.832h-19.996c-7.696 0-12.047 1.14-16.233 5.208-3.6 3.7-6.066 10.696-6.066 19.908 0 9.417 1.88 16.206 5.8 20.64 3.248 3.48 9.152 4.534 14.705 4.534h9.478l29.733-69.12h31.61l35.72 83.134v-83.133h32.123l37.085 61.213v-61.213h21.61v87.89H667.54l-39.99-65.967v65.968h-42.967l-8.208-19.605h-43.827l-7.966 19.604h-24.69c-10.253 0-23.237-2.258-30.59-9.722-7.415-7.462-11.27-17.57-11.27-33.553-.004-13.038 2.3-24.954 11.37-34.37zm-43.394-10.25h21.526v87.894h-21.526V115.6zm-97.055 0h48.526c10.78 0 18.727.285 25.547 4.21 6.674 3.926 10.676 9.658 10.676 19.46 0 14.015-9.394 21.254-14.865 23.43 4.614 1.75 8.56 4.84 10.438 7.4 2.98 4.372 3.492 8.277 3.492 16.126v17.267h-21.28l-.08-11.084c0-5.29.51-12.897-3.33-17.123-3.08-3.09-7.78-3.763-15.378-3.763H350.05v31.97h-21.098V115.6zm-85.048 0h70.48v18.303H265v15.843h48.193v18.017h-48.193v17.553h49.38v18.177H243.9V115.6z"/></svg>