<svg xmlns="http://www.w3.org/2000/svg" width="750" height="471" viewBox="0 0 750 471"><title>diners</title><path fill="#0079BE" d="M584.934 236.947c0-99.416-82.98-168.133-173.896-168.1h-78.24c-92.004-.033-167.73 68.705-167.73 168.1 0 90.93 75.728 165.64 167.73 165.203h78.24c90.913.437 173.896-74.293 173.896-165.203z"/><path fill="#FFF" d="M333.28 82.932c-84.068.026-152.192 68.308-152.214 152.58.02 84.258 68.145 152.532 152.215 152.56 84.09-.027 152.23-68.302 152.24-152.56-.012-84.274-68.15-152.554-152.24-152.58z"/><path fill="#0079BE" d="M237.066 235.098c.08-41.18 25.747-76.296 61.94-90.25v180.48c-36.193-13.947-61.86-49.045-61.94-90.23zm131 90.275V144.848c36.208 13.92 61.915 49.057 61.98 90.256-.065 41.212-25.772 76.322-61.98 90.27z"/></svg>