<svg xmlns="http://www.w3.org/2000/svg" width="780" height="501" viewBox="0 0 780 501"><title>discover</title><path fill="#F47216" d="M409.412 197.758c30.938 0 56.02 23.58 56.02 52.71v.032c0 29.13-25.082 52.742-56.02 52.742-30.94 0-56.022-23.613-56.022-52.742v-.033c0-29.13 25.08-52.71 56.022-52.71z"/><path d="M321.433 198.438c8.836 0 16.247 1.785 25.27 6.09v22.752c-8.545-7.863-15.956-11.154-25.758-11.154-19.265 0-34.413 15.015-34.413 34.05 0 20.075 14.68 34.196 35.368 34.196 9.313 0 16.586-3.12 24.802-10.856v22.764c-9.343 4.14-16.912 5.775-25.757 5.775-31.277 0-55.58-22.597-55.58-51.737-.002-28.828 24.95-51.88 56.068-51.88zM224.32 199.064c11.546 0 22.11 3.72 30.942 10.994l-10.748 13.248c-5.35-5.646-10.41-8.027-16.563-8.027-8.853 0-15.3 4.744-15.3 10.987 0 5.354 3.618 8.188 15.944 12.482 23.364 8.042 30.29 15.175 30.29 30.925 0 19.193-14.977 32.554-36.32 32.554-15.63 0-26.993-5.796-36.457-18.872l13.268-12.03c4.73 8.608 12.622 13.222 22.42 13.222 9.163 0 15.947-5.95 15.947-13.984 0-4.164-2.056-7.733-6.158-10.258-2.066-1.195-6.158-2.977-14.2-5.646-19.29-6.538-25.91-13.527-25.91-27.186 0-16.226 14.214-28.412 32.846-28.412zM459.043 200.793h22.436l28.083 66.592 28.447-66.592h22.266L514.783 302.48H503.73M157.83 200.945h20.54v99.143h-20.54M569.563 200.945h58.252v16.8H590.09v22.005h36.336v16.79H590.09v26.763h37.725v16.785h-58.252M685.156 258.322c15.47-2.965 23.984-12.926 23.984-28.105 0-18.562-13.576-29.27-37.266-29.27H641.42v99.142h20.516v-39.83h2.68l28.43 39.828h25.26l-33.15-41.766zm-17.218-11.736h-6.002V216.56h6.326c12.79 0 19.744 5.05 19.744 14.698.002 9.966-6.95 15.328-20.068 15.328zM91.845 200.945h-30.15v99.143H91.69c15.946 0 27.465-3.543 37.573-11.445 12.015-9.36 19.118-23.467 19.118-38.057 0-29.26-23.22-49.64-56.533-49.64zm23.997 74.48c-6.454 5.483-14.837 7.878-28.108 7.878H82.22v-65.56h5.513c13.27 0 21.323 2.24 28.108 8.02 7.105 5.955 11.378 15.182 11.378 24.68 0 9.514-4.273 19.025-11.376 24.98z"/></svg>