<svg xmlns="http://www.w3.org/2000/svg" width="750" height="471" viewBox="0 0 750 471"><title>Slice 1</title><path fill="#D9222A" d="M675 235.506c0 99.133-80.35 179.496-179.483 179.496-99.12 0-179.48-80.362-179.48-179.496 0-99.142 80.36-179.508 179.48-179.508C594.65 55.998 675 136.365 675 235.506"/><path fill="#0097D0" d="M356.87 349.49c-4.958-6.014-9.524-12.36-13.675-19.01h63.612c3.817-6.096 7.263-12.44 10.342-19.012h-84.293c-2.87-6.15-5.425-12.492-7.596-19h99.477c5.987-17.904 9.23-37.05 9.23-56.962 0-13.046-1.393-25.763-4.03-38.013H320.075c1.392-6.48 3.142-12.816 5.21-19.008h99.44c-2.184-6.508-4.72-12.85-7.592-19.004h-84.254c3.075-6.562 6.53-12.903 10.337-19.008h63.57c-4.145-6.63-8.724-12.975-13.67-18.99H356.89c5.57-6.768 11.63-13.118 18.112-19-31.854-28.885-74.138-46.484-120.517-46.484C155.36 55.998 75 136.365 75 235.506c0 99.133 80.358 179.496 179.487 179.496 46.388 0 88.666-17.596 120.517-46.475 6.496-5.893 12.56-12.26 18.133-19.037H356.87"/><path d="M651.074 335.544c0-3.2 2.596-5.796 5.8-5.796 3.2 0 5.792 2.596 5.792 5.796 0 3.204-2.592 5.8-5.79 5.8-3.206 0-5.802-2.596-5.802-5.8zm5.8 4.408c2.434 0 4.404-1.967 4.404-4.408 0-2.434-1.97-4.396-4.403-4.396-2.434 0-4.41 1.962-4.41 4.396 0 2.44 1.977 4.408 4.41 4.408zm-.787-1.862h-1.184v-5.092h2.15c.446 0 .904.004 1.3.258.417.283.646.775.646 1.27 0 .584-.34 1.113-.88 1.317l.933 2.246h-1.316l-.775-2.01h-.875v2.01zm0-2.88h.658c.246 0 .505.017.726-.1.196-.13.3-.366.3-.592 0-.188-.124-.417-.287-.513-.212-.125-.54-.1-.762-.1h-.633v1.306zM372.446 284.006c-7.67 2.033-15.088 3.025-22.93 3.01-25.016-.025-38.045-11.418-38.045-33.2 0-25.46 16.588-44.184 39.1-44.184 18.418 0 30.176 10.5 30.176 26.946 0 5.458-.796 10.77-2.745 18.296h-44.487c-1.583 10.633 6.188 15.305 19.413 15.305 7.925 0 15.092-1.427 23.024-4.614l-3.504 18.44zm-11.963-44.15c0-1.608 2.476-13.034-10.4-13.284-7.107 0-12.207 4.725-14.27 13.284h24.67zM387.517 234.865c0 9.404 5.296 15.9 17.33 20.737 9.198 3.77 10.648 4.86 10.648 8.22 0 4.664-4.066 6.806-13.092 6.747-6.778-.05-12.962-.872-20.262-2.897l-3.228 17.154c6.487 1.504 15.588 2 23.65 2.188 24.024 0 35.116-7.866 35.116-24.866 0-10.218-4.625-16.235-16.033-20.714-9.538-3.81-10.658-4.638-10.658-8.083 0-4.05 3.78-6.1 11.15-6.1 4.462 0 10.578.413 16.38 1.108l3.257-17.24c-5.912-.826-14.883-1.484-20.075-1.484-25.45 0-34.258 11.458-34.183 25.23M299.275 285.785h-18.662l.445-7.82c-5.69 6.17-13.27 9.04-23.558 9.04-12.175 0-20.517-8.323-20.517-20.294 0-18.195 14.5-28.69 39.43-28.69 2.562 0 5.82.19 9.166.562.69-2.433.878-3.48.878-4.808 0-4.98-3.92-6.813-14.412-6.813-10.342.043-17.32 1.572-23.796 3.314l3.188-16.7c11.195-2.846 18.53-3.94 26.825-3.94 19.304 0 29.5 7.565 29.5 21.795.166 3.794-1.16 11.412-1.82 14.745-.76 4.852-6.11 32.973-6.668 39.61zm-16.38-33.19c-2.365-.243-3.395-.314-5.012-.314-12.73 0-19.183 3.788-19.183 11.268 0 4.692 3.15 7.634 8.058 7.634 9.147 0 15.75-7.65 16.138-18.588zM477.004 284.606c-6.125 1.68-10.896 2.408-16.06 2.408-11.433 0-17.674-5.842-17.674-16.25-.358-2.858 2.434-16.06 3.066-19.737.634-3.69 10.538-57.492 10.538-57.492h22.212l-3.362 17.8h11.392l-3.096 18.17h-11.44s-6.28 31.53-6.28 33.934c0 3.824 2.316 5.487 7.633 5.487 2.546 0 4.51-.238 6.03-.692l-2.96 16.37M576.25 209.63c-16.28 0-29 6.7-36.388 17.893l6.412-16.596c-11.816-4.337-19.434 1.85-26.325 10.65 0 0-1.155 1.462-2.3 2.8v-13.05h-20.86c-2.824 23.03-7.82 46.38-11.728 69.446l-.942 5.02h22.438c2.125-11.707 3.875-21.212 5.617-28.787 4.767-20.787 12.787-27.14 24.83-24.333-2.78 5.98-4.306 12.892-4.306 20.554 0 18.58 10.09 33.788 35.15 33.788 25.286 0 43.595-13.51 43.595-44.31 0-18.578-12.2-33.074-35.195-33.074zm-6.53 59.317c-7.925.125-12.728-6.524-12.728-16.47 0-11.792 7.013-25.113 18.275-25.113 9.087 0 12.2 7.204 12.2 14.88 0 16.78-6.876 26.703-17.746 26.703zM226.53 285.794h-22.342l13.28-69.954-30.572 69.954H166.53l-3.726-69.55-13.32 69.55h-20.27l17.266-90.996h34.913l2.912 50.726 22.117-50.726h37.72l-17.612 90.996"/><path fill="#FFF" d="M613.15 274.385c0-3.195 2.596-5.795 5.796-5.795 3.204 0 5.796 2.6 5.796 5.795 0 3.21-2.592 5.805-5.796 5.805-3.2 0-5.796-2.596-5.796-5.805zm5.796 4.413c2.434 0 4.408-1.98 4.408-4.413 0-2.433-1.975-4.403-4.408-4.403s-4.408 1.97-4.408 4.403 1.974 4.413 4.408 4.413zm-.784-1.866h-1.188v-5.084h2.15c.45 0 .908 0 1.304.25.408.28.646.768.646 1.27 0 .58-.337 1.117-.883 1.317l.935 2.246h-1.317l-.77-2.008h-.876v2.01zm0-2.888h.658c.242 0 .504.017.725-.097.196-.133.296-.357.296-.587 0-.196-.12-.417-.282-.513-.212-.13-.54-.096-.763-.096h-.633v1.294zM378.054 278.398c-7.667 2.033-15.088 3.03-22.925 3.012-25.018-.025-38.047-11.42-38.047-33.208 0-25.45 16.58-44.18 39.096-44.18 18.42 0 30.174 10.497 30.174 26.943 0 5.467-.8 10.77-2.74 18.3h-44.488c-1.584 10.63 6.18 15.308 19.408 15.308 7.925 0 15.087-1.424 23.03-4.616l-3.51 18.44zm-11.963-44.15c0-1.604 2.473-13.033-10.398-13.28-7.108 0-12.204 4.73-14.27 13.28h24.67zM393.13 229.252c0 9.408 5.286 15.9 17.324 20.746 9.204 3.767 10.65 4.858 10.65 8.213 0 4.667-4.067 6.81-13.088 6.75-6.784-.046-12.967-.87-20.263-2.895l-3.237 17.146c6.49 1.517 15.596 2.013 23.653 2.2 24.024 0 35.12-7.87 35.12-24.87 0-10.218-4.63-16.237-16.04-20.713-9.54-3.81-10.655-4.638-10.655-8.083 0-4.05 3.783-6.1 11.146-6.1 4.472 0 10.584.417 16.39 1.113l3.25-17.246c-5.914-.824-14.88-1.482-20.067-1.482-25.46 0-34.263 11.453-34.184 25.224M304.887 280.182H286.22l.45-7.82c-5.695 6.157-13.274 9.032-23.558 9.032-12.175 0-20.52-8.325-20.52-20.287 0-18.204 14.494-28.696 39.428-28.696 2.563 0 5.816.193 9.17.564.692-2.433.876-3.475.876-4.808 0-4.983-3.917-6.813-14.408-6.813-10.342.042-17.32 1.575-23.796 3.313l3.184-16.696c11.2-2.85 18.53-3.946 26.83-3.946 19.303 0 29.494 7.567 29.494 21.792.167 3.8-1.158 11.412-1.816 14.754-.763 4.85-6.112 32.97-6.667 39.612zM288.5 246.985c-2.358-.245-3.392-.313-5.013-.313-12.72 0-19.18 3.788-19.18 11.267 0 4.694 3.154 7.632 8.055 7.632 9.155 0 15.758-7.653 16.138-18.587zM482.608 279.002c-6.12 1.676-10.896 2.408-16.054 2.408-11.434 0-17.67-5.846-17.67-16.254-.363-2.854 2.433-16.06 3.062-19.737.634-3.693 10.537-57.493 10.537-57.493h22.21l-3.355 17.8h11.392l-3.096 18.17h-11.44s-6.284 31.53-6.284 33.934c0 3.826 2.32 5.48 7.633 5.48 2.542 0 4.51-.23 6.03-.69L482.607 279M593.08 236.635c0 16.775-6.88 26.71-17.756 26.71-7.92.11-12.725-6.526-12.725-16.476 0-11.793 7.007-25.114 18.27-25.114 9.092 0 12.21 7.213 12.21 14.88zm23.978.467c0-18.58-12.208-33.08-35.195-33.08-26.45 0-43.55 17.626-43.55 43.597 0 18.577 10.083 33.79 35.15 33.79 25.287 0 43.595-13.512 43.595-44.308zM502.396 205.72c-2.82 23.028-7.816 46.374-11.72 69.45l-.947 5.02h22.433c8.088-44.558 10.8-57.254 27.74-52.783l8.15-21.087c-11.815-4.337-19.424 1.854-26.308 10.658.62-3.962 1.792-7.783 1.51-11.258h-20.86M232.138 280.19H209.8l13.275-69.96-30.575 69.96h-20.362l-3.726-69.555-13.32 69.554h-20.27l17.262-91h34.92l1.847 56.333 24.576-56.334h36.325l-17.612 91"/></svg>