<svg xmlns="http://www.w3.org/2000/svg" width="750" height="471" viewBox="0 0 750 471"><g fill="none" fill-rule="evenodd"><rect width="750" height="471" rx="40"/><path fill="#D10429" d="M201.81 55h142.393c19.87 0 32.287 16.406 27.63 36.47L305.5 378.948c-4.656 20.064-24.63 36.47-44.498 36.47H118.61c-19.87 0-32.288-16.406-27.632-36.47L157.312 91.47C161.968 71.302 181.837 55 201.706 55h.104z"/><path fill="#022E64" d="M331.75 55h163.815c19.87 0 10.866 16.406 6.21 36.47L435.44 378.948c-4.656 20.064-3.207 36.47-23.076 36.47H248.55c-19.973 0-32.288-16.406-27.528-36.47L287.356 91.47C292.012 71.302 311.88 55 331.854 55h-.104z"/><path fill="#076F74" d="M489.815 55H632.21c19.868 0 32.286 16.406 27.63 36.47l-66.334 287.478c-4.657 20.064-24.63 36.47-44.498 36.47H406.614c-19.972 0-32.287-16.406-27.63-36.47L445.317 91.47C449.974 71.302 469.843 55 489.71 55h.105z"/><path fill="#FEFEFE" d="M465.905 326.015h13.453l3.83-13.063h-13.35l-3.933 13.063zm10.762-35.948l-4.657 15.466s5.07-2.613 7.865-3.45c2.794-.626 6.933-1.148 6.933-1.148l3.208-10.764h-13.452l.103-.103zm6.727-22.154l-4.45 14.84s4.967-2.3 7.76-3.032c2.795-.73 6.934-.94 6.934-.94l3.208-10.763h-13.35l-.102-.104zm29.7 0l-17.386 57.997h4.657l-3.622 12.017h-4.657l-1.138 3.658H474.39l1.14-3.658H442l3.31-11.076h3.416l17.593-58.937L469.836 256h16.868l-1.76 5.956s4.45-3.24 8.797-4.39c4.243-1.148 28.665-1.566 28.665-1.566l-3.622 11.808h-5.795l.103.105z"/><path fill="#FEFEFE" d="M520 256h18.006l.207 6.792c-.103 1.15.828 1.672 3 1.672h3.623l-3.31 11.182h-9.73c-8.38.627-11.59-3.03-11.382-7.106l-.31-12.436L520 256zm2.216 53.2h-17.178l2.897-9.927h19.662l2.794-9.092h-19.35l3.31-11.18h53.813l-3.31 11.18h-18.11l-2.795 9.093h18.11l-3.002 9.927h-19.558l-3.518 4.18h7.968l1.966 12.54c.207 1.254.207 2.09.62 2.613.415.418 2.795.627 4.14.627h2.38l-3.725 12.226h-6.107c-.93 0-2.38-.104-4.346-.104-1.863-.21-3.104-1.254-4.346-1.88-1.138-.524-2.793-1.882-3.207-4.286l-1.863-12.54-8.9 12.33c-2.794 3.868-6.622 6.898-13.142 6.898H495l3.31-10.868h4.762c1.345 0 2.587-.522 3.518-1.045.932-.417 1.76-.835 2.587-2.193l13.04-18.497zM334.314 282h45.43l-3.313 10.972h-18.108l-2.794 9.3h18.627l-3.415 11.287h-18.524l-4.553 15.15c-.517 1.673 4.45 1.882 6.21 1.882l9.313-1.254-3.726 12.54h-20.904c-1.655 0-2.897-.21-4.76-.627-1.76-.417-2.587-1.253-3.31-2.402-.726-1.254-1.968-2.195-1.14-4.912l6.002-20.064H325l3.415-11.495h10.348l2.794-9.3H331.21l3.31-10.973-.206-.104zm31.387-19.835h18.628l-3.415 11.39h-25.457l-2.794 2.404c-1.242 1.15-1.552.73-3.105 1.567-1.448.73-4.45 2.194-8.382 2.194H333l3.31-10.97h2.485c2.07 0 3.52-.21 4.243-.628.828-.523 1.76-1.672 2.69-3.553l4.657-8.57h18.524l-3.21 6.27v-.105zm35.11 18.81s5.07-4.702 13.762-6.165c1.966-.418 14.384-.21 14.384-.21l1.863-6.27h-26.182l-3.83 12.75v-.105zm24.628 4.807h-25.975l-1.552 5.33h22.56c2.69-.314 3.21.104 3.416-.105l1.655-5.225h-.102zm-33.736-29.678h15.833l-2.276 8.047s4.966-4.075 8.484-5.538c3.52-1.254 11.383-2.508 11.383-2.508L450.79 256l-8.795 29.47c-1.45 5.015-3.208 8.254-4.243 9.822-.93 1.463-2.07 2.82-4.346 4.075-2.173 1.15-4.14 1.88-6.002 1.986-1.656.104-4.346.21-7.865.21h-24.733l-6.934 23.302c-.62 2.3-.93 3.448-.517 4.075.31.523 1.242 1.15 2.38 1.15l10.866-1.045-3.726 12.75h-12.21c-3.933 0-6.727-.106-8.693-.21-1.863-.21-3.83 0-5.175-1.045-1.138-1.045-2.897-2.404-2.794-3.762.104-1.254.62-3.344 1.45-6.27l22.248-74.404z"/><path fill="#FEFEFE" d="M437.84 303l-1.45 7.106c-.62 2.194-1.137 3.866-2.793 5.33-1.76 1.462-3.725 3.03-8.485 3.03l-8.796.418-.104 7.942c-.103 2.194.518 1.985.828 2.403.414.417.724.522 1.138.73l2.794-.208 8.383-.418-3.52 11.704h-9.623c-6.726 0-11.797-.21-13.35-1.463-1.655-1.045-1.862-2.3-1.862-4.598l.62-31.14h15.42l-.207 6.373h3.725c1.242 0 2.174-.104 2.69-.418.518-.313.83-.836 1.036-1.567l1.552-5.016h12.108l-.104-.21zM218.47 147c-.517 2.508-10.45 48.592-10.45 48.592-2.175 9.3-3.727 15.99-8.9 20.273-3.002 2.508-6.52 3.657-10.556 3.657-6.52 0-10.245-3.24-10.866-9.404l-.104-2.09s1.966-12.436 1.966-12.54c0 0 10.35-42.01 12.212-47.548.103-.313.103-.522.103-.627-20.18.21-23.8 0-24.008-.313-.104.418-.62 3.03-.62 3.03l-10.556 47.34-.93 3.97-1.76 13.167c0 3.866.724 7.105 2.277 9.718 4.863 8.57 18.627 9.823 26.388 9.823 10.038 0 19.455-2.195 25.767-6.06 11.073-6.585 13.97-16.93 16.454-26.02l1.242-4.704s10.66-43.576 12.522-49.22c.103-.313.103-.522.207-.626-14.695.104-18.938 0-20.387-.314V147zm59.03 86.623c-7.14-.105-9.728-.105-18.11.313l-.31-.627c.723-3.24 1.55-6.375 2.172-9.615l1.035-4.39c1.552-6.79 3-14.838 3.208-17.24.207-1.464.62-5.122-3.52-5.122-1.758 0-3.517.836-5.38 1.672-1.035 3.658-3 13.9-4.036 18.497-2.07 9.823-2.174 10.972-3.105 15.78l-.62.626c-7.348-.104-9.935-.104-18.42.314L230 233.1c1.45-5.852 2.794-11.704 4.14-17.556 3.518-15.78 4.45-21.84 5.38-29.887l.725-.418c8.28-1.15 10.245-1.464 19.248-3.24l.724.836-1.345 5.016c1.552-.94 3-1.88 4.553-2.613 4.243-2.09 8.9-2.718 11.487-2.718 3.932 0 8.28 1.15 10.038 5.748 1.656 4.075.62 9.09-1.656 19.02l-1.138 5.015c-2.277 11.077-2.69 13.062-3.933 20.586l-.827.628.103.105zm29.058.027c-4.346 0-7.14-.104-9.83 0-2.69 0-5.278.21-9.314.314l-.207-.314-.207-.418c1.138-4.18 1.656-5.643 2.277-7.106.517-1.463 1.034-2.926 2.07-7.21 1.24-5.54 2.07-9.405 2.586-12.854.62-3.24.932-6.06 1.346-9.3l.31-.21.31-.313c4.346-.628 7.037-1.046 9.83-1.464 2.795-.418 5.692-.94 10.142-1.776l.207.418.102.418-2.483 10.345c-.83 3.45-1.657 6.898-2.38 10.347-1.554 7.315-2.278 10.032-2.588 12.017-.414 1.88-.518 2.822-1.14 6.584l-.413.313-.415.315-.207-.105zm45.94-25.675c-.31 1.88-1.965 8.883-4.138 11.81-1.552 2.193-3.312 3.552-5.38 3.552-.622 0-4.14 0-4.244-5.33 0-2.612.517-5.33 1.138-8.255 1.863-8.465 4.14-15.466 9.83-15.466 4.45 0 4.762 5.225 2.795 13.69zm18.732.836c2.483-11.076.517-16.3-1.863-19.436-3.725-4.807-10.348-6.374-17.178-6.374-4.14 0-13.868.418-21.526 7.524-5.484 5.12-8.07 12.122-9.52 18.81-1.553 6.792-3.312 19.02 7.865 23.617 3.413 1.464 8.38 1.882 11.59 1.882 8.174 0 16.556-2.3 22.87-8.987 4.862-5.434 7.035-13.585 7.863-17.034h-.103zm174.432 26.08c-8.693-.103-11.176-.103-19.145.315l-.517-.627c2.173-8.256 4.346-16.616 6.313-24.976 2.483-10.868 3.104-15.466 3.932-21.84l.62-.523c8.59-1.255 10.97-1.568 19.973-3.24l.207.73c-1.656 6.898-3.208 13.69-4.864 20.483-3.31 14.317-4.448 21.632-5.69 29.156l-.828.626v-.105z"/><path fill="#FEFEFE" d="M533.16 209.374c-.414 1.776-2.07 8.882-4.243 11.808-1.45 2.09-4.967 3.45-6.933 3.45-.62 0-4.036 0-4.243-5.226 0-2.613.518-5.33 1.14-8.256 1.862-8.255 4.138-15.257 9.83-15.257 4.45 0 6.416 5.12 4.45 13.585v-.104zm17.075.836c2.483-11.077-7.658-.94-9.21-4.598-2.484-5.748-.932-17.243-10.866-21.11-3.83-1.567-12.833.42-20.49 7.525-5.382 5.016-8.073 12.017-9.52 18.705-1.554 6.688-3.313 19.02 7.76 23.304 3.518 1.567 6.726 1.985 9.934 1.776 11.177-.627 19.662-17.66 25.975-24.348 4.862-5.33 5.69 1.985 6.415-1.254zm-129.943 23.413c-7.14-.105-9.624-.105-18.006.313l-.31-.627c.724-3.24 1.552-6.375 2.276-9.615l.93-4.39c1.554-6.79 3.106-14.838 3.21-17.24.206-1.464.62-5.122-3.416-5.122-1.76 0-3.62.836-5.38 1.672-.932 3.658-3.002 13.9-4.037 18.497-1.967 9.823-2.174 10.972-3.105 15.78l-.62.626c-7.348-.104-9.935-.104-18.42.314L373 233.1c1.45-5.852 2.794-11.704 4.14-17.556 3.518-15.78 4.346-21.84 5.38-29.887l.62-.418c8.28-1.15 10.35-1.464 19.25-3.24l.724.836-1.242 5.016c1.45-.94 3-1.88 4.45-2.613 4.243-2.09 8.9-2.718 11.486-2.718 3.933 0 8.176 1.15 10.038 5.748 1.656 4.075.518 9.09-1.76 19.02l-1.137 5.015c-2.38 11.077-2.692 13.062-3.934 20.586l-.827.628.102.105zm62-86.52l-6 .106c-15.524.208-21.733.103-24.216-.21-.207 1.15-.62 3.135-.62 3.135s-5.59 25.916-5.59 26.02c0 0-13.245 55.176-13.866 57.788 13.556-.21 19.04-.21 21.42.105.52-2.613 3.623-17.974 3.727-17.974 0 0 2.69-11.286 2.794-11.704 0 0 .828-1.15 1.656-1.672h1.242c11.694 0 24.836 0 35.185-7.628 7.037-5.225 11.797-13.063 13.97-22.468.517-2.3.93-5.016.93-7.837 0-3.658-.723-7.21-2.793-10.032-5.277-7.42-15.73-7.524-27.837-7.63zm7.762 27.067c-1.24 5.747-4.967 10.66-9.727 12.958-3.932 1.985-8.693 2.194-13.66 2.194h-3.208l.206-1.254s5.9-25.916 5.9-25.81l.206-1.36.103-1.045 2.38.21s12.21 1.044 12.418 1.044c4.76 1.88 6.83 6.688 5.38 13.063zm127.207 8.666l-.723-.836c-8.796 1.776-10.452 2.09-18.524 3.24l-.62.626c0 .105-.104.21-.104.418v-.104c-6.003 14.107-5.9 11.077-10.763 22.154 0-.523 0-.836-.104-1.36l-1.242-24.034-.723-.836c-9.314 1.777-9.52 2.09-18.006 3.24l-.62.627c-.104.314-.104.628-.104.94l.104.106c1.035 5.538.828 4.284 1.863 12.958.517 4.284 1.138 8.57 1.655 12.75.828 7.105 1.346 10.553 2.38 21.317-5.795 9.615-7.14 13.272-12.728 21.736l.31.836c8.383-.313 10.245-.313 16.454-.313l1.346-1.57c4.656-10.135 40.255-71.79 40.255-71.79l-.104-.104zm-302.716 6.922c4.76-3.344 5.38-7.942 1.345-10.345-4.037-2.404-11.177-1.672-15.938 1.672-4.76 3.24-5.277 7.837-1.24 10.345 3.93 2.3 11.07 1.672 15.832-1.672z"/><path fill="#FEFEFE" d="M575.735 256.104l-6.934 12.018c-2.172 4.075-6.31 7.21-12.727 7.21l-11.073-.21 3.208-10.867h2.173c1.14 0 1.967-.104 2.588-.418.62-.21.932-.627 1.45-1.254l4.138-6.583h17.282l-.103.104z"/></g></svg>