<svg xmlns="http://www.w3.org/2000/svg" width="750" height="471" viewBox="0 0 750 471"><title>Slice 1</title><path fill="#0E4595" d="M278.198 334.228l33.36-195.763h53.358l-33.384 195.763h-53.334zM524.307 142.687c-10.57-3.966-27.135-8.222-47.822-8.222-52.725 0-89.863 26.55-90.18 64.604-.297 28.128 26.514 43.82 46.754 53.184 20.77 9.597 27.75 15.716 27.65 24.283-.132 13.123-16.585 19.116-31.923 19.116-21.355 0-32.7-2.967-50.225-10.274l-6.877-3.113-7.488 43.823c12.463 5.466 35.508 10.2 59.438 10.445 56.09 0 92.502-26.248 92.916-66.884.2-22.27-14.015-39.215-44.8-53.187-18.65-9.056-30.072-15.1-29.95-24.27 0-8.136 9.667-16.837 30.558-16.837 17.447-.27 30.088 3.534 39.936 7.5l4.78 2.26 7.233-42.43M661.615 138.464h-41.23c-12.773 0-22.332 3.486-27.94 16.234L513.2 334.1h56.03s9.16-24.12 11.233-29.418c6.123 0 60.555.084 68.336.084 1.595 6.854 6.49 29.334 6.49 29.334h49.513l-43.188-195.636zm-65.417 126.408c4.414-11.28 21.26-54.724 21.26-54.724-.314.52 4.38-11.334 7.074-18.684l3.607 16.878s10.216 46.73 12.35 56.527H596.2v.002zM232.903 138.464l-52.24 133.496-5.564-27.13c-9.727-31.273-40.026-65.156-73.9-82.12l47.768 171.205 56.455-.064 84.004-195.385h-56.524"/><path fill="#F2AE14" d="M131.92 138.464H45.88l-.683 4.073c66.94 16.204 111.232 55.363 129.618 102.415l-18.71-89.96c-3.228-12.396-12.596-16.096-24.185-16.528"/></svg>