<svg xmlns="http://www.w3.org/2000/svg" width="750" height="471" viewBox="0 0 750 471"><g fill="none" fill-rule="evenodd"><rect width="750" height="471" rx="40"/><path fill="#2BA6DF" d="M99.46 243.35c-4.8.6-13.203 2.4-18.004 6.6-14.403 12.6-6 34.798 23.406 34.798 16.803 0 33.607-10.8 46.81-27.6-19.204-9-34.808-15.6-52.212-13.8z"/><path fill="#2BA6DF" d="M207.034 258.797c27.006 9 33.007 9.6 33.007 9.6v-95.998c0-16.2-13.202-29.4-30.005-29.4H84.007C67.803 143 54 156.2 54 172.4v125.996c0 16.2 13.203 29.4 30.007 29.4h126.028c16.203 0 30.006-13.2 30.006-29.4v-1.2s-48.01-19.8-72.615-31.8c-16.203 19.8-37.208 32.4-59.413 32.4-37.208 0-49.81-32.4-31.807-53.4 3.6-4.8 10.202-9 20.404-11.4 15.603-3.598 40.81 2.4 64.214 10.2 4.2-7.8 7.8-16.198 10.202-25.198H98.41v-7.2h37.208v-14.4h-45.61v-7.2h45.61v-18.6s0-3 3-3h18.005v22.2h45.01v6.6h-45.01v13.2h36.608c-3.6 14.4-9 27.6-15.603 39 12.003 4.2 22.205 7.8 29.407 10.2z"/><path fill="#3F3A39" d="M325.69 186.613l39.608 85.797h-21.005l-10.802-22.8h-32.407l-10.802 22.8H276.48l40.21-83.398s1.2-2.4 3.6-2.4h5.4zm-21.006 55.198h25.206l-12.603-26.998-12.603 27zm87.448 31.283h-19.204v-81.598c0-2.4 1.2-3.6 4.2-3.6h15.004v85.198zm36.008-.56h-19.204v-61.797c0-2.4 1.2-3.6 4.2-3.6h15.004v65.398zm23.482-64.114h12.603v6c2.4-1.8 4.8-3.6 7.8-4.2 3.002-1.2 6.003-1.8 10.204-1.8 4.2 0 7.8.6 10.8 2.4 3.602 1.8 6.002 3.6 8.403 6.6 2.4 2.998 4.2 5.998 5.4 9.598 1.2 3.6 1.802 7.2 1.802 11.4 0 5.4-.6 10.2-2.4 14.4-1.8 4.2-3.602 8.4-6.602 11.4-3 3-6.002 6-10.203 7.8-4.2 1.8-8.402 2.4-13.203 2.4h-6.6c-1.8 0-3.602-.6-5.402-1.2v21.598H445.02V216.22c-.6-7.8 2.4-7.8 6.602-7.8zm12.603 46.797c0 1.8 0 3 .6 4.2.6 1.2 1.2 2.4 2.4 3.6 1.2 1.2 2.4 1.8 3.6 2.4 1.2.6 3.002.6 4.802.6 1.8 0 3-.6 4.8-1.8 1.202-1.2 3.002-2.4 3.602-4.8.6-2.4 1.8-4.2 2.4-7.2.6-3 1.2-5.4 1.2-9 0-4.2 0-7.8-.6-10.8-.6-3-1.2-5.4-2.4-7.8-1.2-1.8-2.4-3.6-3.602-4.8-1.2-1.198-3-1.798-4.8-1.798-1.2 0-2.4 0-3.6.6-1.202.598-2.402 1.198-3.002 1.798-1.2.6-1.8 1.8-3 2.4-1.2 1.2-1.8 1.8-2.4 3v29.4zm81.027-46.798c4.8 0 8.402.6 12.003 1.2 3 .6 6 1.8 8.402 3.6 2.4 1.8 3.6 3.6 4.8 5.4 1.2 2.398 1.8 4.798 1.8 7.198v47.4h-19.203v-4.8c-1.2 1.2-2.4 1.8-3 2.4l-3.602 1.8c-1.2.6-2.4 1.2-4.2 1.2-1.8.6-3.6.6-5.402.6-3 0-5.4-.6-7.802-1.2-2.4-.6-4.2-1.8-6-3.6-1.8-1.2-3.002-3-3.602-5.4-.6-1.8-1.2-4.2-1.2-6.6 0-2.4.6-4.8 1.2-6.6.6-1.8 2.4-3.6 3.6-5.4 1.2-1.8 3.602-3 5.402-4.2 2.4-1.2 4.2-2.4 7.202-3.6 2.4-1.2 4.8-1.8 7.802-3 2.4-.6 5.4-1.8 7.8-2.4l2.402-.6v-6.6c0-1.8 0-3.6-.6-5.4l-1.8-3.6c-.6-.6-1.8-1.8-2.4-1.8-1.2-.6-2.402-.6-3.602-.6 0 0-10.202 0-19.204 7.8l-4.2-6.6c-1.802 1.2 9-6.6 23.404-6.6zm6.6 31.798c-1.8.6-3.6 1.8-5.4 3l-5.4 3.6c-1.8 1.2-3.002 2.4-3.602 4.2-1.2 1.2-1.2 3-1.2 4.2 0 1.2 0 2.4.6 3.6.6 1.2.6 1.8 1.2 3s1.2 1.2 1.8 1.8c.6.6 1.2.6 2.4.6 1.802 0 3.002-.6 4.802-1.2l5.402-3.6v-19.2h-.6zm46.555 53.998h-12.603l-.6-11.4s15.603.6 20.404-5.4c1.8-2.4 3-9 3-9l-31.206-59.997h21.005l19.804 38.998 17.405-39h13.803l-31.807 70.8c-1.2 2.4-6 14.998-19.203 14.998z"/><ellipse cx="418.602" cy="189.5" fill="#2BA6DF" rx="9.602" ry="8.5"/><path fill="#3F3A39" d="M668.88 158.31h-6.602v-1.2h14.403v1.2h-6.6v18.6h-1.8v-18.6zM679.596 157.11h2.4l4.202 11.4 1.8 4.2c.6-1.2 1.2-3 1.8-4.2l4.2-11.4h2.402v20.4H694v-18l-1.8 4.8-4.202 12h-1.2l-4.2-12-1.802-4.8v18h-1.8v-20.4h.6z"/></g></svg>