<svg width="780" height="501" viewBox="0 0 780 501" xmlns="http://www.w3.org/2000/svg"><title>amex-outline</title><path d="M725 0H55C24.673 0 0 24.673 0 55v391c0 30.327 24.673 55 55 55h670c30.325 0 55-24.673 55-55V55c0-30.327-24.675-55-55-55z" fill="none"/><path d="M230.107 199.434l2.104.007 1.675-.57 1.675-.57 1.48-1.502 1.483-1.502.78-2.003.78-2.002.027-2.947.028-2.946-.693-1.152-.694-1.15-1.206-.748-1.208-.748h-5.215l-1.775.794-1.775.794-1.03 1.104-1.03 1.105-.81 1.907-.81 1.907-.152 2.972-.152 2.97.752 1.478.754 1.476 1.454.66 1.453.66 2.107.008zM565.658 284.057h7.57v-4.633l.872-5.746c.48-3.16 1.272-8.165 1.76-11.12.488-2.957 1.095-6.702 1.35-8.324.256-1.62.932-5.132 1.503-7.802.573-2.67 1.286-5.556 1.587-6.415.3-.858.55-1.76.552-2 .004-.243.65-1.8 1.434-3.463l1.43-3.023 1.885-2.506 1.886-2.504 2.063-1.55c1.133-.855 2.958-1.986 4.054-2.517l1.992-.965 4.334.03 4.335.03 1.707.548 1.706.548.288-.178.287-.178.016-1.106c.006-.61.377-2.873.823-5.033l.81-3.927-.91-.357c-.502-.196-1.692-.602-2.646-.902l-1.734-.547-3.12.01-3.122.006-2.543.896-2.544.893-1.91 1.152-1.91 1.152-2.483 2.6-2.483 2.6-1.334 2.02c-.733 1.11-1.38 1.967-1.435 1.906-.056-.06.343-2.373.886-5.138.543-2.766.995-5.38 1.003-5.81l.015-.78H570.8v.222c0 .12-.32 2.345-.71 4.94-.39 2.598-1.177 7.61-1.744 11.138-.57 3.528-1.5 9.224-2.073 12.658-.57 3.433-1.433 8.35-1.915 10.924-.48 2.574-1.336 7.1-1.9 10.056-.564 2.957-1.49 7.717-2.058 10.578l-1.673 8.41-.64 3.207h7.57zM389.9 284.057h7.403l.222-3.133c.123-1.722.54-5.195.93-7.716.39-2.52 1.19-7.548 1.775-11.17.586-3.626 1.674-9.658 2.418-13.407.746-3.747 1.587-7.473 1.87-8.278.286-.806.518-1.678.518-1.94 0-.26.557-1.685 1.237-3.164.68-1.48 1.948-3.743 2.818-5.032l1.582-2.344 2.115-1.96 2.116-1.958 2.61-1.246 2.608-1.247 3.99.023 3.987.02 1.96.586c1.08.32 2.054.585 2.168.585.114 0 .207-.368.207-.82 0-.45.39-2.733.867-5.075.475-2.34.866-4.355.866-4.476 0-.12-1.13-.564-2.514-.984-1.383-.42-3.295-.86-4.248-.98l-1.734-.213-2.254.4c-1.24.218-3.083.702-4.096 1.075-1.014.372-2.687 1.216-3.72 1.876-1.03.66-2.635 1.947-3.564 2.858-.93.912-2.495 2.75-3.476 4.086-.982 1.335-2.008 2.74-2.28 3.12l-.497.694.3-1.386c.167-.764.63-3.26 1.027-5.55.398-2.288.81-4.435.91-4.767l.184-.608H394.98v.836c0 .46-.392 3.23-.868 6.156-.477 2.927-1.264 7.817-1.748 10.87-.484 3.05-1.344 8.357-1.91 11.79-.566 3.433-1.426 8.35-1.91 10.923-.486 2.574-1.346 7.1-1.914 10.057-.566 2.955-1.51 7.794-2.092 10.75-.584 2.957-1.283 6.447-1.552 7.76-.27 1.31-.49 2.518-.49 2.685v.305h7.403zM215.44 284.057h7.458l.21-.548c.117-.304.21-1.095.21-1.76s.47-4.125 1.043-7.688c.575-3.563 1.522-9.364 2.107-12.893.584-3.53 1.447-8.68 1.918-11.445.47-2.765 1.307-7.368 1.86-10.23.55-2.86 1.4-7.31 1.883-9.883.483-2.575 1.435-7.474 2.114-10.887.68-3.413 1.32-6.34 1.422-6.508l.19-.305-7.544.093-7.543.093-.63 4.51c-.344 2.48-1.1 7.395-1.678 10.922-.578 3.53-1.452 8.914-1.943 11.964-.49 3.053-1.345 7.968-1.9 10.925l-1.89 10.055c-.484 2.576-1.353 7.1-1.93 10.057-.58 2.957-1.354 6.858-1.724 8.67-.37 1.813-.768 3.646-.884 4.075l-.21.78h7.46zM122.16 284.057h8.426l.605-3.727c.333-2.05.983-5.992 1.444-8.757l1.907-11.444c.59-3.53 1.47-8.758 1.96-11.618.49-2.86 1.267-7.3 1.727-9.862.46-2.565.926-4.75 1.032-4.856l.194-.194h45.314l.252.25.25.253-.393 2.002c-.215 1.102-.854 4.5-1.42 7.55-.564 3.053-1.514 8.203-2.11 11.446-.596 3.243-1.458 7.847-1.915 10.23-.458 2.385-1.384 7.378-2.058 11.098-.673 3.72-1.223 6.957-1.22 7.196l.003.433h16.92l.375-2.167c.207-1.192.537-3.338.737-4.768.197-1.43.678-4.475 1.065-6.763.387-2.29 1.16-6.816 1.72-10.058.557-3.242 1.493-8.782 2.077-12.31.584-3.53 1.45-8.68 1.926-11.444.474-2.767 1.32-7.448 1.88-10.404.56-2.957 1.49-7.95 2.07-11.098.58-3.146 1.448-7.906 1.93-10.577.482-2.67 1.36-7.51 1.952-10.75.592-3.243 1.34-7.027 1.66-8.41l.584-2.515H193.92l-.232 1.648c-.127.905-.54 3.442-.92 5.635-.378 2.194-1.064 6.094-1.526 8.67-.462 2.575-1.306 7.49-1.876 10.924-.57 3.432-1.296 7.977-1.614 10.1l-.578 3.856-12.575.255-12.577.254-10.532-.25c-5.792-.137-10.564-.278-10.604-.31-.04-.034.158-1.38.438-2.995.28-1.614.81-4.418 1.18-6.23.367-1.81 1.065-5.4 1.55-7.976.484-2.574 1.032-5.773 1.22-7.108.185-1.335.576-3.56.867-4.943.292-1.382.844-4.295 1.228-6.472.383-2.177.792-4.206.91-4.508l.21-.55H131.49l-.543 3.035c-.3 1.67-.7 4.048-.888 5.288-.19 1.24-.822 5.22-1.407 8.843-.585 3.625-1.45 9.01-1.92 11.965l-1.903 11.964c-.578 3.624-1.53 9.24-2.116 12.483-.586 3.244-1.435 7.847-1.887 10.23-.452 2.385-1.31 6.91-1.91 10.058-.6 3.15-1.477 7.596-1.946 9.885-.47 2.288-.99 4.94-1.153 5.894-.165.953-.7 3.704-1.193 6.112-.49 2.408-.893 4.63-.893 4.942v.563h8.427zM626.633 285.744l3.294.042 3.122-.507c1.716-.28 3.9-.728 4.854-.998.953-.27 2.67-.97 3.814-1.556l2.082-1.066 1.79-1.576 1.79-1.576 1.885-2.513c1.037-1.383 1.975-2.748 2.086-3.035l.202-.52-.175 1.734c-.096.953-.31 2.514-.48 3.468-.168.954-.407 2.787-.533 4.075l-.23 2.34h13.606v-4.68l1.036-8.845c.57-4.864 1.413-11.34 1.873-14.39.46-3.054 1.17-7.422 1.58-9.71.406-2.29 1.13-6.426 1.603-9.19.476-2.766 1.334-7.605 1.908-10.75.574-3.15 1.493-8.142 2.042-11.098.548-2.957 1.402-7.56 1.895-10.23.493-2.67 1.377-7.353 1.964-10.404.59-3.052 1.446-7.344 1.907-9.538.462-2.192.84-4.105.838-4.247v-.26H665.54l-.218 2.167c-.12 1.192-.69 5.132-1.262 8.757-.574 3.622-1.51 9.396-2.08 12.83-.57 3.432-1.118 6.762-1.22 7.398l-.185 1.156-.585-.25c-.322-.136-2.07-.62-3.88-1.076l-3.294-.827-4.508-.35-4.51-.35-3.814.354-3.814.356-3.468.877-3.468.876-3.294 1.607-3.296 1.607-2.427 1.796-2.427 1.797-2.097 2.25c-1.153 1.235-2.818 3.28-3.702 4.543l-1.603 2.296-1.886 3.92c-1.035 2.16-2.297 5.016-2.802 6.35-.506 1.337-1.396 4.296-1.98 6.578l-1.062 4.15-.523 5.388-.523 5.386.392 4.335.394 4.335.463 1.56c.256.86.793 2.388 1.196 3.398l.732 1.84 1.335 1.805 1.336 1.808 1.523 1.248 1.524 1.25 2.08 1.034c1.146.567 3.065 1.302 4.267 1.63 1.2.33 3.152.726 4.335.88 1.18.153 3.63.298 5.443.32zm5.913-9.837l-2.62.137-1.765-.318c-.97-.174-2.526-.644-3.456-1.042l-1.69-.723-1.42-1.165-1.422-1.164-2.112-4.045-.483-2.254-.48-2.254.04-4.508.04-4.508.56-3.99.56-3.986.868-2.774c.478-1.526.872-2.966.874-3.2.003-.233.473-1.48 1.048-2.773.574-1.293 1.532-3.286 2.13-4.43.598-1.146 1.716-2.93 2.483-3.965.77-1.036 2.14-2.597 3.043-3.47.904-.87 2.34-2.013 3.196-2.538l1.55-.955 2.728-.945 2.726-.944 5.722-.002h5.722l3.294.915c1.813.502 3.737 1.085 4.276 1.295l.98.38-.19.953c-.105.525-.518 2.826-.916 5.114-.398 2.29-1.184 6.66-1.745 9.71-.56 3.053-1.423 7.657-1.916 10.23-.49 2.576-1.204 5.853-1.584 7.283-.38 1.43-.915 3.412-1.19 4.403-.275.99-.93 2.71-1.454 3.815-.525 1.107-1.444 2.715-2.042 3.573-.598.858-1.608 2.048-2.246 2.642-.64.596-2.02 1.652-3.068 2.35l-1.907 1.267-5.515 1.75zM509.42 285.62l4.68-.134 2.948-.754 2.948-.755 1.908-.9c1.05-.496 2.765-1.475 3.814-2.176 1.05-.7 2.674-2.032 3.61-2.96.934-.927 2.32-2.51 3.08-3.515.76-1.007 1.43-1.785 1.485-1.728.057.056-.12 1.66-.39 3.563-.268 1.905-.492 4.438-.496 5.63l-.006 2.167h12.73l.195-4.94.194-4.943.907-6.416c.5-3.53 1.307-8.757 1.794-11.617.487-2.86 1.332-7.697 1.88-10.75.547-3.052 1.414-7.81 1.925-10.577l.932-5.028.032-4.343.03-4.344-.982-2.007-.983-2.007-1.33-1.278-1.334-1.28-2.184-1.106-2.187-1.11-6.52-1.45-4.485-.34-4.487-.342-5.78.358c-3.18.196-7.65.584-9.94.863l-4.162.503-5.672.022-.413 1.995c-.226 1.096-.857 3.7-1.4 5.79-.545 2.088-.94 3.846-.877 3.908.06.062 1.578-.283 3.37-.765 1.792-.483 5.6-1.275 8.462-1.763l5.2-.886 4.682-.192 4.682-.194 6.03 1.058 2.013.993 2.013.993 1.127 1.68 1.128 1.68-.015 2.647-.017 2.65-.597 2.905-.597 2.907-12.478.045-12.478.044-4.083 1.12c-2.246.617-4.733 1.435-5.527 1.818-.794.384-1.588.698-1.765.698-.176 0-1.512.74-2.97 1.647l-2.647 1.645-2.085 2.082c-1.148 1.145-2.613 2.862-3.257 3.816-.644.953-1.69 2.945-2.325 4.427l-1.154 2.693-.53 3.028-.53 3.03v6.354l.505 2.646.506 2.645.938 1.724c.517.948 1.466 2.34 2.107 3.09l1.17 1.363 2.072 1.26 2.074 1.26 2.375.67c1.307.37 3.294.818 4.418.996l2.042.322 4.682-.134zm4.334-9.697l-2.775.146-1.838-.47c-1.01-.257-2.544-.83-3.408-1.275l-1.57-.807-.857-1.02c-.47-.56-1.19-1.66-1.6-2.445l-.743-1.428-.145-3.333-.148-3.334.588-2.022c.323-1.112 1.082-3.043 1.686-4.29l1.098-2.266 2.103-2.087 2.102-2.088 2.23-1.075 2.233-1.074 2.774-.66 2.775-.66h17.34l.548.228.548.226-.46 2.722c-.255 1.496-.86 4.203-1.347 6.015-.485 1.813-1.343 4.476-1.906 5.92-.563 1.443-1.024 2.72-1.024 2.835 0 .117-.57 1.168-1.267 2.337l-1.266 2.126-2.08 2.06c-1.142 1.133-2.205 2.06-2.36 2.06-.152 0-.853.39-1.556.868l-1.277.866-2.813.89-2.812.89zM452.375 285.75l3.817.04 4.332-.512c2.383-.283 5.555-.75 7.05-1.04 1.493-.29 3.912-.865 5.375-1.277 1.46-.413 2.784-.86 2.94-.992.154-.133.566-1.707.917-3.498.35-1.79.792-4.192.98-5.336.19-1.145.287-2.142.218-2.217-.07-.075-.325.022-.568.214-.244.195-1.945.91-3.782 1.593l-3.34 1.24-4.754.92-4.755.922-4.042-.137-4.043-.138-2.297-.797-2.297-.797-1.774-1.55-1.774-1.554-1.178-2.144-1.176-2.143-.562-2.87-.56-2.867.004-3.72.003-3.72.68-4.51.682-4.508.72-2.428c.397-1.335.846-2.895.997-3.467.152-.573.787-2.21 1.413-3.642.625-1.43 1.74-3.64 2.48-4.913l1.34-2.31 1.65-1.71 1.65-1.71 1.744-1.08 1.747-1.084 2.242-.69c1.233-.38 3.413-.874 4.843-1.096l2.6-.406 3.814.192 3.815.19 4.507.904 4.51.9 1.832.685c1.007.376 1.876.685 1.93.685.054 0 .296-1.288.538-2.862.242-1.573.672-4.162.956-5.752.285-1.592.45-2.962.364-3.045-.083-.083-1.438-.298-3.01-.477-1.573-.18-5.847-.497-9.498-.708l-6.64-.38-4.68.358-4.682.36-3.47.728-3.466.73-2.234.893c-1.228.49-3.027 1.378-3.998 1.97-.97.593-2.205 1.39-2.745 1.77-.54.382-2.176 1.87-3.638 3.308l-2.655 2.615-1.484 2.172c-.815 1.195-2.225 3.685-3.134 5.536l-1.652 3.364-1.267 3.64c-.696 2.003-1.67 5.28-2.16 7.283l-.895 3.642-.325 3.294-.324 3.295.004 4.336.004 4.334.327 2.522.327 2.522 1.04 2.594 1.037 2.594 1.2 1.875 1.2 1.875 1.906 1.878 1.91 1.877 2.016 1.068 2.02 1.066 2.65.738c1.457.404 3.564.87 4.68 1.032 1.118.163 3.75.316 5.85.34zM342.094 285.747l3.815.044 3.813-.347c2.1-.19 5.532-.59 7.63-.886 2.098-.295 5.722-.957 8.054-1.47l4.24-.932.21-1.564c.117-.858.593-3.416 1.06-5.684l.846-4.125-.188-.185-.186-.186-1.297.624c-.713.344-2.934 1.166-4.934 1.825l-3.64 1.197-3.817.74-3.818.74-6.07.013-6.068.01-2.08-.664c-1.145-.365-2.828-1.033-3.74-1.486l-1.66-.82-2.74-2.477-1.07-1.867-1.068-1.87-.67-2.34-.67-2.344-.005-4.336-.005-4.337.594-3.868.596-3.87 10.436-.487 19.29.125 19.29.123.583-2.47c.32-1.36.81-4.168 1.088-6.242l.506-3.77.01-3.173.012-3.173-.55-2.37-.55-2.367-.908-1.568c-.498-.863-1.38-2.113-1.955-2.78-.576-.664-1.605-1.602-2.286-2.083-.682-.48-2.02-1.29-2.973-1.797l-1.734-.922-3.03-.73-3.03-.73-3.73-.356-3.735-.357-3.467.226-3.468.226-4.162.8-4.16.8-2.603 1.038c-1.43.57-3.615 1.615-4.854 2.318-1.24.703-2.955 1.847-3.813 2.542-.86.696-2.346 2.048-3.303 3.005-.958.957-2.376 2.675-3.15 3.82-.773 1.145-1.96 3.173-2.636 4.508-.676 1.336-1.557 3.208-1.958 4.162-.4.953-1.13 2.904-1.618 4.334-.49 1.43-1.26 4.162-1.71 6.07-.45 1.907-1.067 5.046-1.372 6.976l-.553 3.51.006 5.16.005 5.16.527 2.255c.29 1.24.844 3.113 1.23 4.16.388 1.05 1.106 2.61 1.594 3.47.487.857 1.53 2.24 2.317 3.07.786.83 2.21 2.092 3.164 2.8.954.71 2.652 1.71 3.773 2.22l2.04.928 2.842.688c1.563.378 3.923.826 5.244.996 1.32.17 4.116.328 6.214.35zm6.53-48.853c-9.6 0-17.454-.068-17.454-.153 0-.082.41-1.292.91-2.687.5-1.394 1.38-3.468 1.954-4.61l1.045-2.077 2.292-2.28 2.294-2.284 2.255-1.077c1.24-.593 2.88-1.24 3.64-1.435.765-.196 2.95-.456 4.856-.577l3.47-.223 2.663.343 2.66.342 1.936.886 1.936.887 1.062 1.145c.583.63 1.28 1.556 1.546 2.06l.484.915.32 2.032.32 2.03-.366 3.382-.366 3.382zM245.44 316.31l.21-.55c.116-.302.21-1.01.21-1.576 0-.566.246-2.62.547-4.566.3-1.948 1.004-6.427 1.566-9.955l1.867-11.79c.466-2.958 1.035-6.742 1.265-8.41.23-1.67.508-3.035.62-3.035.113 0 .595.737 1.072 1.64l.866 1.637 1.922 1.938 1.923 1.936 2.366.947 2.367.947 2.82.366 2.822.365 3.58-.22 3.58-.22 3.875-1.002 3.877-1.004 2.08-.95c1.145-.522 3.173-1.66 4.508-2.53l2.428-1.582 2.263-2.263c1.245-1.242 3-3.238 3.9-4.433.903-1.194 1.64-2.258 1.64-2.364 0-.107.443-.846.984-1.644.54-.797 1.647-3.01 2.46-4.918.812-1.907 2.08-5.34 2.82-7.63l1.344-4.16.696-3.605c.382-1.98.874-5.258 1.093-7.282l.396-3.677-.23-3.12-.23-3.12-.723-3.123-.723-3.12-1.172-2.337-1.17-2.337-2.264-2.4-2.262-2.398-5.354-2.766-2.948-.708-2.948-.705-2.948-.216-2.947-.215-3.283.377-3.285.377-2.68.684-2.68.683-2.33 1.08c-1.28.59-3.143 1.597-4.14 2.235-.996.638-2.025 1.37-2.285 1.63-.26.26-.882.74-1.382 1.066l-.91.597.635-3.047c.35-1.675.643-3.24.65-3.48l.015-.433h-12.716l-1.114 7.023c-.614 3.863-1.582 9.83-2.152 13.265-.57 3.433-1.43 8.582-1.91 11.443-.48 2.86-1.337 7.933-1.905 11.27-.567 3.338-1.504 8.645-2.083 11.792-.58 3.147-1.426 7.75-1.884 10.23-.457 2.48-1.32 7.16-1.913 10.403-.594 3.245-1.55 8.394-2.124 11.446-.573 3.05-1.506 7.89-2.073 10.75-.568 2.86-1.116 5.554-1.22 5.982l-.19.78zm21.748-39.922l-1.892-.335-1.893-.334-1.922-.878-1.922-.878-1.342-1.283-1.343-1.28-.775-1.734c-.427-.954-.974-2.574-1.217-3.6l-.44-1.867.176-2.99.178-2.988.893-4.682c.49-2.575 1.373-7.413 1.96-10.75.587-3.338 1.477-8.23 1.976-10.87l.907-4.8 1.988-1.653c1.094-.91 2.826-2.13 3.85-2.71l1.86-1.055 2.427-.75 2.428-.753 6.242-.367 2.542.542 2.54.54 1.795.827 1.793.826 1.504 1.512 1.504 1.512.81 1.6c.447.882 1.074 2.605 1.393 3.83l.58 2.23-.177 6.59-.178 6.59-.89 3.894c-.49 2.142-1.422 5.42-2.072 7.282l-1.18 3.388-1.45 2.742c-.795 1.51-2.022 3.547-2.726 4.53-.704.982-1.827 2.257-2.495 2.83-.667.573-1.786 1.47-2.485 1.99l-1.27.95-5.887 2.002z" fill="#B3131B"/></svg>