<svg xmlns="http://www.w3.org/2000/svg" width="750" height="471" viewBox="0 0 750 471"><title>Slice 1</title><path fill="#FFF" d="M617.242 346.766c0 41.615-33.73 75.36-75.357 75.36H132.76v-297.88c0-41.627 33.73-75.372 75.363-75.372h409.12v297.892z"/><linearGradient id="a" gradientUnits="userSpaceOnUse" x1="824.742" y1="333.781" x2="825.742" y2="333.781" gradientTransform="matrix(132.8743 0 0 -323.0226 -109129.53 108054.602)"><stop offset="0" stop-color="#007B40"/><stop offset="1" stop-color="#55B330"/></linearGradient><path fill="url(#a)" d="M483.86 242.045c11.686.254 23.44-.516 35.078.4 11.787 2.2 14.627 20.043 4.156 25.887-7.145 3.85-15.633 1.434-23.38 2.113H483.86v-28.4zm41.834-32.145c2.596 9.164-6.238 17.392-15.064 16.13h-26.77c.188-8.642-.367-18.022.273-26.21 10.723.303 21.547-.615 32.21.48 4.58 1.152 8.413 4.918 9.35 9.6zM590.12 73.997c.497 17.5.07 35.927.214 53.783-.033 72.596.07 145.195-.057 217.79-.47 27.206-24.582 50.846-51.6 51.39-27.045.11-54.094.016-81.143.046v-109.75c29.47-.153 58.957.308 88.416-.23 13.666-.86 28.635-9.876 29.27-24.915 1.61-15.102-12.63-25.55-26.15-27.2-5.198-.135-5.046-1.515 0-2.117 12.894-2.787 23.02-16.133 19.226-29.5-3.234-14.057-18.77-19.498-31.695-19.47-26.35-.18-52.708-.026-79.062-.078.17-20.49-.355-41 .283-61.474C459.91 95.556 484.63 73.524 511.27 74l78.85-.003z"/><linearGradient id="b" gradientUnits="userSpaceOnUse" x1="824.755" y1="333.782" x2="825.748" y2="333.782" gradientTransform="matrix(133.4307 0 0 -323.0203 -109887.688 108053.82)"><stop offset="0" stop-color="#1D2970"/><stop offset="1" stop-color="#006DBA"/></linearGradient><path fill="url(#b)" d="M159.742 125.04c.673-27.163 24.888-50.61 51.872-51.007 26.945-.083 53.894-.012 80.84-.036-.075 90.885.145 181.776-.112 272.657-1.038 26.834-24.99 49.834-51.68 50.31-26.995.097-53.994.013-80.99.04V283.55c26.222 6.196 53.72 8.833 80.473 4.724 15.99-2.574 33.487-10.426 38.9-27.016 3.985-14.19 1.742-29.126 2.335-43.69V183.74h-46.297c-.208 22.37.426 44.78-.335 67.125-1.248 13.734-14.85 22.46-27.802 21.994-16.064.17-47.897-11.64-47.897-11.64-.08-41.915.465-94.406.692-136.18z"/><linearGradient id="c" gradientUnits="userSpaceOnUse" x1="824.742" y1="333.781" x2="825.741" y2="333.781" gradientTransform="matrix(132.9583 0 0 -323.0276 -109347.922 108056.266)"><stop offset="0" stop-color="#6E2B2F"/><stop offset="1" stop-color="#E30138"/></linearGradient><path fill="url(#c)" d="M309.72 197.39c-2.436.517-.49-8.3-1.113-11.646.166-21.15-.346-42.323.284-63.458 2.083-26.83 26.992-48.916 53.74-48.288h78.766c-.074 90.885.145 181.775-.11 272.657-1.04 26.834-24.993 49.833-51.683 50.31-26.998.1-53.998.014-80.997.04V272.708c18.44 15.13 43.5 17.484 66.472 17.525 17.318-.006 34.535-2.676 51.353-6.67V260.79c-18.952 9.446-41.233 15.446-62.243 10.02-14.656-3.65-25.294-17.814-25.057-32.938-1.698-15.73 7.522-32.335 22.98-37.01 19.19-6.01 40.107-1.414 58.095 6.397 3.855 2.017 7.766 4.52 6.225-1.922v-17.9c-30.086-7.157-62.104-9.79-92.33-2.004-8.748 2.468-17.272 6.21-24.38 11.956z"/></svg>