<svg xmlns="http://www.w3.org/2000/svg" width="750" height="471" viewBox="0 0 750 471"><title>Slice 1</title><path fill="#D9222A" d="M434.008 235.5c0 99.142-80.37 179.504-179.508 179.504-99.137 0-179.5-80.362-179.5-179.504 0-99.133 80.362-179.504 179.5-179.504 99.137 0 179.508 80.37 179.508 179.504"/><path fill="#EE9F2D" d="M495.49 55.996c-46.378 0-88.64 17.596-120.5 46.467-6.486 5.883-12.545 12.238-18.124 18.996h36.267c4.958 6.028 9.525 12.37 13.684 19.01h-63.634c-3.813 6.105-7.274 12.447-10.342 19.01h84.314c2.88 6.158 5.42 12.495 7.6 19.003h-99.512c-2.075 6.19-3.82 12.53-5.217 19.008h109.94c2.64 12.25 4.043 24.968 4.043 38.01 0 19.933-3.254 39.11-9.254 57.02H325.24c2.176 6.512 4.718 12.854 7.597 19.008h84.316c-3.074 6.563-6.528 12.904-10.346 19.012h-63.625c4.154 6.63 8.73 12.98 13.684 18.996h36.26c-5.572 6.77-11.635 13.134-18.13 19.013 31.857 28.865 74.116 46.453 120.495 46.453 99.14 0 179.51-80.36 179.51-179.503 0-99.13-80.37-179.504-179.51-179.504"/><path d="M651.074 335.56c0-3.2 2.592-5.802 5.796-5.802s5.796 2.6 5.796 5.8c0 3.2-2.592 5.8-5.796 5.8s-5.796-2.6-5.796-5.8zm5.796 4.407c2.434 0 4.408-1.975 4.408-4.408 0-2.44-1.975-4.405-4.408-4.405-2.438 0-4.404 1.967-4.404 4.404 0 2.432 1.967 4.407 4.404 4.407zm-.783-1.86H654.9v-5.095h2.15c.45 0 .908 0 1.304.254.413.28.646.77.646 1.28 0 .57-.338 1.103-.884 1.312l.938 2.25h-1.316l-.78-2.017h-.87v2.018zm0-2.89h.658c.246 0 .505.02.726-.1.196-.125.297-.36.297-.584 0-.195-.12-.42-.288-.517-.21-.13-.538-.1-.76-.1h-.633v1.3zM212.587 255.154c-2.046-.238-2.945-.3-4.35-.3-11.046 0-16.638 3.787-16.638 11.267 0 4.613 2.728 7.546 6.986 7.546 7.94 0 13.66-7.558 14-18.512zm14.17 32.996h-16.145l.37-7.676c-4.925 6.066-11.495 8.95-20.425 8.95-10.563 0-17.804-8.25-17.804-20.23 0-18.023 12.596-28.54 34.217-28.54 2.208 0 5.042.2 7.94.57.605-2.44.764-3.487.764-4.8 0-4.908-3.396-6.737-12.5-6.737-9.533-.108-17.396 2.27-20.625 3.333.203-1.23 2.7-16.66 2.7-16.66 9.71-2.845 16.115-3.916 23.324-3.916 16.732 0 25.596 7.513 25.58 21.712.032 3.805-.598 8.5-1.58 14.67-1.69 10.733-5.32 33.72-5.816 39.324zM164.6 288.15h-19.487l11.162-69.996-24.925 69.996h-13.28l-1.64-69.596-11.734 69.596H86.454l15.237-91.055h28.022l1.7 50.967 17.092-50.967h31.167L164.6 288.15M519.574 255.154c-2.037-.238-2.94-.3-4.342-.3-11.04 0-16.633 3.787-16.633 11.267 0 4.613 2.724 7.546 6.982 7.546 7.94 0 13.663-7.558 13.992-18.512zm14.184 32.996h-16.146l.366-7.676c-4.925 6.066-11.5 8.95-20.42 8.95-10.567 0-17.8-8.25-17.8-20.23 0-18.023 12.587-28.54 34.212-28.54 2.208 0 5.037.2 7.933.57.604-2.44.763-3.487.763-4.8 0-4.908-3.392-6.737-12.496-6.737-9.533-.108-17.387 2.27-20.63 3.333.205-1.23 2.71-16.66 2.71-16.66 9.712-2.845 16.112-3.916 23.313-3.916 16.74 0 25.604 7.513 25.587 21.712.033 3.805-.596 8.5-1.58 14.67-1.683 10.733-5.32 33.72-5.812 39.324zM313.366 287.025c-5.333 1.68-9.49 2.4-14 2.4-9.962 0-15.4-5.726-15.4-16.268-.14-3.27 1.434-11.88 2.672-19.737 1.125-6.917 8.45-50.53 8.45-50.53h19.37l-2.263 11.21h11.7l-2.642 17.795H309.51c-2.25 14.083-5.453 31.625-5.49 33.95 0 3.816 2.037 5.483 6.67 5.483 2.222 0 3.942-.226 5.255-.7l-2.58 16.397M372.758 286.425c-6.654 2.034-13.075 3.017-19.88 3-21.683-.02-32.986-11.346-32.986-33.033 0-25.313 14.38-43.946 33.9-43.946 15.97 0 26.17 10.433 26.17 26.796 0 5.43-.7 10.73-2.388 18.212H339c-1.305 10.74 5.57 15.217 16.837 15.217 6.934 0 13.188-1.428 20.142-4.662l-3.222 18.417zm-10.888-43.9c.108-1.542 2.055-13.217-9.013-13.217-6.17 0-10.583 4.704-12.38 13.217h21.393zM238.446 237.508c0 9.367 4.542 15.826 14.842 20.676 7.892 3.708 9.112 4.81 9.112 8.17 0 4.617-3.48 6.7-11.19 6.7-5.814 0-11.222-.907-17.46-2.92 0 0-2.562 16.32-2.68 17.1 4.43.967 8.38 1.862 20.28 2.19 20.563 0 30.06-7.828 30.06-24.75 0-10.174-3.977-16.145-13.738-20.633-8.17-3.75-9.108-4.586-9.108-8.044 0-4.004 3.237-6.046 9.537-6.046 3.826 0 9.05.408 14 1.112l2.776-17.175c-5.046-.8-12.696-1.442-17.15-1.442-21.8 0-29.347 11.388-29.28 25.063M467.533 214.392c5.412 0 10.458 1.42 17.412 4.92l3.188-19.762c-2.854-1.12-12.904-7.7-21.417-7.7-13.04 0-24.066 6.47-31.82 17.15-11.31-3.746-15.958 3.825-21.658 11.367l-5.063 1.18c.383-2.484.73-4.95.612-7.447H390.89c-2.445 22.917-6.778 46.128-10.17 69.075l-.884 4.976h19.496c3.254-21.142 5.037-34.68 6.12-43.84l7.342-4.085c1.097-4.078 4.53-5.458 11.417-5.29-.898 4.832-1.382 9.915-1.382 15.183 0 24.225 13.07 39.308 34.05 39.308 5.404 0 10.04-.712 17.22-2.658l3.43-20.76c-6.458 3.18-11.758 4.677-16.558 4.677-11.33 0-18.184-8.363-18.184-22.184 0-20.05 10.197-34.108 24.747-34.108"/><path fill="#FFF" d="M170.208 282.742h-19.49l11.17-69.988-24.926 69.988H123.68l-1.643-69.588-11.733 69.588h-18.24L107.3 191.7h28.02l.79 56.362 18.903-56.362h30.267l-15.072 91.042"/><path d="M632.52 197.096l-4.32 26.31c-5.33-7.014-11.054-12.09-18.612-12.09-9.833 0-18.783 7.456-24.642 18.426-8.158-1.692-16.596-4.563-16.596-4.563l-.004.066c.658-6.134.92-9.875.862-11.146h-17.9c-2.438 22.917-6.77 46.128-10.158 69.075l-.892 4.976h19.492c2.633-17.095 4.65-31.29 6.133-42.55 6.658-6.016 9.992-11.266 16.72-10.916-2.978 7.204-4.724 15.504-4.724 24.017 0 18.514 9.365 30.726 23.532 30.726 7.142 0 12.62-2.462 17.967-8.17l-.914 6.883H636.9l14.842-91.043h-19.22zm-24.37 73.94c-6.633 0-9.983-4.907-9.983-14.595 0-14.553 6.27-24.874 15.112-24.874 6.695 0 10.32 5.104 10.32 14.51 0 14.678-6.37 24.96-15.45 24.96z"/><path fill="#FFF" d="M218.192 249.758c-2.042-.236-2.946-.3-4.346-.3-11.046 0-16.634 3.788-16.634 11.267 0 4.604 2.73 7.547 6.98 7.547 7.946 0 13.667-7.56 14-18.514zm14.178 32.984h-16.146l.367-7.663c-4.92 6.053-11.5 8.95-20.42 8.95-10.567 0-17.805-8.25-17.805-20.23 0-18.033 12.592-28.542 34.217-28.542 2.208 0 5.042.2 7.938.57.604-2.44.763-3.486.763-4.807 0-4.908-3.392-6.728-12.496-6.728-9.537-.108-17.396 2.27-20.63 3.32.205-1.224 2.7-16.636 2.7-16.636 9.71-2.858 16.12-3.93 23.32-3.93 16.738 0 25.605 7.518 25.59 21.705.028 3.822-.605 8.514-1.585 14.676-1.687 10.724-5.32 33.724-5.812 39.316zM493.745 194.15l-3.19 19.767c-6.95-3.496-12-4.92-17.41-4.92-14.55 0-24.75 14.058-24.75 34.107 0 13.82 6.86 22.18 18.185 22.18 4.8 0 10.096-1.492 16.554-4.675l-3.42 20.75c-7.185 1.957-11.817 2.67-17.226 2.67-20.976 0-34.05-15.084-34.05-39.31 0-32.55 18.058-55.3 43.887-55.3 8.508 0 18.562 3.61 21.42 4.73M525.188 249.758c-2.042-.236-2.942-.3-4.347-.3-11.04 0-16.632 3.788-16.632 11.267 0 4.604 2.73 7.547 6.983 7.547 7.94 0 13.664-7.56 13.998-18.514zm14.178 32.984h-16.15l.37-7.663c-4.924 6.053-11.5 8.95-20.42 8.95-10.563 0-17.804-8.25-17.804-20.23 0-18.033 12.596-28.542 34.212-28.542 2.213 0 5.042.2 7.942.57.6-2.44.762-3.486.762-4.807 0-4.908-3.392-6.728-12.495-6.728-9.533-.108-17.396 2.27-20.63 3.32.204-1.224 2.704-16.636 2.704-16.636 9.71-2.858 16.117-3.93 23.317-3.93 16.74 0 25.604 7.518 25.583 21.705.033 3.822-.596 8.514-1.58 14.676-1.682 10.724-5.323 33.724-5.81 39.316zM318.975 281.62c-5.338 1.68-9.496 2.41-14 2.41-9.962 0-15.4-5.726-15.4-16.268-.137-3.28 1.44-11.88 2.676-19.737 1.12-6.926 8.446-50.534 8.446-50.534h19.367l-2.26 11.213h9.942L325.1 226.49h-9.976c-2.25 14.093-5.463 31.622-5.496 33.95 0 3.83 2.04 5.484 6.67 5.484 2.222 0 3.94-.216 5.255-.69l-2.578 16.387M378.366 281.03c-6.65 2.032-13.08 3.01-19.88 3-21.683-.022-32.986-11.347-32.986-33.034 0-25.32 14.38-43.95 33.9-43.95 15.97 0 26.17 10.43 26.17 26.8 0 5.434-.7 10.733-2.383 18.213h-38.575c-1.305 10.74 5.57 15.22 16.837 15.22 6.93 0 13.187-1.434 20.137-4.676l-3.22 18.425zm-10.89-43.913c.115-1.538 2.058-13.217-9.014-13.217-6.167 0-10.58 4.717-12.375 13.217h21.388zM244.054 232.112c0 9.366 4.542 15.817 14.842 20.675 7.892 3.71 9.112 4.813 9.112 8.172 0 4.615-3.483 6.698-11.188 6.698-5.816 0-11.225-.908-17.467-2.92 0 0-2.554 16.32-2.67 17.1 4.42.967 8.374 1.85 20.274 2.19 20.566 0 30.06-7.828 30.06-24.745 0-10.18-3.972-16.15-13.738-20.637-8.168-3.76-9.114-4.584-9.114-8.046 0-4 3.246-6.06 9.542-6.06 3.82 0 9.046.422 14.004 1.126l2.77-17.18c-5.04-.8-12.69-1.44-17.145-1.44-21.804 0-29.346 11.38-29.283 25.066M642.508 282.742H624.07l.917-6.893c-5.346 5.716-10.825 8.18-17.967 8.18-14.167 0-23.53-12.214-23.53-30.726 0-24.63 14.522-45.392 31.71-45.392 7.558 0 13.278 3.087 18.603 10.096l4.325-26.308h19.22l-14.84 91.042zm-28.746-17.11c9.075 0 15.45-10.282 15.45-24.952 0-9.405-3.63-14.51-10.325-14.51-8.837 0-15.116 10.317-15.116 24.876 0 9.687 3.36 14.587 9.992 14.587zM556.92 208.704c-2.44 22.917-6.774 46.13-10.162 69.063l-.892 4.976h19.49c6.973-45.275 8.66-54.117 19.59-53.01 1.74-9.266 4.982-17.382 7.4-21.478-8.164-1.7-12.722 2.913-18.69 11.675.472-3.788 1.334-7.467 1.163-11.225h-17.9M396.5 208.704c-2.446 22.917-6.78 46.13-10.167 69.063l-.888 4.976h19.5c6.963-45.275 8.646-54.117 19.57-53.01 1.75-9.266 4.992-17.382 7.4-21.478-8.154-1.7-12.717 2.913-18.68 11.675.472-3.788 1.326-7.467 1.163-11.225H396.5M651.067 276.945c0-3.212 2.596-5.8 5.796-5.8 3.204 0 5.796 2.588 5.796 5.8 0 3.196-2.593 5.797-5.797 5.797-3.2 0-5.796-2.6-5.796-5.797zm5.796 4.405c2.438 0 4.404-1.975 4.404-4.404 0-2.433-1.967-4.408-4.404-4.408-2.434 0-4.408 1.976-4.408 4.408 0 2.43 1.974 4.404 4.408 4.404zm-.784-1.87h-1.19v-5.083h2.154c.446 0 .91.008 1.296.254.417.284.654.767.654 1.275 0 .575-.337 1.112-.888 1.317l.942 2.236h-1.32l-.78-2.008h-.87v2.01zm0-2.88h.652c.246 0 .513.018.73-.1.195-.125.295-.362.295-.588 0-.188-.116-.412-.287-.524-.204-.116-.542-.083-.763-.083h-.63v1.295h.002z"/></svg>