<svg xmlns="http://www.w3.org/2000/svg" width="780" height="501" viewBox="0 0 780 501"><title>amex-outline</title><path fill="#003087" d="M168.38 169.853c-8.4-5.774-19.36-8.668-32.88-8.668H83.152c-4.145 0-6.435 2.073-6.87 6.215L55.018 300.883c-.22 1.31.107 2.51.98 3.6.87 1.092 1.963 1.635 3.272 1.635h24.864c4.36 0 6.758-2.068 7.198-6.215l5.888-35.986c.215-1.744.982-3.162 2.29-4.254 1.31-1.09 2.945-1.803 4.908-2.13 1.963-.324 3.814-.487 5.562-.487 1.743 0 3.814.11 6.217.327 2.397.218 3.925.324 4.58.324 18.756 0 33.478-5.285 44.167-15.866 10.684-10.576 16.032-25.242 16.032-44.003 0-12.867-4.202-22.19-12.597-27.974zm-26.99 40.08c-1.095 7.635-3.927 12.65-8.507 15.05-4.58 2.402-11.124 3.597-19.63 3.597l-10.796.327 5.563-35.007c.434-2.397 1.85-3.597 4.252-3.597h6.218c8.72 0 15.05 1.257 18.975 3.76 3.924 2.51 5.233 7.802 3.924 15.87z"/><path fill="#009CDE" d="M720.794 161.185h-24.208c-2.405 0-3.82 1.2-4.253 3.6l-21.267 136.1-.328.653c0 1.096.437 2.127 1.31 3.11.87.98 1.964 1.47 3.27 1.47h21.596c4.138 0 6.43-2.068 6.87-6.215L725.05 166.09v-.325c0-3.053-1.423-4.58-4.256-4.58z"/><path fill="#003087" d="M428.31 213.856c0-1.088-.44-2.126-1.306-3.106-.875-.98-1.858-1.474-2.945-1.474h-25.193c-2.404 0-4.366 1.096-5.89 3.27l-34.678 51.04-14.396-49.074c-1.095-3.487-3.492-5.236-7.197-5.236h-24.54c-1.094 0-2.075.492-2.942 1.474-.875.98-1.31 2.02-1.31 3.106 0 .44 2.128 6.87 6.38 19.303 4.252 12.434 8.832 25.848 13.74 40.244 4.908 14.393 7.47 22.03 7.688 22.898-17.886 24.43-26.826 37.517-26.826 39.26 0 2.837 1.416 4.253 4.253 4.253h25.192c2.398 0 4.36-1.088 5.89-3.27l83.426-120.4c.434-.432.652-1.192.652-2.29z"/><path fill="#009CDE" d="M662.887 209.276H638.02c-3.054 0-4.903 3.6-5.557 10.798-5.677-8.72-16.03-13.088-31.083-13.088-15.704 0-29.066 5.89-40.077 17.668-11.016 11.778-16.52 25.63-16.52 41.55 0 12.872 3.76 23.122 11.284 30.753 7.525 7.64 17.612 11.45 30.266 11.45 6.323 0 12.757-1.31 19.3-3.925 6.544-2.617 11.665-6.105 15.38-10.47 0 .22-.223 1.2-.656 2.944-.44 1.748-.655 3.06-.655 3.926 0 3.494 1.414 5.234 4.254 5.234h22.576c4.138 0 6.54-2.068 7.194-6.215l13.415-85.39c.216-1.308-.11-2.506-.98-3.598-.876-1.09-1.964-1.636-3.273-1.636zm-42.694 64.453c-5.562 5.452-12.268 8.177-20.12 8.177-6.328 0-11.45-1.742-15.377-5.234-3.927-3.484-5.89-8.283-5.89-14.395 0-8.065 2.726-14.886 8.18-20.447 5.447-5.56 12.214-8.342 20.285-8.342 6.102 0 11.174 1.8 15.213 5.397 4.032 3.6 6.054 8.563 6.054 14.89 0 7.85-2.783 14.504-8.344 19.954z"/><path fill="#003087" d="M291.23 209.276h-24.864c-3.058 0-4.908 3.6-5.563 10.798-5.89-8.72-16.25-13.088-31.08-13.088-15.705 0-29.066 5.89-40.08 17.668-11.015 11.778-16.52 25.63-16.52 41.55 0 12.872 3.763 23.122 11.288 30.753 7.526 7.64 17.61 11.45 30.263 11.45 6.104 0 12.433-1.31 18.975-3.925 6.543-2.617 11.778-6.105 15.704-10.47-.875 2.618-1.31 4.91-1.31 6.87 0 3.494 1.418 5.234 4.254 5.234h22.574c4.14 0 6.543-2.068 7.198-6.215l13.413-85.39c.216-1.308-.11-2.506-.98-3.598-.873-1.09-1.963-1.636-3.27-1.636zm-42.695 64.615c-5.563 5.35-12.382 8.017-20.447 8.017-6.33 0-11.4-1.742-15.214-5.234-3.82-3.484-5.726-8.283-5.726-14.395 0-8.065 2.725-14.886 8.18-20.447 5.45-5.56 12.21-8.342 20.284-8.342 6.104 0 11.175 1.8 15.214 5.397 4.032 3.6 6.052 8.563 6.052 14.89 0 8.07-2.78 14.778-8.343 20.116z"/><path fill="#009CDE" d="M540.036 169.853c-8.398-5.774-19.356-8.668-32.88-8.668H455.14c-4.365 0-6.765 2.073-7.198 6.215l-21.265 133.483c-.22 1.31.106 2.51.98 3.6.867 1.092 1.963 1.635 3.272 1.635h26.826c2.617 0 4.36-1.416 5.235-4.252l5.89-37.95c.216-1.743.98-3.16 2.29-4.253 1.31-1.09 2.943-1.803 4.908-2.13 1.962-.324 3.813-.487 5.562-.487 1.743 0 3.814.11 6.214.327 2.4.218 3.93.324 4.58.324 18.76 0 33.48-5.285 44.168-15.866 10.687-10.576 16.03-25.242 16.03-44.003.002-12.867-4.2-22.19-12.594-27.974zm-33.534 53.82c-4.8 3.27-11.997 4.906-21.592 4.906l-10.47.326 5.563-35.007c.432-2.398 1.85-3.598 4.252-3.598h5.887c4.797 0 8.614.218 11.454.653 2.83.44 5.56 1.8 8.178 4.09 2.62 2.29 3.926 5.617 3.926 9.978 0 9.162-2.402 15.376-7.198 18.65z"/></svg>