<?xml version="1.0" standalone="yes"?>

<svg version="1.1" viewBox="0.0 0.0 574.2204724409448 544.0971128608924" fill="none" stroke="none" stroke-linecap="square" stroke-miterlimit="10" xmlns="http://www.w3.org/2000/svg" xmlns:xlink="http://www.w3.org/1999/xlink"><clipPath id="p.0"><path d="m0 0l574.22046 0l0 544.0971l-574.22046 0l0 -544.0971z" clip-rule="nonzero"></path></clipPath><g clip-path="url(#p.0)"><path fill="#226ec6" d="m0 0l574.22046 0l0 544.0971l-574.22046 0z" fill-rule="evenodd"></path><path fill="#6aa84f" d="m81.979004 323.31497l427.84253 0l0 55.118103l-427.84253 0z" fill-rule="evenodd"></path><path stroke="#ffffff" stroke-width="1.0" stroke-linejoin="round" stroke-linecap="butt" d="m81.979004 323.31497l427.84253 0l0 55.118103l-427.84253 0z" fill-rule="evenodd"></path><path fill="#ffffff" d="m266.03156 352.27838q0.296875 0.390625 0.765625 1.015625q0.46875 0.609375 0.953125 1.359375q0.5 0.75 0.984375 1.5625q0.484375 0.8125 0.828125 1.578125l-2.015625 0q-0.375 -0.71875 -0.828125 -1.453125q-0.4375 -0.75 -0.90625 -1.421875q-0.453125 -0.671875 -0.90625 -1.265625q-0.4375 -0.59375 -0.796875 -1.03125q-0.25 0.015625 -0.515625 0.015625q-0.25 0 -0.515625 0l-1.640625 0l0 5.15625l-1.84375 0l0 -12.984375q0.765625 -0.1875 1.71875 -0.25q0.96875 -0.0625 1.765625 -0.0625q2.78125 0 4.234375 1.046875q1.453125 1.046875 1.453125 3.109375q0 1.3125 -0.703125 2.25q-0.6875 0.921875 -2.03125 1.375zm-2.796875 -6.171875q-1.171875 0 -1.796875 0.0625l0 4.953125l1.296875 0q0.953125 0 1.71875 -0.09375q0.765625 -0.09375 1.28125 -0.359375q0.515625 -0.265625 0.796875 -0.75q0.296875 -0.484375 0.296875 -1.28125q0 -0.75 -0.296875 -1.234375q-0.28125 -0.5 -0.765625 -0.78125q-0.484375 -0.28125 -1.140625 -0.390625q-0.65625 -0.125 -1.390625 -0.125zm8.094147 11.6875l0 -13.171875l8.03125 0l0 1.578125l-6.1875 0l0 3.921875l5.5 0l0 1.53125l-5.5 0l0 4.5625l6.65625 0l0 1.578125l-8.5 0zm13.6996155 -1.3125q2.890625 0 2.890625 -1.96875q0 -0.609375 -0.265625 -1.03125q-0.25 -0.4375 -0.6875 -0.75q-0.4375 -0.3125 -1.0 -0.53125q-0.546875 -0.234375 -1.171875 -0.46875q-0.734375 -0.25 -1.375 -0.5625q-0.640625 -0.3125 -1.125 -0.734375q-0.46875 -0.4375 -0.75 -1.015625q-0.265625 -0.59375 -0.265625 -1.421875q0 -1.734375 1.171875 -2.703125q1.171875 -0.96875 3.25 -0.96875q1.203125 0 2.171875 0.265625q0.984375 0.25 1.4375 0.546875l-0.59375 1.5q-0.390625 -0.25 -1.1875 -0.484375q-0.78125 -0.234375 -1.828125 -0.234375q-0.53125 0 -1.0 0.125q-0.453125 0.109375 -0.796875 0.34375q-0.328125 0.21875 -0.53125 0.578125q-0.203125 0.34375 -0.203125 0.8125q0 0.53125 0.203125 0.890625q0.21875 0.359375 0.59375 0.640625q0.390625 0.28125 0.890625 0.515625q0.5 0.21875 1.109375 0.4375q0.859375 0.34375 1.5625 0.6875q0.71875 0.34375 1.234375 0.828125q0.53125 0.46875 0.8125 1.125q0.28125 0.65625 0.28125 1.578125q0 1.734375 -1.265625 2.671875q-1.265625 0.921875 -3.5625 0.921875q-0.78125 0 -1.4375 -0.109375q-0.640625 -0.09375 -1.15625 -0.234375q-0.515625 -0.140625 -0.890625 -0.296875q-0.359375 -0.171875 -0.578125 -0.28125l0.546875 -1.53125q0.4375 0.25 1.328125 0.5625q0.90625 0.296875 2.1875 0.296875zm15.67511 -11.859375l0 1.59375l-4.15625 0l0 11.578125l-1.828125 0l0 -11.578125l-4.15625 0l0 -1.59375l10.140625 0zm14.850403 13.171875q-0.328125 -0.859375 -0.625 -1.6875q-0.28125 -0.828125 -0.578125 -1.671875l-5.96875 0l-1.1875 3.359375l-1.921875 0q0.75 -2.09375 1.40625 -3.859375q0.671875 -1.78125 1.3125 -3.375q0.640625 -1.59375 1.265625 -3.046875q0.625 -1.453125 1.3125 -2.890625l1.6875 0q0.6875 1.4375 1.3125 2.890625q0.625 1.453125 1.265625 3.046875q0.640625 1.59375 1.296875 3.375q0.671875 1.765625 1.421875 3.859375l-2.0 0zm-1.734375 -4.890625q-0.609375 -1.640625 -1.21875 -3.1875q-0.59375 -1.5625 -1.234375 -2.984375q-0.65625 1.421875 -1.265625 2.984375q-0.59375 1.546875 -1.1875 3.1875l4.90625 0zm8.790955 -8.40625q2.78125 0 4.265625 1.0625q1.5 1.046875 1.5 3.140625q0 1.125 -0.421875 1.9375q-0.40625 0.8125 -1.171875 1.3125q-0.765625 0.5 -1.875 0.734375q-1.09375 0.21875 -2.484375 0.21875l-1.453125 0l0 4.890625l-1.84375 0l0 -12.984375q0.765625 -0.1875 1.71875 -0.25q0.96875 -0.0625 1.765625 -0.0625zm0.15625 1.609375q-1.171875 0 -1.796875 0.0625l0 5.171875l1.375 0q0.953125 0 1.703125 -0.125q0.765625 -0.125 1.28125 -0.421875q0.53125 -0.296875 0.8125 -0.8125q0.296875 -0.515625 0.296875 -1.3125q0 -0.75 -0.296875 -1.25q-0.296875 -0.5 -0.796875 -0.78125q-0.5 -0.296875 -1.171875 -0.40625q-0.671875 -0.125 -1.40625 -0.125zm7.7023926 -1.484375l1.84375 0l0 13.171875l-1.84375 0l0 -13.171875z" fill-rule="nonzero"></path><path fill="#3aa9f0" d="m81.979004 22.08924l107.40158 0l0 88.09448l-107.40158 0z" fill-rule="evenodd"></path><path stroke="#ffffff" stroke-width="1.0" stroke-linejoin="round" stroke-linecap="butt" d="m81.979004 22.08924l107.40158 0l0 88.09448l-107.40158 0z" fill-rule="evenodd"></path><path fill="#ffffff" d="m119.0805 71.74398q2.890625 0 2.890625 -1.96875q0 -0.609375 -0.265625 -1.03125q-0.25 -0.4375 -0.6875 -0.75q-0.4375 -0.3125 -1.0 -0.53125q-0.546875 -0.234375 -1.171875 -0.46875q-0.734375 -0.25 -1.375 -0.5625q-0.640625 -0.3125 -1.125 -0.734375q-0.46875 -0.4375 -0.75 -1.015625q-0.265625 -0.59375 -0.265625 -1.421875q0 -1.734375 1.171875 -2.703125q1.171875 -0.96875 3.25 -0.96875q1.203125 0 2.171875 0.265625q0.984375 0.25 1.4375 0.546875l-0.59375 1.5q-0.390625 -0.25 -1.1875 -0.484375q-0.78125 -0.234375 -1.828125 -0.234375q-0.53125 0 -1.0 0.125q-0.453125 0.109375 -0.796875 0.34375q-0.328125 0.21875 -0.53125 0.578125q-0.203125 0.34375 -0.203125 0.8125q0 0.53125 0.203125 0.890625q0.21875 0.359375 0.59375 0.640625q0.390625 0.28125 0.890625 0.515625q0.5 0.21875 1.109375 0.4375q0.859375 0.34375 1.5625 0.6875q0.71875 0.34375 1.234375 0.828125q0.53125 0.46875 0.8125 1.125q0.28125 0.65625 0.28125 1.578125q0 1.734375 -1.265625 2.671875q-1.265625 0.921875 -3.5625 0.921875q-0.78125 0 -1.4375 -0.109375q-0.640625 -0.09375 -1.15625 -0.234375q-0.515625 -0.140625 -0.890625 -0.296875q-0.359375 -0.171875 -0.578125 -0.28125l0.546875 -1.53125q0.4375 0.25 1.328125 0.5625q0.90625 0.296875 2.1875 0.296875zm6.75325 1.3125l0 -14.4375l1.765625 -0.3125l0 5.0625q0.5000076 -0.1875 1.0625076 -0.296875q0.5625 -0.109375 1.109375 -0.109375q1.171875 0 1.953125 0.34375q0.78125 0.328125 1.25 0.921875q0.46875 0.59375 0.65625 1.4375q0.1875 0.828125 0.1875 1.84375l0 5.546875l-1.765625 0l0 -5.171875q0 -0.90625 -0.125 -1.546875q-0.125 -0.65625 -0.40625 -1.046875q-0.28125 -0.40625 -0.765625 -0.578125q-0.46875 -0.1875 -1.171875 -0.1875q-0.28125 0 -0.59375 0.046875q-0.296875 0.03125 -0.578125 0.078125q-0.28125 0.046875 -0.5000076 0.109375q-0.21875 0.046875 -0.3125 0.09375l0 8.203125l-1.765625 0zm19.371483 -4.9375q0 1.171875 -0.34375 2.125q-0.328125 0.953125 -0.953125 1.640625q-0.609375 0.671875 -1.46875 1.046875q-0.859375 0.375 -1.859375 0.375q-1.015625 0 -1.875 -0.375q-0.84375 -0.375 -1.46875 -1.046875q-0.609375 -0.6875 -0.953125 -1.640625q-0.34375 -0.953125 -0.34375 -2.125q0 -1.15625 0.34375 -2.109375q0.34375 -0.96875 0.953125 -1.65625q0.625 -0.6875 1.46875 -1.046875q0.859375 -0.375 1.875 -0.375q1.0 0 1.859375 0.375q0.859375 0.359375 1.46875 1.046875q0.625 0.6875 0.953125 1.65625q0.34375 0.953125 0.34375 2.109375zm-1.84375 0q0 -1.671875 -0.75 -2.640625q-0.75 -0.984375 -2.03125 -0.984375q-1.296875 0 -2.046875 0.984375q-0.75 0.96875 -0.75 2.640625q0 1.671875 0.75 2.65625q0.75 0.96875 2.046875 0.96875q1.28125 0 2.03125 -0.96875q0.75 -0.984375 0.75 -2.65625zm10.991562 0.015625q0 -1.734375 -0.859375 -2.65625q-0.84375 -0.9375 -2.265625 -0.9375q-0.796875 0 -1.25 0.0625q-0.453125 0.0625 -0.71875 0.125l0 6.234375q0.328125 0.265625 0.9375 0.515625q0.609375 0.25 1.328125 0.25q0.765625 0 1.296875 -0.265625q0.546875 -0.28125 0.890625 -0.765625q0.34375 -0.484375 0.484375 -1.140625q0.15625 -0.65625 0.15625 -1.421875zm1.84375 0q0 1.125 -0.296875 2.078125q-0.28125 0.9375 -0.859375 1.625q-0.5625 0.6875 -1.390625 1.078125q-0.828125 0.375 -1.890625 0.375q-0.859375 0 -1.515625 -0.234375q-0.65625 -0.234375 -0.984375 -0.4375l0 3.953125l-1.765625 0l0 -13.09375q0.625 -0.15625 1.5625 -0.328125q0.953125 -0.1875 2.1875 -0.1875q1.140625 0 2.046875 0.375q0.921875 0.359375 1.5625 1.03125q0.640625 0.65625 0.984375 1.609375q0.359375 0.953125 0.359375 2.15625z" fill-rule="nonzero"></path><path fill="#e06666" d="m239.70079 450.9453l0 0c0 -7.78006 25.160782 -14.087036 56.198166 -14.087036c31.037384 0 56.19815 6.3069763 56.19815 14.087036l0 56.348206c0 7.7800903 -25.160767 14.087036 -56.19815 14.087036c-31.037384 0 -56.198166 -6.306946 -56.198166 -14.087036z" fill-rule="evenodd"></path><path fill="#000000" fill-opacity="0.0" d="m352.0971 450.9453l0 0c0 7.78006 -25.160767 14.087067 -56.19815 14.087067c-31.037384 0 -56.198166 -6.307007 -56.198166 -14.087067" fill-rule="evenodd"></path><path fill="#000000" fill-opacity="0.0" d="m239.70079 450.9453l0 0c0 -7.78006 25.160782 -14.087036 56.198166 -14.087036c31.037384 0 56.19815 6.3069763 56.19815 14.087036l0 56.348206c0 7.7800903 -25.160767 14.087036 -56.19815 14.087036c-31.037384 0 -56.198166 -6.306946 -56.198166 -14.087036z" fill-rule="evenodd"></path><path stroke="#ffffff" stroke-width="1.0" stroke-linejoin="round" stroke-linecap="butt" d="m352.0971 450.9453l0 0c0 7.78006 -25.160767 14.087067 -56.19815 14.087067c-31.037384 0 -56.198166 -6.307007 -56.198166 -14.087067" fill-rule="evenodd"></path><path stroke="#ffffff" stroke-width="1.0" stroke-linejoin="round" stroke-linecap="butt" d="m239.70079 450.9453l0 0c0 -7.78006 25.160782 -14.087036 56.198166 -14.087036c31.037384 0 56.19815 6.3069763 56.19815 14.087036l0 56.348206c0 7.7800903 -25.160767 14.087036 -56.19815 14.087036c-31.037384 0 -56.198166 -6.306946 -56.198166 -14.087036z" fill-rule="evenodd"></path><path fill="#ffffff" d="m260.91888 491.25482q-0.1875 -0.453125 -0.515625 -1.15625q-0.3125 -0.703125 -0.671875 -1.515625q-0.359375 -0.8125 -0.765625 -1.671875q-0.40625 -0.875 -0.765625 -1.640625q-0.359375 -0.78125 -0.671875 -1.375q-0.3125 -0.609375 -0.515625 -0.9375q-0.203125 2.234375 -0.34375 4.859375q-0.125 2.609375 -0.21875 5.265625l-1.8124847 0q0.078125 -1.703125 0.171875 -3.4375q0.09375 -1.75 0.21875 -3.421875q0.125 -1.6875 0.265625 -3.28125q0.15625 -1.59375 0.3125 -3.03125l1.6249847 0q0.515625 0.84375 1.09375 1.984375q0.59375 1.140625 1.171875 2.390625q0.59375 1.234375 1.140625 2.484375q0.5625 1.234375 1.015625 2.265625q0.453125 -1.03125 1.0 -2.265625q0.5625 -1.25 1.140625 -2.484375q0.59375 -1.25 1.1875 -2.390625q0.59375 -1.140625 1.109375 -1.984375l1.609375 0q0.640625 6.375 0.96875 13.171875l-1.8125 0q-0.09375 -2.65625 -0.234375 -5.265625q-0.125 -2.625 -0.328125 -4.859375q-0.1875 0.328125 -0.5 0.9375q-0.3125 0.59375 -0.6875 1.375q-0.359375 0.765625 -0.765625 1.640625q-0.40625 0.859375 -0.765625 1.671875q-0.359375 0.8125 -0.671875 1.515625q-0.3125 0.703125 -0.5 1.15625l-1.484375 0zm18.937103 -3.109375q0 1.171875 -0.34375 2.125q-0.328125 0.953125 -0.953125 1.640625q-0.609375 0.671875 -1.46875 1.046875q-0.859375 0.375 -1.859375 0.375q-1.015625 0 -1.875 -0.375q-0.84375 -0.375 -1.46875 -1.046875q-0.609375 -0.6875 -0.953125 -1.640625q-0.34375 -0.953125 -0.34375 -2.125q0 -1.15625 0.34375 -2.109375q0.34375 -0.96875 0.953125 -1.65625q0.625 -0.6875 1.46875 -1.046875q0.859375 -0.375 1.875 -0.375q1.0 0 1.859375 0.375q0.859375 0.359375 1.46875 1.046875q0.625 0.6875 0.953125 1.65625q0.34375 0.953125 0.34375 2.109375zm-1.84375 0q0 -1.671875 -0.75 -2.640625q-0.75 -0.984375 -2.03125 -0.984375q-1.296875 0 -2.046875 0.984375q-0.75 0.96875 -0.75 2.640625q0 1.671875 0.75 2.65625q0.75 0.96875 2.046875 0.96875q1.28125 0 2.03125 -0.96875q0.75 -0.984375 0.75 -2.65625zm4.132202 -4.65625q0.609375 -0.15625 1.609375 -0.328125q1.015625 -0.171875 2.328125 -0.171875q1.171875 0 1.953125 0.34375q0.78125 0.328125 1.25 0.921875q0.46875 0.59375 0.65625 1.4375q0.1875 0.828125 0.1875 1.84375l0 5.546875l-1.765625 0l0 -5.171875q0 -0.90625 -0.125 -1.546875q-0.125 -0.65625 -0.40625 -1.046875q-0.28125 -0.40625 -0.765625 -0.578125q-0.46875 -0.1875 -1.171875 -0.1875q-0.28125 0 -0.59375 0.015625q-0.296875 0.015625 -0.578125 0.046875q-0.28125 0.03125 -0.5 0.078125q-0.21875 0.03125 -0.3125 0.046875l0 8.34375l-1.765625 0l0 -9.59375zm16.911804 8.609375q-0.234375 0.140625 -0.890625 0.390625q-0.65625 0.234375 -1.53125 0.234375q-0.890625 0 -1.6875 -0.28125q-0.78125 -0.296875 -1.375 -0.890625q-0.578125 -0.59375 -0.921875 -1.484375q-0.34375 -0.890625 -0.34375 -2.140625q0 -1.078125 0.3125 -1.96875q0.328125 -0.90625 0.9375 -1.5625q0.625 -0.65625 1.515625 -1.03125q0.90625 -0.375 2.015625 -0.375q1.234375 0 2.15625 0.1875q0.921875 0.171875 1.5625 0.328125l0 8.8125q0 2.28125 -1.1875 3.3125q-1.171875 1.03125 -3.5625 1.03125q-0.9375 0 -1.765625 -0.15625q-0.828125 -0.15625 -1.4375 -0.359375l0.328125 -1.546875q0.53125 0.21875 1.296875 0.375q0.765625 0.15625 1.609375 0.15625q1.578125 0 2.265625 -0.625q0.703125 -0.625 0.703125 -1.984375l0 -0.421875zm-0.03125 -7.34375q-0.265625 -0.0625 -0.71875 -0.125q-0.4375 -0.078125 -1.1875 -0.078125q-1.4375 0 -2.203125 0.9375q-0.765625 0.921875 -0.765625 2.46875q0 0.84375 0.21875 1.453125q0.21875 0.609375 0.578125 1.015625q0.375 0.390625 0.859375 0.59375q0.484375 0.1875 1.0 0.1875q0.703125 0 1.296875 -0.203125q0.59375 -0.203125 0.921875 -0.46875l0 -5.78125zm13.3302 3.390625q0 1.171875 -0.34375 2.125q-0.328125 0.953125 -0.953125 1.640625q-0.609375 0.671875 -1.46875 1.046875q-0.859375 0.375 -1.859375 0.375q-1.015625 0 -1.875 -0.375q-0.84375 -0.375 -1.46875 -1.046875q-0.609375 -0.6875 -0.953125 -1.640625q-0.34375 -0.953125 -0.34375 -2.125q0 -1.15625 0.34375 -2.109375q0.34375 -0.96875 0.953125 -1.65625q0.625 -0.6875 1.46875 -1.046875q0.859375 -0.375 1.875 -0.375q1.0 0 1.859375 0.375q0.859375 0.359375 1.46875 1.046875q0.625 0.6875 0.953125 1.65625q0.34375 0.953125 0.34375 2.109375zm-1.84375 0q0 -1.671875 -0.75 -2.640625q-0.75 -0.984375 -2.03125 -0.984375q-1.296875 0 -2.046875 0.984375q-0.75 0.96875 -0.75 2.640625q0 1.671875 0.75 2.65625q0.75 0.96875 2.046875 0.96875q1.28125 0 2.03125 -0.96875q0.75 -0.984375 0.75 -2.65625zm15.054047 -1.65625q0 1.703125 -0.53125 2.96875q-0.53125 1.265625 -1.5 2.09375q-0.96875 0.828125 -2.3125 1.234375q-1.34375 0.40625 -2.96875 0.40625q-0.796875 0 -1.765625 -0.0625q-0.953125 -0.0625 -1.71875 -0.25l0 -12.78125q0.765625 -0.1875 1.71875 -0.25q0.96875 -0.0625 1.765625 -0.0625q1.625 0 2.96875 0.40625q1.34375 0.40625 2.3125 1.234375q0.96875 0.828125 1.5 2.09375q0.53125 1.265625 0.53125 2.96875zm-7.15625 5.09375q2.625 0 3.90625 -1.34375q1.296875 -1.34375 1.296875 -3.75q0 -2.40625 -1.296875 -3.75q-1.28125 -1.34375 -3.90625 -1.34375q-0.78125 0 -1.21875 0.03125q-0.421875 0.015625 -0.578125 0.03125l0 10.0625q0.15625 0.03125 0.578125 0.046875q0.4375 0.015625 1.21875 0.015625zm13.20816 1.609375q-0.40625 0 -0.875 -0.015625q-0.453125 -0.015625 -0.921875 -0.0625q-0.46875 -0.03125 -0.921875 -0.078125q-0.453125 -0.0625 -0.828125 -0.15625l0 -12.78125q0.375 -0.09375 0.828125 -0.140625q0.453125 -0.0625 0.921875 -0.09375q0.46875 -0.046875 0.921875 -0.0625q0.453125 -0.015625 0.859375 -0.015625q1.140625 0 2.125 0.171875q1.0 0.171875 1.734375 0.578125q0.734375 0.40625 1.15625 1.078125q0.421875 0.65625 0.421875 1.625q0 1.078125 -0.515625 1.78125q-0.515625 0.6875 -1.375 1.03125q1.15625 0.34375 1.84375 1.09375q0.6875 0.734375 0.6875 2.078125q0 1.984375 -1.453125 2.984375q-1.453125 0.984375 -4.609375 0.984375zm-1.734375 -6.25l0 4.640625q0.21875 0.015625 0.5 0.03125q0.25 0.03125 0.578125 0.046875q0.328125 0 0.765625 0q0.828125 0 1.546875 -0.109375q0.734375 -0.109375 1.28125 -0.375q0.5625 -0.265625 0.890625 -0.734375q0.328125 -0.46875 0.328125 -1.203125q0 -0.640625 -0.25 -1.078125q-0.234375 -0.453125 -0.703125 -0.71875q-0.46875 -0.265625 -1.125 -0.375q-0.640625 -0.125 -1.4375 -0.125l-2.375 0zm0 -1.484375l1.9375 0q0.6875 0 1.296875 -0.09375q0.609375 -0.09375 1.046875 -0.328125q0.453125 -0.25 0.703125 -0.640625q0.265625 -0.40625 0.265625 -1.015625q0 -0.578125 -0.265625 -0.96875q-0.265625 -0.390625 -0.734375 -0.625q-0.46875 -0.234375 -1.09375 -0.34375q-0.625 -0.125 -1.328125 -0.125q-0.703125 0 -1.109375 0.03125q-0.390625 0.015625 -0.71875 0.046875l0 4.0625z" fill-rule="nonzero"></path><path fill="#6aa84f" d="m243.72704 22.08924l107.401566 0l0 88.09448l-107.401566 0z" fill-rule="evenodd"></path><path stroke="#ffffff" stroke-width="1.0" stroke-linejoin="round" stroke-linecap="butt" d="m243.72704 22.08924l107.401566 0l0 88.09448l-107.401566 0z" fill-rule="evenodd"></path><path fill="#ffffff" d="m280.82852 66.74398q2.890625 0 2.890625 -1.96875q0 -0.609375 -0.265625 -1.03125q-0.25 -0.4375 -0.6875 -0.75q-0.4375 -0.3125 -1.0 -0.53125q-0.546875 -0.234375 -1.171875 -0.46875q-0.734375 -0.25 -1.375 -0.5625q-0.640625 -0.3125 -1.125 -0.734375q-0.46875 -0.4375 -0.75 -1.015625q-0.265625 -0.59375 -0.265625 -1.421875q0 -1.734375 1.171875 -2.703125q1.171875 -0.96875 3.25 -0.96875q1.203125 0 2.171875 0.265625q0.984375 0.25 1.4375 0.546875l-0.59375 1.5q-0.390625 -0.25 -1.1875 -0.484375q-0.78125 -0.234375 -1.828125 -0.234375q-0.53125 0 -1.0 0.125q-0.453125 0.109375 -0.796875 0.34375q-0.328125 0.21875 -0.53125 0.578125q-0.203125 0.34375 -0.203125 0.8125q0 0.53125 0.203125 0.890625q0.21875 0.359375 0.59375 0.640625q0.390625 0.28125 0.890625 0.515625q0.5 0.21875 1.109375 0.4375q0.859375 0.34375 1.5625 0.6875q0.71875 0.34375 1.234375 0.828125q0.53125 0.46875 0.8125 1.125q0.28125 0.65625 0.28125 1.578125q0 1.734375 -1.265625 2.671875q-1.265625 0.921875 -3.5625 0.921875q-0.78125 0 -1.4375 -0.109375q-0.640625 -0.09375 -1.15625 -0.234375q-0.515625 -0.140625 -0.890625 -0.296875q-0.359375 -0.171875 -0.578125 -0.28125l0.546875 -1.53125q0.4375 0.25 1.328125 0.5625q0.90625 0.296875 2.1875 0.296875zm6.7532654 1.3125l0 -14.4375l1.765625 -0.3125l0 5.0625q0.5 -0.1875 1.0625 -0.296875q0.5625 -0.109375 1.109375 -0.109375q1.171875 0 1.953125 0.34375q0.78125 0.328125 1.25 0.921875q0.46875 0.59375 0.65625 1.4375q0.1875 0.828125 0.1875 1.84375l0 5.546875l-1.765625 0l0 -5.171875q0 -0.90625 -0.125 -1.546875q-0.125 -0.65625 -0.40625 -1.046875q-0.28125 -0.40625 -0.765625 -0.578125q-0.46875 -0.1875 -1.171875 -0.1875q-0.28125 0 -0.59375 0.046875q-0.296875 0.03125 -0.578125 0.078125q-0.28125 0.046875 -0.5 0.109375q-0.21875 0.046875 -0.3125 0.09375l0 8.203125l-1.765625 0zm19.37146 -4.9375q0 1.171875 -0.34375 2.125q-0.328125 0.953125 -0.953125 1.640625q-0.609375 0.671875 -1.46875 1.046875q-0.859375 0.375 -1.859375 0.375q-1.015625 0 -1.875 -0.375q-0.84375 -0.375 -1.46875 -1.046875q-0.609375 -0.6875 -0.953125 -1.640625q-0.34375 -0.953125 -0.34375 -2.125q0 -1.15625 0.34375 -2.109375q0.34375 -0.96875 0.953125 -1.65625q0.625 -0.6875 1.46875 -1.046875q0.859375 -0.375 1.875 -0.375q1.0 0 1.859375 0.375q0.859375 0.359375 1.46875 1.046875q0.625 0.6875 0.953125 1.65625q0.34375 0.953125 0.34375 2.109375zm-1.84375 0q0 -1.671875 -0.75 -2.640625q-0.75 -0.984375 -2.03125 -0.984375q-1.296875 0 -2.046875 0.984375q-0.75 0.96875 -0.75 2.640625q0 1.671875 0.75 2.65625q0.75 0.96875 2.046875 0.96875q1.28125 0 2.03125 -0.96875q0.75 -0.984375 0.75 -2.65625zm10.991577 0.015625q0 -1.734375 -0.859375 -2.65625q-0.84375 -0.9375 -2.265625 -0.9375q-0.796875 0 -1.25 0.0625q-0.453125 0.0625 -0.71875 0.125l0 6.234375q0.328125 0.265625 0.9375 0.515625q0.609375 0.25 1.328125 0.25q0.765625 0 1.296875 -0.265625q0.546875 -0.28125 0.890625 -0.765625q0.34375 -0.484375 0.484375 -1.140625q0.15625 -0.65625 0.15625 -1.421875zm1.84375 0q0 1.125 -0.296875 2.078125q-0.28125 0.9375 -0.859375 1.625q-0.5625 0.6875 -1.390625 1.078125q-0.828125 0.375 -1.890625 0.375q-0.859375 0 -1.515625 -0.234375q-0.65625 -0.234375 -0.984375 -0.4375l0 3.953125l-1.765625 0l0 -13.09375q0.625 -0.15625 1.5625 -0.328125q0.953125 -0.1875 2.1875 -0.1875q1.140625 0 2.046875 0.375q0.921875 0.359375 1.5625 1.03125q0.640625 0.65625 0.984375 1.609375q0.359375 0.953125 0.359375 2.15625z" fill-rule="nonzero"></path><path fill="#ffffff" d="m259.31708 79.26961q1.21875 0 1.21875 -0.84375q0 -0.25 -0.109375 -0.421875q-0.109375 -0.1875 -0.296875 -0.3125q-0.171875 -0.140625 -0.40625 -0.234375q-0.234375 -0.09375 -0.5 -0.1875q-0.3125 -0.109375 -0.578125 -0.234375q-0.265625 -0.140625 -0.46875 -0.3125q-0.203125 -0.1875 -0.328125 -0.4375q-0.109375 -0.25 -0.109375 -0.59375q0 -0.734375 0.5 -1.140625q0.5 -0.40625 1.359375 -0.40625q0.515625 0 0.921875 0.109375q0.40625 0.109375 0.609375 0.234375l-0.25 0.625q-0.171875 -0.09375 -0.5 -0.1875q-0.328125 -0.109375 -0.78125 -0.109375q-0.21875 0 -0.421875 0.046875q-0.1875 0.046875 -0.328125 0.140625q-0.140625 0.09375 -0.234375 0.25q-0.078125 0.140625 -0.078125 0.34375q0 0.234375 0.09375 0.390625q0.09375 0.140625 0.25 0.265625q0.15625 0.109375 0.359375 0.203125q0.21875 0.09375 0.484375 0.1875q0.359375 0.140625 0.65625 0.296875q0.296875 0.140625 0.515625 0.34375q0.21875 0.1875 0.34375 0.46875q0.125 0.28125 0.125 0.671875q0 0.734375 -0.546875 1.125q-0.53125 0.390625 -1.5 0.390625q-0.328125 0 -0.609375 -0.046875q-0.265625 -0.046875 -0.484375 -0.109375q-0.21875 -0.0625 -0.375 -0.125q-0.140625 -0.0625 -0.234375 -0.109375l0.234375 -0.640625q0.1875 0.09375 0.5625 0.234375q0.375 0.125 0.90625 0.125zm2.693451 -1.53125q0 -0.546875 0.15625 -0.953125q0.171875 -0.421875 0.421875 -0.6875q0.265625 -0.265625 0.609375 -0.40625q0.34375 -0.140625 0.703125 -0.140625q0.84375 0 1.296875 0.53125q0.453125 0.515625 0.453125 1.59375q0 0.046875 0 0.125q0 0.078125 -0.015625 0.140625l-2.84375 0q0.046875 0.640625 0.375 0.984375q0.328125 0.328125 1.015625 0.328125q0.390625 0 0.65625 -0.0625q0.28125 -0.078125 0.40625 -0.140625l0.109375 0.625q-0.140625 0.078125 -0.484375 0.15625q-0.328125 0.078125 -0.765625 0.078125q-0.546875 0 -0.9375 -0.15625q-0.390625 -0.171875 -0.65625 -0.453125q-0.25 -0.296875 -0.375 -0.6875q-0.125 -0.390625 -0.125 -0.875zm2.859375 -0.40625q0 -0.5 -0.265625 -0.8125q-0.25 -0.328125 -0.703125 -0.328125q-0.25 0 -0.453125 0.09375q-0.203125 0.09375 -0.34375 0.265625q-0.125 0.15625 -0.203125 0.359375q-0.078125 0.203125 -0.09375 0.421875l2.0625 0zm3.3782043 -1.765625q0.09375 0 0.21875 0.015625q0.125 0.015625 0.25 0.03125q0.125 0.015625 0.21875 0.046875q0.09375 0.015625 0.15625 0.03125l-0.140625 0.640625q-0.078125 -0.03125 -0.28125 -0.0625q-0.203125 -0.046875 -0.53125 -0.046875q-0.203125 0 -0.40625 0.046875q-0.203125 0.03125 -0.265625 0.046875l0 3.5l-0.75 0l0 -3.984375q0.265625 -0.09375 0.65625 -0.171875q0.390625 -0.09375 0.875 -0.09375zm4.8067017 0.09375q-0.3125 1.171875 -0.734375 2.25q-0.421875 1.0625 -0.8125 1.90625l-0.671875 0q-0.390625 -0.84375 -0.8125 -1.90625q-0.421875 -1.078125 -0.734375 -2.25l0.796875 0q0.109375 0.390625 0.234375 0.84375q0.125 0.4375 0.265625 0.875q0.15625 0.421875 0.3125 0.84375q0.15625 0.40625 0.296875 0.71875q0.125 -0.3125 0.28125 -0.71875q0.15625 -0.421875 0.296875 -0.84375q0.15625 -0.4375 0.28125 -0.875q0.140625 -0.453125 0.234375 -0.84375l0.765625 0zm0.5315857 2.078125q0 -0.546875 0.15625 -0.953125q0.171875 -0.421875 0.421875 -0.6875q0.265625 -0.265625 0.609375 -0.40625q0.34375 -0.140625 0.703125 -0.140625q0.84375 0 1.296875 0.53125q0.453125 0.515625 0.453125 1.59375q0 0.046875 0 0.125q0 0.078125 -0.015625 0.140625l-2.84375 0q0.046875 0.640625 0.375 0.984375q0.328125 0.328125 1.015625 0.328125q0.390625 0 0.65625 -0.0625q0.28125 -0.078125 0.40625 -0.140625l0.109375 0.625q-0.140625 0.078125 -0.484375 0.15625q-0.328125 0.078125 -0.765625 0.078125q-0.546875 0 -0.9375 -0.15625q-0.390625 -0.171875 -0.65625 -0.453125q-0.25 -0.296875 -0.375 -0.6875q-0.125 -0.390625 -0.125 -0.875zm2.859375 -0.40625q0 -0.5 -0.265625 -0.8125q-0.25 -0.328125 -0.703125 -0.328125q-0.25 0 -0.453125 0.09375q-0.203125 0.09375 -0.34375 0.265625q-0.125 0.15625 -0.203125 0.359375q-0.078125 0.203125 -0.09375 0.421875l2.0625 0zm3.3781738 -1.765625q0.09375 0 0.21875 0.015625q0.125 0.015625 0.25 0.03125q0.125 0.015625 0.21875 0.046875q0.09375 0.015625 0.15625 0.03125l-0.140625 0.640625q-0.078125 -0.03125 -0.28125 -0.0625q-0.203125 -0.046875 -0.53125 -0.046875q-0.203125 0 -0.40625 0.046875q-0.203125 0.03125 -0.265625 0.046875l0 3.5l-0.75 0l0 -3.984375q0.265625 -0.09375 0.65625 -0.171875q0.390625 -0.09375 0.875 -0.09375zm4.7328186 3.703125q1.21875 0 1.21875 -0.84375q0 -0.25 -0.109375 -0.421875q-0.109375 -0.1875 -0.296875 -0.3125q-0.171875 -0.140625 -0.40625 -0.234375q-0.234375 -0.09375 -0.5 -0.1875q-0.3125 -0.109375 -0.578125 -0.234375q-0.265625 -0.140625 -0.46875 -0.3125q-0.203125 -0.1875 -0.328125 -0.4375q-0.109375 -0.25 -0.109375 -0.59375q0 -0.734375 0.5 -1.140625q0.5 -0.40625 1.359375 -0.40625q0.515625 0 0.921875 0.109375q0.40625 0.109375 0.609375 0.234375l-0.25 0.625q-0.171875 -0.09375 -0.5 -0.1875q-0.328125 -0.109375 -0.78125 -0.109375q-0.21875 0 -0.421875 0.046875q-0.1875 0.046875 -0.328125 0.140625q-0.140625 0.09375 -0.234375 0.25q-0.078125 0.140625 -0.078125 0.34375q0 0.234375 0.09375 0.390625q0.09375 0.140625 0.25 0.265625q0.15625 0.109375 0.359375 0.203125q0.21875 0.09375 0.484375 0.1875q0.359375 0.140625 0.65625 0.296875q0.296875 0.140625 0.515625 0.34375q0.21875 0.1875 0.34375 0.46875q0.125 0.28125 0.125 0.671875q0 0.734375 -0.546875 1.125q-0.53125 0.390625 -1.5 0.390625q-0.328125 0 -0.609375 -0.046875q-0.265625 -0.046875 -0.484375 -0.109375q-0.21875 -0.0625 -0.375 -0.125q-0.140625 -0.0625 -0.234375 -0.109375l0.234375 -0.640625q0.1875 0.09375 0.5625 0.234375q0.375 0.125 0.90625 0.125zm3.677826 0.546875l-0.75 0l0 -4.15625l0.75 0l0 4.15625zm-0.375 -4.90625q-0.203125 0 -0.34375 -0.125q-0.140625 -0.140625 -0.140625 -0.375q0 -0.21875 0.140625 -0.34375q0.140625 -0.140625 0.34375 -0.140625q0.1875 0 0.328125 0.140625q0.140625 0.125 0.140625 0.34375q0 0.234375 -0.140625 0.375q-0.140625 0.125 -0.328125 0.125zm4.336487 1.625q-0.140625 -0.109375 -0.390625 -0.203125q-0.25 -0.109375 -0.5625 -0.109375q-0.3125 0 -0.546875 0.109375q-0.234375 0.109375 -0.375 0.328125q-0.140625 0.203125 -0.203125 0.484375q-0.0625 0.265625 -0.0625 0.59375q0 0.71875 0.359375 1.125q0.359375 0.390625 0.953125 0.390625q0.3125 0 0.515625 -0.015625q0.203125 -0.03125 0.3125 -0.0625l0 -2.640625zm0 -2.796875l0.75 -0.125l0 6.078125q-0.265625 0.078125 -0.671875 0.140625q-0.390625 0.078125 -0.90625 0.078125q-0.484375 0 -0.875 -0.140625q-0.375 -0.15625 -0.65625 -0.4375q-0.265625 -0.28125 -0.421875 -0.6875q-0.140625 -0.40625 -0.140625 -0.90625q0 -0.484375 0.125 -0.875q0.125 -0.40625 0.359375 -0.6875q0.25 -0.296875 0.59375 -0.453125q0.34375 -0.15625 0.796875 -0.15625q0.359375 0 0.625 0.09375q0.28125 0.09375 0.421875 0.1875l0 -2.109375zm1.7900696 4.0q0 -0.546875 0.15625 -0.953125q0.171875 -0.421875 0.421875 -0.6875q0.265625 -0.265625 0.609375 -0.40625q0.34375 -0.140625 0.703125 -0.140625q0.84375 0 1.296875 0.53125q0.453125 0.515625 0.453125 1.59375q0 0.046875 0 0.125q0 0.078125 -0.015625 0.140625l-2.84375 0q0.046875 0.640625 0.375 0.984375q0.328125 0.328125 1.015625 0.328125q0.390625 0 0.65625 -0.0625q0.28125 -0.078125 0.40625 -0.140625l0.109375 0.625q-0.140625 0.078125 -0.484375 0.15625q-0.328125 0.078125 -0.765625 0.078125q-0.546875 0 -0.9375 -0.15625q-0.390625 -0.171875 -0.65625 -0.453125q-0.25 -0.296875 -0.375 -0.6875q-0.125 -0.390625 -0.125 -0.875zm2.859375 -0.40625q0 -0.5 -0.265625 -0.8125q-0.25 -0.328125 -0.703125 -0.328125q-0.25 0 -0.453125 0.09375q-0.203125 0.09375 -0.34375 0.265625q-0.125 0.15625 -0.203125 0.359375q-0.078125 0.203125 -0.09375 0.421875l2.0625 0zm6.460541 0.171875q0.125 0.15625 0.3125 0.421875q0.203125 0.25 0.40625 0.5625q0.21875 0.3125 0.421875 0.671875q0.203125 0.34375 0.34375 0.65625l-0.84375 0q-0.171875 -0.296875 -0.359375 -0.609375q-0.1875 -0.3125 -0.375 -0.59375q-0.1875 -0.296875 -0.375 -0.53125q-0.1875 -0.25 -0.34375 -0.4375q-0.109375 0 -0.21875 0q-0.109375 0 -0.21875 0l-0.6875 0l0 2.171875l-0.78125 0l0 -5.46875q0.328125 -0.078125 0.734375 -0.09375q0.40625 -0.03125 0.734375 -0.03125q1.171875 0 1.78125 0.4375q0.609375 0.4375 0.609375 1.3125q0 0.546875 -0.296875 0.9375q-0.28125 0.390625 -0.84375 0.59375zm-1.1875 -2.609375q-0.484375 0 -0.75 0.03125l0 2.078125l0.546875 0q0.40625 0 0.71875 -0.03125q0.328125 -0.046875 0.546875 -0.15625q0.21875 -0.109375 0.328125 -0.3125q0.125 -0.203125 0.125 -0.546875q0 -0.3125 -0.125 -0.515625q-0.109375 -0.203125 -0.3125 -0.328125q-0.203125 -0.125 -0.484375 -0.171875q-0.28125 -0.046875 -0.59375 -0.046875zm3.2194214 2.84375q0 -0.546875 0.15625 -0.953125q0.171875 -0.421875 0.421875 -0.6875q0.265625 -0.265625 0.609375 -0.40625q0.34375 -0.140625 0.703125 -0.140625q0.84375 0 1.296875 0.53125q0.453125 0.515625 0.453125 1.59375q0 0.046875 0 0.125q0 0.078125 -0.015625 0.140625l-2.84375 0q0.046875 0.640625 0.375 0.984375q0.328125 0.328125 1.015625 0.328125q0.390625 0 0.65625 -0.0625q0.28125 -0.078125 0.40625 -0.140625l0.109375 0.625q-0.140625 0.078125 -0.484375 0.15625q-0.328125 0.078125 -0.765625 0.078125q-0.546875 0 -0.9375 -0.15625q-0.390625 -0.171875 -0.65625 -0.453125q-0.25 -0.296875 -0.375 -0.6875q-0.125 -0.390625 -0.125 -0.875zm2.859375 -0.40625q0 -0.5 -0.265625 -0.8125q-0.25 -0.328125 -0.703125 -0.328125q-0.25 0 -0.453125 0.09375q-0.203125 0.09375 -0.34375 0.265625q-0.125 0.15625 -0.203125 0.359375q-0.078125 0.203125 -0.09375 0.421875l2.0625 0zm1.8469238 -1.5625q0.25 -0.0625 0.671875 -0.125q0.4375 -0.078125 0.984375 -0.078125q0.5 0 0.828125 0.140625q0.328125 0.140625 0.515625 0.390625q0.203125 0.25 0.28125 0.609375q0.078125 0.34375 0.078125 0.765625l0 2.34375l-0.75 0l0 -2.171875q0 -0.390625 -0.046875 -0.65625q-0.046875 -0.28125 -0.171875 -0.4375q-0.125 -0.171875 -0.328125 -0.25q-0.1875 -0.078125 -0.484375 -0.078125q-0.125 0 -0.25 0.015625q-0.125 0 -0.25 0.015625q-0.109375 0.015625 -0.203125 0.03125q-0.09375 0.015625 -0.125 0.015625l0 3.515625l-0.75 0l0 -4.046875zm7.2794495 0.765625q-0.140625 -0.109375 -0.390625 -0.203125q-0.25 -0.109375 -0.5625 -0.109375q-0.3125 0 -0.546875 0.109375q-0.234375 0.109375 -0.375 0.328125q-0.140625 0.203125 -0.203125 0.484375q-0.0625 0.265625 -0.0625 0.59375q0 0.71875 0.359375 1.125q0.359375 0.390625 0.953125 0.390625q0.3125 0 0.515625 -0.015625q0.203125 -0.03125 0.3125 -0.0625l0 -2.640625zm0 -2.796875l0.75 -0.125l0 6.078125q-0.265625 0.078125 -0.671875 0.140625q-0.390625 0.078125 -0.90625 0.078125q-0.484375 0 -0.875 -0.140625q-0.375 -0.15625 -0.65625 -0.4375q-0.265625 -0.28125 -0.421875 -0.6875q-0.140625 -0.40625 -0.140625 -0.90625q0 -0.484375 0.125 -0.875q0.125 -0.40625 0.359375 -0.6875q0.25 -0.296875 0.59375 -0.453125q0.34375 -0.15625 0.796875 -0.15625q0.359375 0 0.625 0.09375q0.28125 0.09375 0.421875 0.1875l0 -2.109375zm1.7900696 4.0q0 -0.546875 0.15625 -0.953125q0.171875 -0.421875 0.421875 -0.6875q0.265625 -0.265625 0.609375 -0.40625q0.34375 -0.140625 0.703125 -0.140625q0.84375 0 1.296875 0.53125q0.453125 0.515625 0.453125 1.59375q0 0.046875 0 0.125q0 0.078125 -0.015625 0.140625l-2.84375 0q0.046875 0.640625 0.375 0.984375q0.328125 0.328125 1.015625 0.328125q0.390625 0 0.65625 -0.0625q0.28125 -0.078125 0.40625 -0.140625l0.109375 0.625q-0.140625 0.078125 -0.484375 0.15625q-0.328125 0.078125 -0.765625 0.078125q-0.546875 0 -0.9375 -0.15625q-0.390625 -0.171875 -0.65625 -0.453125q-0.25 -0.296875 -0.375 -0.6875q-0.125 -0.390625 -0.125 -0.875zm2.859375 -0.40625q0 -0.5 -0.265625 -0.8125q-0.25 -0.328125 -0.703125 -0.328125q-0.25 0 -0.453125 0.09375q-0.203125 0.09375 -0.34375 0.265625q-0.125 0.15625 -0.203125 0.359375q-0.078125 0.203125 -0.09375 0.421875l2.0625 0zm3.3781738 -1.765625q0.09375 0 0.21875 0.015625q0.125 0.015625 0.25 0.03125q0.125 0.015625 0.21875 0.046875q0.09375 0.015625 0.15625 0.03125l-0.140625 0.640625q-0.078125 -0.03125 -0.28125 -0.0625q-0.203125 -0.046875 -0.53125 -0.046875q-0.203125 0 -0.40625 0.046875q-0.203125 0.03125 -0.265625 0.046875l0 3.5l-0.75 0l0 -3.984375q0.265625 -0.09375 0.65625 -0.171875q0.390625 -0.09375 0.875 -0.09375zm2.3067322 4.25l-0.75 0l0 -4.15625l0.75 0l0 4.15625zm-0.375 -4.90625q-0.203125 0 -0.34375 -0.125q-0.140625 -0.140625 -0.140625 -0.375q0 -0.21875 0.140625 -0.34375q0.140625 -0.140625 0.34375 -0.140625q0.1875 0 0.328125 0.140625q0.140625 0.125 0.140625 0.34375q0 0.234375 -0.140625 0.375q-0.140625 0.125 -0.328125 0.125zm1.6489563 0.859375q0.25 -0.0625 0.671875 -0.125q0.4375 -0.078125 0.984375 -0.078125q0.5 0 0.828125 0.140625q0.328125 0.140625 0.515625 0.390625q0.203125 0.25 0.28125 0.609375q0.078125 0.34375 0.078125 0.765625l0 2.34375l-0.75 0l0 -2.171875q0 -0.390625 -0.046875 -0.65625q-0.046875 -0.28125 -0.171875 -0.4375q-0.125 -0.171875 -0.328125 -0.25q-0.1875 -0.078125 -0.484375 -0.078125q-0.125 0 -0.25 0.015625q-0.125 0 -0.25 0.015625q-0.109375 0.015625 -0.203125 0.03125q-0.09375 0.015625 -0.125 0.015625l0 3.515625l-0.75 0l0 -4.046875zm7.2013245 3.625q-0.09375 0.0625 -0.375 0.171875q-0.28125 0.09375 -0.640625 0.09375q-0.375 0 -0.71875 -0.109375q-0.328125 -0.125 -0.578125 -0.375q-0.234375 -0.25 -0.390625 -0.625q-0.140625 -0.375 -0.140625 -0.90625q0 -0.453125 0.140625 -0.828125q0.140625 -0.390625 0.390625 -0.65625q0.265625 -0.28125 0.640625 -0.4375q0.375 -0.15625 0.84375 -0.15625q0.515625 0 0.90625 0.078125q0.390625 0.078125 0.65625 0.140625l0 3.71875q0 0.953125 -0.5 1.375q-0.5 0.4375 -1.5 0.4375q-0.390625 0 -0.75 -0.0625q-0.34375 -0.0625 -0.59375 -0.15625l0.140625 -0.640625q0.21875 0.09375 0.53125 0.15625q0.328125 0.0625 0.6875 0.0625q0.65625 0 0.953125 -0.265625q0.296875 -0.25 0.296875 -0.828125l0 -0.1875zm-0.015625 -3.078125q-0.109375 -0.03125 -0.296875 -0.0625q-0.1875 -0.03125 -0.5 -0.03125q-0.609375 0 -0.9375 0.390625q-0.3125 0.390625 -0.3125 1.046875q0 0.359375 0.09375 0.625q0.09375 0.25 0.25 0.421875q0.15625 0.15625 0.359375 0.234375q0.203125 0.078125 0.40625 0.078125q0.296875 0 0.546875 -0.078125q0.25 -0.078125 0.390625 -0.203125l0 -2.421875z" fill-rule="nonzero"></path><path fill="#6aa84f" d="m81.979004 195.74016l107.40158 0l0 55.118103l-107.40158 0z" fill-rule="evenodd"></path><path stroke="#ffffff" stroke-width="1.0" stroke-linejoin="round" stroke-linecap="butt" d="m81.979004 195.74016l107.40158 0l0 55.118103l-107.40158 0z" fill-rule="evenodd"></path><path fill="#ffffff" d="m105.41867 230.21921q-0.328125 -0.859375 -0.625 -1.6875q-0.28125 -0.828125 -0.578125 -1.671875l-5.96875 0l-1.1875 3.359375l-1.921875 0q0.75 -2.09375 1.40625 -3.859375q0.671875 -1.78125 1.3125 -3.375q0.640625 -1.59375 1.265625 -3.046875q0.625 -1.453125 1.3125 -2.890625l1.6875 0q0.6875 1.4375 1.3125 2.890625q0.625 1.453125 1.265625 3.046875q0.640625 1.59375 1.296875 3.375q0.671875 1.765625 1.421875 3.859375l-2.0 0zm-1.734375 -4.890625q-0.609375 -1.640625 -1.21875 -3.1875q-0.59375 -1.5625 -1.234375 -2.984375q-0.65625 1.421875 -1.265625 2.984375q-0.59375 1.546875 -1.1875 3.1875l4.90625 0zm8.79097 -8.40625q2.78125 0 4.265625 1.0625q1.5 1.046875 1.5 3.140625q0 1.125 -0.421875 1.9375q-0.40625 0.8125 -1.171875 1.3125q-0.765625 0.5 -1.875 0.734375q-1.09375 0.21875 -2.484375 0.21875l-1.453125 0l0 4.890625l-1.84375 0l0 -12.984375q0.765625 -0.1875 1.71875 -0.25q0.96875 -0.0625 1.765625 -0.0625zm0.15625 1.609375q-1.171875 0 -1.796875 0.0625l0 5.171875l1.375 0q0.953125 0 1.703125 -0.125q0.765625 -0.125 1.28125 -0.421875q0.53125 -0.296875 0.8125 -0.8125q0.296875 -0.515625 0.296875 -1.3125q0 -0.75 -0.296875 -1.25q-0.296875 -0.5 -0.796875 -0.78125q-0.5 -0.296875 -1.171875 -0.40625q-0.671875 -0.125 -1.40625 -0.125zm7.7023773 -1.484375l1.84375 0l0 13.171875l-1.84375 0l0 -13.171875zm12.812515 -0.125q2.78125 0 4.265625 1.0625q1.5 1.046875 1.5 3.140625q0 1.125 -0.421875 1.9375q-0.40625 0.8125 -1.171875 1.3125q-0.765625 0.5 -1.875 0.734375q-1.09375 0.21875 -2.484375 0.21875l-1.453125 0l0 4.890625l-1.84375 0l0 -12.984375q0.765625 -0.1875 1.71875 -0.25q0.96875 -0.0625 1.765625 -0.0625zm0.15625 1.609375q-1.171875 0 -1.796875 0.0625l0 5.171875l1.375 0q0.953125 0 1.703125 -0.125q0.765625 -0.125 1.28125 -0.421875q0.53125 -0.296875 0.8125 -0.8125q0.296875 -0.515625 0.296875 -1.3125q0 -0.75 -0.296875 -1.25q-0.296875 -0.5 -0.796875 -0.78125q-0.5 -0.296875 -1.171875 -0.40625q-0.671875 -0.125 -1.40625 -0.125zm11.233627 1.59375q0.21875 0 0.515625 0.03125q0.296875 0.03125 0.578125 0.078125q0.296875 0.046875 0.53125 0.09375q0.234375 0.046875 0.34375 0.09375l-0.296875 1.53125q-0.21875 -0.078125 -0.703125 -0.171875q-0.484375 -0.109375 -1.234375 -0.109375q-0.5 0 -0.984375 0.109375q-0.484375 0.09375 -0.640625 0.140625l0 8.296875l-1.765625 0l0 -9.46875q0.625 -0.21875 1.5625 -0.421875q0.9375 -0.203125 2.09375 -0.203125zm12.263809 5.15625q0 1.171875 -0.34375 2.125q-0.328125 0.953125 -0.953125 1.640625q-0.609375 0.671875 -1.46875 1.046875q-0.859375 0.375 -1.859375 0.375q-1.015625 0 -1.875 -0.375q-0.84375 -0.375 -1.46875 -1.046875q-0.609375 -0.6875 -0.953125 -1.640625q-0.34375 -0.953125 -0.34375 -2.125q0 -1.15625 0.34375 -2.109375q0.34375 -0.96875 0.953125 -1.65625q0.625 -0.6875 1.46875 -1.046875q0.859375 -0.375 1.875 -0.375q1.0 0 1.859375 0.375q0.859375 0.359375 1.46875 1.046875q0.625 0.6875 0.953125 1.65625q0.34375 0.953125 0.34375 2.109375zm-1.84375 0q0 -1.671875 -0.75 -2.640625q-0.75 -0.984375 -2.03125 -0.984375q-1.296875 0 -2.046875 0.984375q-0.75 0.96875 -0.75 2.640625q0 1.671875 0.75 2.65625q0.75 0.96875 2.046875 0.96875q1.28125 0 2.03125 -0.96875q0.75 -0.984375 0.75 -2.65625zm10.038437 4.9375q-0.203125 -0.421875 -0.515625 -0.921875q-0.296875 -0.515625 -0.65625 -1.0625q-0.359375 -0.546875 -0.75 -1.078125q-0.375 -0.53125 -0.734375 -1.0q-0.359375 0.46875 -0.75 1.015625q-0.375 0.53125 -0.734375 1.078125q-0.34375 0.546875 -0.640625 1.0625q-0.296875 0.5 -0.515625 0.90625l-1.828125 0q0.671875 -1.296875 1.59375 -2.625q0.921875 -1.34375 1.828125 -2.5625l-3.265625 -4.6875l2.0 0l2.359375 3.453125l2.375 -3.453125l1.875 0l-3.1875 4.578125q0.90625 1.234375 1.859375 2.609375q0.96875 1.375 1.625 2.6875l-1.9375 0zm2.4708405 1.84375q0.203125 0.09375 0.53125 0.171875q0.34375 0.09375 0.671875 0.09375q1.046875 0 1.625 -0.46875q0.59375 -0.46875 1.0625 -1.5q-1.1875 -2.28125 -2.234375 -4.84375q-1.03125 -2.5625 -1.71875 -5.171875l1.90625 0q0.203125 0.84375 0.5 1.84375q0.296875 0.984375 0.65625 2.03125q0.359375 1.046875 0.78125 2.09375q0.421875 1.03125 0.875 2.0q0.71875 -1.984375 1.25 -3.9375q0.53125 -1.96875 1.015625 -4.03125l1.8125 0q-0.671875 2.78125 -1.515625 5.359375q-0.828125 2.578125 -1.796875 4.8125q-0.390625 0.859375 -0.796875 1.46875q-0.40625 0.625 -0.90625 1.015625q-0.484375 0.40625 -1.109375 0.59375q-0.609375 0.203125 -1.390625 0.203125q-0.203125 0 -0.4375 -0.03125q-0.234375 -0.03125 -0.453125 -0.078125q-0.21875 -0.046875 -0.40625 -0.109375q-0.171875 -0.046875 -0.25 -0.09375l0.328125 -1.421875z" fill-rule="nonzero"></path><path fill="#000000" fill-opacity="0.0" d="m73.979004 87.60105l88.944885 0l0 22.582672l-88.944885 0z" fill-rule="evenodd"></path><path fill="#ffffff" d="m87.65088 103.65355q0.171875 0.21875 0.4375 0.578125q0.28125 0.359375 0.5625 0.796875q0.296875 0.421875 0.5625 0.90625q0.28125 0.46875 0.484375 0.90625l-1.15625 0q-0.234375 -0.421875 -0.5 -0.84375q-0.25 -0.4375 -0.515625 -0.828125q-0.25 -0.390625 -0.515625 -0.71875q-0.265625 -0.34375 -0.46875 -0.59375q-0.140625 0 -0.296875 0q-0.140625 0 -0.296875 0l-0.953125 0l0 2.984375l-1.0625 0l0 -7.515625q0.4375 -0.109375 1.0 -0.140625q0.5625 -0.046875 1.015625 -0.046875q1.609375 0 2.453125 0.609375q0.84375 0.609375 0.84375 1.796875q0 0.765625 -0.40625 1.3125q-0.40625 0.53125 -1.1875 0.796875zm-1.609375 -3.578125q-0.6875 0 -1.046875 0.03125l0 2.875l0.75 0q0.5625 0 1.0 -0.046875q0.4375 -0.0625 0.734375 -0.21875q0.3125 -0.15625 0.46875 -0.4375q0.171875 -0.28125 0.171875 -0.734375q0 -0.4375 -0.171875 -0.71875q-0.15625 -0.28125 -0.4375 -0.453125q-0.28125 -0.171875 -0.671875 -0.234375q-0.375 -0.0625 -0.796875 -0.0625zm4.2028503 3.921875q0 -0.765625 0.21875 -1.328125q0.21875 -0.5625 0.578125 -0.9375q0.375 -0.375 0.84375 -0.5625q0.46875 -0.1875 0.96875 -0.1875q1.15625 0 1.765625 0.71875q0.625 0.71875 0.625 2.1875q0 0.078125 0 0.1875q0 0.09375 -0.015625 0.1875l-3.921875 0q0.0625 0.890625 0.515625 1.359375q0.453125 0.453125 1.40625 0.453125q0.546875 0 0.90625 -0.09375q0.375 -0.09375 0.5625 -0.1875l0.140625 0.859375q-0.1875 0.09375 -0.65625 0.203125q-0.46875 0.109375 -1.0625 0.109375q-0.75 0 -1.296875 -0.21875q-0.53125 -0.21875 -0.890625 -0.609375q-0.34375 -0.40625 -0.515625 -0.953125q-0.171875 -0.546875 -0.171875 -1.1875zm3.921875 -0.5625q0.015625 -0.703125 -0.34375 -1.140625q-0.359375 -0.453125 -0.984375 -0.453125q-0.34375 0 -0.625 0.140625q-0.265625 0.140625 -0.453125 0.359375q-0.1875 0.21875 -0.296875 0.515625q-0.09375 0.28125 -0.125 0.578125l2.828125 0zm4.285034 2.671875q0.359375 0 0.640625 -0.015625q0.28125 -0.015625 0.46875 -0.0625l0 -1.703125q-0.109375 -0.0625 -0.359375 -0.09375q-0.234375 -0.046875 -0.59375 -0.046875q-0.234375 0 -0.5 0.046875q-0.25 0.03125 -0.46875 0.140625q-0.203125 0.09375 -0.359375 0.28125q-0.140625 0.171875 -0.140625 0.46875q0 0.546875 0.359375 0.765625q0.359375 0.21875 0.953125 0.21875zm-0.078125 -5.125q0.609375 0 1.03125 0.15625q0.421875 0.15625 0.671875 0.453125q0.265625 0.28125 0.375 0.6875q0.109375 0.40625 0.109375 0.890625l0 3.578125q-0.125 0.015625 -0.359375 0.0625q-0.234375 0.03125 -0.53125 0.0625q-0.296875 0.03125 -0.65625 0.0625q-0.34375 0.03125 -0.6875 0.03125q-0.46875 0 -0.890625 -0.109375q-0.40625 -0.09375 -0.703125 -0.296875q-0.296875 -0.21875 -0.46875 -0.5625q-0.15625 -0.359375 -0.15625 -0.859375q0 -0.46875 0.1875 -0.8125q0.203125 -0.34375 0.53125 -0.546875q0.328125 -0.21875 0.765625 -0.3125q0.4375 -0.09375 0.921875 -0.09375q0.15625 0 0.3125 0.015625q0.171875 0.015625 0.3125 0.046875q0.15625 0.015625 0.265625 0.046875q0.125 0.015625 0.15625 0.03125l0 -0.296875q0 -0.25 -0.0625 -0.484375q-0.046875 -0.25 -0.1875 -0.4375q-0.140625 -0.203125 -0.390625 -0.3125q-0.25 -0.125 -0.640625 -0.125q-0.5 0 -0.890625 0.078125q-0.375 0.0625 -0.5625 0.140625l-0.125 -0.84375q0.203125 -0.09375 0.65625 -0.171875q0.46875 -0.078125 1.015625 -0.078125zm6.187622 5.984375q-0.6875 0 -1.21875 -0.21875q-0.515625 -0.21875 -0.875 -0.609375q-0.359375 -0.390625 -0.53125 -0.9375q-0.171875 -0.546875 -0.171875 -1.203125q0 -0.671875 0.1875 -1.21875q0.203125 -0.546875 0.546875 -0.9375q0.359375 -0.40625 0.859375 -0.625q0.515625 -0.234375 1.140625 -0.234375q0.390625 0 0.765625 0.0625q0.390625 0.0625 0.75 0.203125l-0.234375 0.875q-0.234375 -0.109375 -0.546875 -0.171875q-0.296875 -0.078125 -0.625 -0.078125q-0.859375 0 -1.328125 0.546875q-0.453125 0.53125 -0.453125 1.578125q0 0.453125 0.109375 0.84375q0.109375 0.390625 0.328125 0.671875q0.21875 0.265625 0.5625 0.421875q0.359375 0.140625 0.875 0.140625q0.40625 0 0.734375 -0.078125q0.328125 -0.078125 0.515625 -0.171875l0.140625 0.859375q-0.078125 0.0625 -0.25 0.109375q-0.15625 0.046875 -0.375 0.078125q-0.203125 0.046875 -0.4375 0.0625q-0.234375 0.03125 -0.46875 0.03125zm3.4395752 -5.84375l2.15625 0l0 0.859375l-2.15625 0l0 2.640625q0 0.421875 0.0625 0.703125q0.0625 0.28125 0.1875 0.453125q0.140625 0.15625 0.328125 0.21875q0.203125 0.0625 0.46875 0.0625q0.46875 0 0.75 -0.09375q0.28125 -0.109375 0.390625 -0.15625l0.1875 0.84375q-0.15625 0.078125 -0.546875 0.1875q-0.375 0.125 -0.859375 0.125q-0.59375 0 -0.96875 -0.140625q-0.375 -0.15625 -0.609375 -0.453125q-0.234375 -0.296875 -0.328125 -0.734375q-0.09375 -0.4375 -0.09375 -1.015625l0 -5.09375l1.03125 -0.171875l0 1.765625z" fill-rule="nonzero"></path><path fill="#000000" fill-opacity="0.0" d="m235.72704 87.60105l115.401566 0l0 22.582672l-115.401566 0z" fill-rule="evenodd"></path><path fill="#ffffff" d="m250.89891 106.84105q-0.25 -0.40625 -0.5625 -0.90625q-0.3125 -0.515625 -0.671875 -1.0625q-0.359375 -0.546875 -0.75 -1.09375q-0.390625 -0.5625 -0.78125 -1.078125q-0.375 -0.53125 -0.75 -0.984375q-0.359375 -0.46875 -0.671875 -0.828125l0 5.953125l-1.03125 0l0 -7.625l0.84375 0q0.515625 0.546875 1.09375 1.28125q0.59375 0.734375 1.171875 1.515625q0.578125 0.765625 1.09375 1.515625q0.515625 0.75 0.859375 1.328125l0 -5.640625l1.046875 0l0 7.625l-0.890625 0zm7.5078278 -2.859375q0 0.6875 -0.203125 1.234375q-0.1875 0.546875 -0.546875 0.953125q-0.359375 0.390625 -0.859375 0.609375q-0.484375 0.203125 -1.0625 0.203125q-0.59375 0 -1.09375 -0.203125q-0.484375 -0.21875 -0.84375 -0.609375q-0.359375 -0.40625 -0.5625 -0.953125q-0.1875 -0.546875 -0.1875 -1.234375q0 -0.671875 0.1875 -1.21875q0.203125 -0.5625 0.5625 -0.953125q0.359375 -0.40625 0.84375 -0.609375q0.5 -0.21875 1.09375 -0.21875q0.578125 0 1.0625 0.21875q0.5 0.203125 0.859375 0.609375q0.359375 0.390625 0.546875 0.953125q0.203125 0.546875 0.203125 1.21875zm-1.0625 0q0 -0.96875 -0.4375 -1.53125q-0.421875 -0.578125 -1.171875 -0.578125q-0.75 0 -1.1875 0.578125q-0.4375 0.5625 -0.4375 1.53125q0 0.96875 0.4375 1.53125q0.4375 0.5625 1.1875 0.5625q0.75 0 1.171875 -0.5625q0.4375 -0.5625 0.4375 -1.53125zm6.0059814 -1.65625q-0.1875 -0.140625 -0.546875 -0.28125q-0.34375 -0.15625 -0.765625 -0.15625q-0.4375 0 -0.75 0.171875q-0.3125 0.15625 -0.515625 0.4375q-0.203125 0.28125 -0.296875 0.671875q-0.078125 0.375 -0.078125 0.8125q0 1.0 0.5 1.546875q0.5 0.546875 1.3125 0.546875q0.421875 0 0.703125 -0.03125q0.28125 -0.046875 0.4375 -0.09375l0 -3.625zm0 -3.84375l1.015625 -0.171875l0 8.359375q-0.34375 0.109375 -0.90625 0.203125q-0.546875 0.09375 -1.25 0.09375q-0.671875 0 -1.203125 -0.203125q-0.515625 -0.203125 -0.890625 -0.59375q-0.375 -0.390625 -0.578125 -0.9375q-0.203125 -0.5625 -0.203125 -1.25q0 -0.65625 0.171875 -1.203125q0.171875 -0.5625 0.5 -0.953125q0.328125 -0.390625 0.796875 -0.609375q0.484375 -0.234375 1.109375 -0.234375q0.484375 0 0.859375 0.140625q0.390625 0.125 0.578125 0.25l0 -2.890625zm2.2609863 5.515625q0 -0.765625 0.21875 -1.328125q0.21875 -0.5625 0.578125 -0.9375q0.375 -0.375 0.84375 -0.5625q0.46875 -0.1875 0.96875 -0.1875q1.15625 0 1.765625 0.71875q0.625 0.71875 0.625 2.1875q0 0.078125 0 0.1875q0 0.09375 -0.015625 0.1875l-3.921875 0q0.0625 0.890625 0.515625 1.359375q0.453125 0.453125 1.40625 0.453125q0.546875 0 0.90625 -0.09375q0.375 -0.09375 0.5625 -0.1875l0.140625 0.859375q-0.1875 0.09375 -0.65625 0.203125q-0.46875 0.109375 -1.0625 0.109375q-0.75 0 -1.296875 -0.21875q-0.53125 -0.21875 -0.890625 -0.609375q-0.34375 -0.40625 -0.515625 -0.953125q-0.171875 -0.546875 -0.171875 -1.1875zm3.921875 -0.5625q0.015625 -0.703125 -0.34375 -1.140625q-0.359375 -0.453125 -0.984375 -0.453125q-0.34375 0 -0.625 0.140625q-0.265625 0.140625 -0.453125 0.359375q-0.1875 0.21875 -0.296875 0.515625q-0.09375 0.28125 -0.125 0.578125l2.828125 0zm6.081909 0.953125q0 0.546875 -0.125 1.03125q-0.109375 0.46875 -0.40625 0.828125q-0.28125 0.359375 -0.78125 0.5625q-0.484375 0.203125 -1.21875 0.203125q-0.375 0 -0.6875 -0.0625q-0.3125 -0.0625 -0.5625 -0.15625q-0.25 -0.09375 -0.4375 -0.203125q-0.1875 -0.109375 -0.296875 -0.203125l0.40625 -0.84375q0.234375 0.15625 0.59375 0.34375q0.375 0.1875 0.9375 0.1875q0.78125 0 1.140625 -0.40625q0.375 -0.40625 0.375 -1.375l0 -5.078125l1.0625 0l0 5.171875zm3.437561 1.6875q1.671875 0 1.671875 -1.140625q0 -0.34375 -0.15625 -0.59375q-0.140625 -0.25 -0.390625 -0.421875q-0.25 -0.1875 -0.578125 -0.3125q-0.328125 -0.140625 -0.6875 -0.28125q-0.421875 -0.140625 -0.796875 -0.3125q-0.375 -0.1875 -0.65625 -0.4375q-0.265625 -0.25 -0.4375 -0.578125q-0.15625 -0.34375 -0.15625 -0.828125q0 -1.0 0.6875 -1.5625q0.6875 -0.5625 1.890625 -0.5625q0.6875 0 1.25 0.15625q0.5625 0.140625 0.828125 0.3125l-0.34375 0.875q-0.21875 -0.140625 -0.6875 -0.28125q-0.453125 -0.140625 -1.046875 -0.140625q-0.3125 0 -0.578125 0.0625q-0.265625 0.0625 -0.46875 0.203125q-0.1875 0.125 -0.3125 0.328125q-0.109375 0.203125 -0.109375 0.484375q0 0.3125 0.109375 0.515625q0.125 0.203125 0.34375 0.375q0.234375 0.15625 0.515625 0.296875q0.296875 0.125 0.640625 0.25q0.5 0.203125 0.90625 0.40625q0.421875 0.1875 0.71875 0.46875q0.3125 0.265625 0.46875 0.65625q0.171875 0.375 0.171875 0.921875q0 1.0 -0.734375 1.546875q-0.734375 0.53125 -2.0625 0.53125q-0.453125 0 -0.84375 -0.0625q-0.375 -0.0625 -0.671875 -0.140625q-0.296875 -0.09375 -0.515625 -0.1875q-0.203125 -0.09375 -0.328125 -0.15625l0.328125 -0.875q0.25 0.140625 0.765625 0.3125q0.515625 0.171875 1.265625 0.171875zm5.9901733 -2.96875l2.078125 0l0 -2.265625l0.890625 0l0 2.265625l2.078125 0l0 0.875l-2.078125 0l0 2.28125l-0.890625 0l0 -2.28125l-2.078125 0l0 -0.875zm12.565582 0.546875q0.171875 0.21875 0.4375 0.578125q0.28125 0.359375 0.5625 0.796875q0.296875 0.421875 0.5625 0.90625q0.28125 0.46875 0.484375 0.90625l-1.15625 0q-0.234375 -0.421875 -0.5 -0.84375q-0.25 -0.4375 -0.515625 -0.828125q-0.25 -0.390625 -0.515625 -0.71875q-0.265625 -0.34375 -0.46875 -0.59375q-0.140625 0 -0.296875 0q-0.140625 0 -0.296875 0l-0.953125 0l0 2.984375l-1.0625 0l0 -7.515625q0.4375 -0.109375 1.0 -0.140625q0.5625 -0.046875 1.015625 -0.046875q1.609375 0 2.453125 0.609375q0.84375 0.609375 0.84375 1.796875q0 0.765625 -0.40625 1.3125q-0.40625 0.53125 -1.1875 0.796875zm-1.609375 -3.578125q-0.6875 0 -1.046875 0.03125l0 2.875l0.75 0q0.5625 0 1.0 -0.046875q0.4375 -0.0625 0.734375 -0.21875q0.3125 -0.15625 0.46875 -0.4375q0.171875 -0.28125 0.171875 -0.734375q0 -0.4375 -0.171875 -0.71875q-0.15625 -0.28125 -0.4375 -0.453125q-0.28125 -0.171875 -0.671875 -0.234375q-0.375 -0.0625 -0.796875 -0.0625zm4.2028503 3.921875q0 -0.765625 0.21875 -1.328125q0.21875 -0.5625 0.578125 -0.9375q0.375 -0.375 0.84375 -0.5625q0.46875 -0.1875 0.96875 -0.1875q1.15625 0 1.765625 0.71875q0.625 0.71875 0.625 2.1875q0 0.078125 0 0.1875q0 0.09375 -0.015625 0.1875l-3.921875 0q0.0625 0.890625 0.515625 1.359375q0.453125 0.453125 1.40625 0.453125q0.546875 0 0.90625 -0.09375q0.375 -0.09375 0.5625 -0.1875l0.140625 0.859375q-0.1875 0.09375 -0.65625 0.203125q-0.46875 0.109375 -1.0625 0.109375q-0.75 0 -1.296875 -0.21875q-0.53125 -0.21875 -0.890625 -0.609375q-0.34375 -0.40625 -0.515625 -0.953125q-0.171875 -0.546875 -0.171875 -1.1875zm3.921875 -0.5625q0.015625 -0.703125 -0.34375 -1.140625q-0.359375 -0.453125 -0.984375 -0.453125q-0.34375 0 -0.625 0.140625q-0.265625 0.140625 -0.453125 0.359375q-0.1875 0.21875 -0.296875 0.515625q-0.09375 0.28125 -0.125 0.578125l2.828125 0zm4.285034 2.671875q0.359375 0 0.640625 -0.015625q0.28125 -0.015625 0.46875 -0.0625l0 -1.703125q-0.109375 -0.0625 -0.359375 -0.09375q-0.234375 -0.046875 -0.59375 -0.046875q-0.234375 0 -0.5 0.046875q-0.25 0.03125 -0.46875 0.140625q-0.203125 0.09375 -0.359375 0.28125q-0.140625 0.171875 -0.140625 0.46875q0 0.546875 0.359375 0.765625q0.359375 0.21875 0.953125 0.21875zm-0.078125 -5.125q0.609375 0 1.03125 0.15625q0.421875 0.15625 0.671875 0.453125q0.265625 0.28125 0.375 0.6875q0.109375 0.40625 0.109375 0.890625l0 3.578125q-0.125 0.015625 -0.359375 0.0625q-0.234375 0.03125 -0.53125 0.0625q-0.296875 0.03125 -0.65625 0.0625q-0.34375 0.03125 -0.6875 0.03125q-0.46875 0 -0.890625 -0.109375q-0.40625 -0.09375 -0.703125 -0.296875q-0.296875 -0.21875 -0.46875 -0.5625q-0.15625 -0.359375 -0.15625 -0.859375q0 -0.46875 0.1875 -0.8125q0.203125 -0.34375 0.53125 -0.546875q0.328125 -0.21875 0.765625 -0.3125q0.4375 -0.09375 0.921875 -0.09375q0.15625 0 0.3125 0.015625q0.171875 0.015625 0.3125 0.046875q0.15625 0.015625 0.265625 0.046875q0.125 0.015625 0.15625 0.03125l0 -0.296875q0 -0.25 -0.0625 -0.484375q-0.046875 -0.25 -0.1875 -0.4375q-0.140625 -0.203125 -0.390625 -0.3125q-0.25 -0.125 -0.640625 -0.125q-0.5 0 -0.890625 0.078125q-0.375 0.0625 -0.5625 0.140625l-0.125 -0.84375q0.203125 -0.09375 0.65625 -0.171875q0.46875 -0.078125 1.015625 -0.078125zm6.187622 5.984375q-0.6875 0 -1.21875 -0.21875q-0.515625 -0.21875 -0.875 -0.609375q-0.359375 -0.390625 -0.53125 -0.9375q-0.171875 -0.546875 -0.171875 -1.203125q0 -0.671875 0.1875 -1.21875q0.203125 -0.546875 0.546875 -0.9375q0.359375 -0.40625 0.859375 -0.625q0.515625 -0.234375 1.140625 -0.234375q0.390625 0 0.765625 0.0625q0.390625 0.0625 0.75 0.203125l-0.234375 0.875q-0.234375 -0.109375 -0.546875 -0.171875q-0.296875 -0.078125 -0.625 -0.078125q-0.859375 0 -1.328125 0.546875q-0.453125 0.53125 -0.453125 1.578125q0 0.453125 0.109375 0.84375q0.109375 0.390625 0.328125 0.671875q0.21875 0.265625 0.5625 0.421875q0.359375 0.140625 0.875 0.140625q0.40625 0 0.734375 -0.078125q0.328125 -0.078125 0.515625 -0.171875l0.140625 0.859375q-0.078125 0.0625 -0.25 0.109375q-0.15625 0.046875 -0.375 0.078125q-0.203125 0.046875 -0.4375 0.0625q-0.234375 0.03125 -0.46875 0.03125zm3.4395752 -5.84375l2.15625 0l0 0.859375l-2.15625 0l0 2.640625q0 0.421875 0.0625 0.703125q0.0625 0.28125 0.1875 0.453125q0.140625 0.15625 0.328125 0.21875q0.203125 0.0625 0.46875 0.0625q0.46875 0 0.75 -0.09375q0.28125 -0.109375 0.390625 -0.15625l0.1875 0.84375q-0.15625 0.078125 -0.546875 0.1875q-0.375 0.125 -0.859375 0.125q-0.59375 0 -0.96875 -0.140625q-0.375 -0.15625 -0.609375 -0.453125q-0.234375 -0.296875 -0.328125 -0.734375q-0.09375 -0.4375 -0.09375 -1.015625l0 -5.09375l1.03125 -0.171875l0 1.765625z" fill-rule="nonzero"></path><path fill="#000000" fill-opacity="0.0" d="m73.979004 228.27559l88.944885 0l0 22.582672l-88.944885 0z" fill-rule="evenodd"></path><path fill="#ffffff" d="m89.15088 247.5156q-0.25 -0.40625 -0.5625 -0.90625q-0.3125 -0.515625 -0.671875 -1.0625q-0.359375 -0.546875 -0.75 -1.09375q-0.390625 -0.5625 -0.78125 -1.078125q-0.375 -0.53125 -0.75 -0.984375q-0.359375 -0.46875 -0.671875 -0.828125l0 5.953125l-1.03125 0l0 -7.625l0.84375 0q0.515625 0.546875 1.09375 1.28125q0.59375 0.734375 1.171875 1.515625q0.578125 0.765625 1.09375 1.515625q0.515625 0.75 0.859375 1.328125l0 -5.640625l1.046875 0l0 7.625l-0.890625 0zm7.5078278 -2.859375q0 0.6875 -0.203125 1.234375q-0.1875 0.546875 -0.546875 0.953125q-0.359375 0.390625 -0.859375 0.609375q-0.484375 0.203125 -1.0625 0.203125q-0.59375 0 -1.09375 -0.203125q-0.484375 -0.21875 -0.84375 -0.609375q-0.359375 -0.40625 -0.5625 -0.953125q-0.1875 -0.546875 -0.1875 -1.234375q0 -0.671875 0.1875 -1.21875q0.203125 -0.5625 0.5625 -0.953125q0.359375 -0.40625 0.84375 -0.609375q0.5 -0.21875 1.09375 -0.21875q0.578125 0 1.0625 0.21875q0.5 0.203125 0.859375 0.609375q0.359375 0.390625 0.546875 0.953125q0.203125 0.546875 0.203125 1.21875zm-1.0625 0q0 -0.96875 -0.4375 -1.53125q-0.421875 -0.578125 -1.171875 -0.578125q-0.75 0 -1.1875 0.578125q-0.4375 0.5625 -0.4375 1.53125q0 0.96875 0.4375 1.53125q0.4375 0.5625 1.1875 0.5625q0.75 0 1.171875 -0.5625q0.4375 -0.5625 0.4375 -1.53125zm6.0059967 -1.65625q-0.1875 -0.140625 -0.546875 -0.28125q-0.34375 -0.15625 -0.765625 -0.15625q-0.4375 0 -0.75 0.171875q-0.3125 0.15625 -0.515625 0.4375q-0.203125 0.28125 -0.296875 0.671875q-0.078125 0.375 -0.078125 0.8125q0 1.0 0.5 1.546875q0.5 0.546875 1.3125 0.546875q0.421875 0 0.703125 -0.03125q0.28125 -0.046875 0.4375 -0.09375l0 -3.625zm0 -3.84375l1.015625 -0.171875l0 8.359375q-0.34375 0.109375 -0.90625 0.203125q-0.546875 0.09375 -1.25 0.09375q-0.671875 0 -1.203125 -0.203125q-0.515625 -0.203125 -0.890625 -0.59375q-0.375 -0.390625 -0.578125 -0.9375q-0.203125 -0.5625 -0.203125 -1.25q0 -0.65625 0.171875 -1.203125q0.171875 -0.5625 0.5 -0.953125q0.328125 -0.390625 0.796875 -0.609375q0.484375 -0.234375 1.109375 -0.234375q0.484375 0 0.859375 0.140625q0.390625 0.125 0.578125 0.25l0 -2.890625zm2.260971 5.515625q0 -0.765625 0.21875 -1.328125q0.21875 -0.5625 0.578125 -0.9375q0.375 -0.375 0.84375 -0.5625q0.46875 -0.1875 0.96875 -0.1875q1.15625 0 1.765625 0.71875q0.625 0.71875 0.625 2.1875q0 0.078125 0 0.1875q0 0.09375 -0.015625 0.1875l-3.921875 0q0.0625 0.890625 0.515625 1.359375q0.453125 0.453125 1.40625 0.453125q0.546875 0 0.90625 -0.09375q0.375 -0.09375 0.5625 -0.1875l0.140625 0.859375q-0.1875 0.09375 -0.65625 0.203125q-0.46875 0.109375 -1.0625 0.109375q-0.75 0 -1.296875 -0.21875q-0.53125 -0.21875 -0.890625 -0.609375q-0.34375 -0.40625 -0.515625 -0.953125q-0.171875 -0.546875 -0.171875 -1.1875zm3.921875 -0.5625q0.015625 -0.703125 -0.34375 -1.140625q-0.359375 -0.453125 -0.984375 -0.453125q-0.34375 0 -0.625 0.140625q-0.265625 0.140625 -0.453125 0.359375q-0.1875 0.21875 -0.296875 0.515625q-0.09375 0.28125 -0.125 0.578125l2.828125 0zm6.081909 0.953125q0 0.546875 -0.125 1.03125q-0.109375 0.46875 -0.40625 0.828125q-0.28125 0.359375 -0.78125 0.5625q-0.484375 0.203125 -1.21875 0.203125q-0.375 0 -0.6875 -0.0625q-0.3125 -0.0625 -0.5625 -0.15625q-0.25 -0.09375 -0.4375 -0.203125q-0.1875 -0.109375 -0.296875 -0.203125l0.40625 -0.84375q0.234375 0.15625 0.59375 0.34375q0.375 0.1875 0.9375 0.1875q0.78125 0 1.140625 -0.40625q0.375 -0.40625 0.375 -1.375l0 -5.078125l1.0625 0l0 5.171875zm3.437561 1.6875q1.671875 0 1.671875 -1.140625q0 -0.34375 -0.15625 -0.59375q-0.140625 -0.25 -0.390625 -0.421875q-0.25 -0.1875 -0.578125 -0.3125q-0.328125 -0.140625 -0.6875 -0.28125q-0.421875 -0.140625 -0.796875 -0.3125q-0.375 -0.1875 -0.65625 -0.4375q-0.265625 -0.25 -0.4375 -0.578125q-0.15625 -0.34375 -0.15625 -0.828125q0 -1.0 0.6875 -1.5625q0.6875 -0.5625 1.890625 -0.5625q0.6875 0 1.25 0.15625q0.5625 0.140625 0.828125 0.3125l-0.34375 0.875q-0.21875 -0.140625 -0.6875 -0.28125q-0.453125 -0.140625 -1.046875 -0.140625q-0.3125 0 -0.578125 0.0625q-0.265625 0.0625 -0.46875 0.203125q-0.1875 0.125 -0.3125 0.328125q-0.109375 0.203125 -0.109375 0.484375q0 0.3125 0.109375 0.515625q0.125 0.203125 0.34375 0.375q0.234375 0.15625 0.515625 0.296875q0.296875 0.125 0.640625 0.25q0.5 0.203125 0.90625 0.40625q0.421875 0.1875 0.71875 0.46875q0.3125 0.265625 0.46875 0.65625q0.171875 0.375 0.171875 0.921875q0 1.0 -0.734375 1.546875q-0.734375 0.53125 -2.0625 0.53125q-0.453125 0 -0.84375 -0.0625q-0.375 -0.0625 -0.671875 -0.140625q-0.296875 -0.09375 -0.515625 -0.1875q-0.203125 -0.09375 -0.328125 -0.15625l0.328125 -0.875q0.25 0.140625 0.765625 0.3125q0.515625 0.171875 1.265625 0.171875z" fill-rule="nonzero"></path><path fill="#000000" fill-opacity="0.0" d="m73.979004 355.8504l88.944885 0l0 22.582672l-88.944885 0z" fill-rule="evenodd"></path><path fill="#ffffff" d="m89.15088 375.0904q-0.25 -0.40625 -0.5625 -0.90625q-0.3125 -0.515625 -0.671875 -1.0625q-0.359375 -0.546875 -0.75 -1.09375q-0.390625 -0.5625 -0.78125 -1.078125q-0.375 -0.53125 -0.75 -0.984375q-0.359375 -0.46875 -0.671875 -0.828125l0 5.953125l-1.03125 0l0 -7.625l0.84375 0q0.515625 0.546875 1.09375 1.28125q0.59375 0.734375 1.171875 1.515625q0.578125 0.765625 1.09375 1.515625q0.515625 0.75 0.859375 1.328125l0 -5.640625l1.046875 0l0 7.625l-0.890625 0zm7.5078278 -2.859375q0 0.6875 -0.203125 1.234375q-0.1875 0.546875 -0.546875 0.953125q-0.359375 0.390625 -0.859375 0.609375q-0.484375 0.203125 -1.0625 0.203125q-0.59375 0 -1.09375 -0.203125q-0.484375 -0.21875 -0.84375 -0.609375q-0.359375 -0.40625 -0.5625 -0.953125q-0.1875 -0.546875 -0.1875 -1.234375q0 -0.671875 0.1875 -1.21875q0.203125 -0.5625 0.5625 -0.953125q0.359375 -0.40625 0.84375 -0.609375q0.5 -0.21875 1.09375 -0.21875q0.578125 0 1.0625 0.21875q0.5 0.203125 0.859375 0.609375q0.359375 0.390625 0.546875 0.953125q0.203125 0.546875 0.203125 1.21875zm-1.0625 0q0 -0.96875 -0.4375 -1.53125q-0.421875 -0.578125 -1.171875 -0.578125q-0.75 0 -1.1875 0.578125q-0.4375 0.5625 -0.4375 1.53125q0 0.96875 0.4375 1.53125q0.4375 0.5625 1.1875 0.5625q0.75 0 1.171875 -0.5625q0.4375 -0.5625 0.4375 -1.53125zm6.0059967 -1.65625q-0.1875 -0.140625 -0.546875 -0.28125q-0.34375 -0.15625 -0.765625 -0.15625q-0.4375 0 -0.75 0.171875q-0.3125 0.15625 -0.515625 0.4375q-0.203125 0.28125 -0.296875 0.671875q-0.078125 0.375 -0.078125 0.8125q0 1.0 0.5 1.546875q0.5 0.546875 1.3125 0.546875q0.421875 0 0.703125 -0.03125q0.28125 -0.046875 0.4375 -0.09375l0 -3.625zm0 -3.84375l1.015625 -0.171875l0 8.359375q-0.34375 0.109375 -0.90625 0.203125q-0.546875 0.09375 -1.25 0.09375q-0.671875 0 -1.203125 -0.203125q-0.515625 -0.203125 -0.890625 -0.59375q-0.375 -0.390625 -0.578125 -0.9375q-0.203125 -0.5625 -0.203125 -1.25q0 -0.65625 0.171875 -1.203125q0.171875 -0.5625 0.5 -0.953125q0.328125 -0.390625 0.796875 -0.609375q0.484375 -0.234375 1.109375 -0.234375q0.484375 0 0.859375 0.140625q0.390625 0.125 0.578125 0.25l0 -2.890625zm2.260971 5.515625q0 -0.765625 0.21875 -1.328125q0.21875 -0.5625 0.578125 -0.9375q0.375 -0.375 0.84375 -0.5625q0.46875 -0.1875 0.96875 -0.1875q1.15625 0 1.765625 0.71875q0.625 0.71875 0.625 2.1875q0 0.078125 0 0.1875q0 0.09375 -0.015625 0.1875l-3.921875 0q0.0625 0.890625 0.515625 1.359375q0.453125 0.453125 1.40625 0.453125q0.546875 0 0.90625 -0.09375q0.375 -0.09375 0.5625 -0.1875l0.140625 0.859375q-0.1875 0.09375 -0.65625 0.203125q-0.46875 0.109375 -1.0625 0.109375q-0.75 0 -1.296875 -0.21875q-0.53125 -0.21875 -0.890625 -0.609375q-0.34375 -0.40625 -0.515625 -0.953125q-0.171875 -0.546875 -0.171875 -1.1875zm3.921875 -0.5625q0.015625 -0.703125 -0.34375 -1.140625q-0.359375 -0.453125 -0.984375 -0.453125q-0.34375 0 -0.625 0.140625q-0.265625 0.140625 -0.453125 0.359375q-0.1875 0.21875 -0.296875 0.515625q-0.09375 0.28125 -0.125 0.578125l2.828125 0zm6.081909 0.953125q0 0.546875 -0.125 1.03125q-0.109375 0.46875 -0.40625 0.828125q-0.28125 0.359375 -0.78125 0.5625q-0.484375 0.203125 -1.21875 0.203125q-0.375 0 -0.6875 -0.0625q-0.3125 -0.0625 -0.5625 -0.15625q-0.25 -0.09375 -0.4375 -0.203125q-0.1875 -0.109375 -0.296875 -0.203125l0.40625 -0.84375q0.234375 0.15625 0.59375 0.34375q0.375 0.1875 0.9375 0.1875q0.78125 0 1.140625 -0.40625q0.375 -0.40625 0.375 -1.375l0 -5.078125l1.0625 0l0 5.171875zm3.437561 1.6875q1.671875 0 1.671875 -1.140625q0 -0.34375 -0.15625 -0.59375q-0.140625 -0.25 -0.390625 -0.421875q-0.25 -0.1875 -0.578125 -0.3125q-0.328125 -0.140625 -0.6875 -0.28125q-0.421875 -0.140625 -0.796875 -0.3125q-0.375 -0.1875 -0.65625 -0.4375q-0.265625 -0.25 -0.4375 -0.578125q-0.15625 -0.34375 -0.15625 -0.828125q0 -1.0 0.6875 -1.5625q0.6875 -0.5625 1.890625 -0.5625q0.6875 0 1.25 0.15625q0.5625 0.140625 0.828125 0.3125l-0.34375 0.875q-0.21875 -0.140625 -0.6875 -0.28125q-0.453125 -0.140625 -1.046875 -0.140625q-0.3125 0 -0.578125 0.0625q-0.265625 0.0625 -0.46875 0.203125q-0.1875 0.125 -0.3125 0.328125q-0.109375 0.203125 -0.109375 0.484375q0 0.3125 0.109375 0.515625q0.125 0.203125 0.34375 0.375q0.234375 0.15625 0.515625 0.296875q0.296875 0.125 0.640625 0.25q0.5 0.203125 0.90625 0.40625q0.421875 0.1875 0.71875 0.46875q0.3125 0.265625 0.46875 0.65625q0.171875 0.375 0.171875 0.921875q0 1.0 -0.734375 1.546875q-0.734375 0.53125 -2.0625 0.53125q-0.453125 0 -0.84375 -0.0625q-0.375 -0.0625 -0.671875 -0.140625q-0.296875 -0.09375 -0.515625 -0.1875q-0.203125 -0.09375 -0.328125 -0.15625l0.328125 -0.875q0.25 0.140625 0.765625 0.3125q0.515625 0.171875 1.265625 0.171875z" fill-rule="nonzero"></path><path fill="#000000" fill-opacity="0.0" d="m135.6798 110.18372l0 85.54331" fill-rule="evenodd"></path><path stroke="#ffffff" stroke-width="2.0" stroke-linejoin="round" stroke-linecap="butt" d="m135.6798 110.18372l0 73.54331" fill-rule="evenodd"></path><path fill="#ffffff" stroke="#ffffff" stroke-width="2.0" stroke-linecap="butt" d="m132.37633 183.72704l3.3034668 9.076187l3.3034668 -9.076187z" fill-rule="evenodd"></path><path fill="#000000" fill-opacity="0.0" d="m135.6798 250.85826l0 72.50395" fill-rule="evenodd"></path><path stroke="#fbd800" stroke-width="2.0" stroke-linejoin="round" stroke-linecap="butt" d="m135.6798 250.85826l0 60.503952" fill-rule="evenodd"></path><path fill="#fbd800" stroke="#fbd800" stroke-width="2.0" stroke-linecap="butt" d="m132.37633 311.3622l3.3034668 9.076172l3.3034668 -9.076172z" fill-rule="evenodd"></path><path fill="#000000" fill-opacity="0.0" d="m297.42783 110.18372l0 213.16537" fill-rule="evenodd"></path><path stroke="#fbd800" stroke-width="2.0" stroke-linejoin="round" stroke-linecap="butt" d="m297.42783 110.18372l0 201.16537" fill-rule="evenodd"></path><path fill="#fbd800" stroke="#fbd800" stroke-width="2.0" stroke-linecap="butt" d="m294.12436 311.3491l3.3034668 9.076172l3.3034668 -9.076172z" fill-rule="evenodd"></path><path fill="#000000" fill-opacity="0.0" d="m293.31497 189.20735l88.944885 0l0 22.582672l-88.944885 0z" fill-rule="evenodd"></path><path fill="#ffffff" d="m306.92435 205.99422q0 0.546875 -0.125 1.03125q-0.109375 0.46875 -0.40625 0.828125q-0.28125 0.359375 -0.78125 0.5625q-0.484375 0.203125 -1.21875 0.203125q-0.375 0 -0.6875 -0.0625q-0.3125 -0.0625 -0.5625 -0.15625q-0.25 -0.09375 -0.4375 -0.203125q-0.1875 -0.109375 -0.296875 -0.203125l0.40625 -0.84375q0.234375 0.15625 0.59375 0.34375q0.375 0.1875 0.9375 0.1875q0.78125 0 1.140625 -0.40625q0.375 -0.40625 0.375 -1.375l0 -5.078125l1.0625 0l0 5.171875zm5.828186 -2.71875q-0.453125 1.46875 -0.9375 2.734375q-0.46875 1.25 -0.9375 2.4375l-1.0625 0q-0.59375 -1.6875 -1.046875 -3.546875q-0.4375 -1.875 -0.8125 -4.078125l1.125 0q0.140625 0.859375 0.296875 1.71875q0.171875 0.859375 0.34375 1.671875q0.1875 0.796875 0.359375 1.546875q0.1875 0.734375 0.375 1.359375q0.4375 -1.15625 0.921875 -2.53125q0.5 -1.390625 0.921875 -2.859375l0.9375 0q0.421875 1.46875 0.921875 2.859375q0.515625 1.375 0.953125 2.53125q0.171875 -0.625 0.34375 -1.359375q0.1875 -0.734375 0.359375 -1.53125q0.171875 -0.8125 0.328125 -1.671875q0.171875 -0.875 0.328125 -1.734375l1.078125 0q-0.390625 2.203125 -0.84375 4.078125q-0.4375 1.859375 -1.015625 3.546875l-1.0625 0q-0.484375 -1.1875 -0.953125 -2.4375q-0.453125 -1.265625 -0.921875 -2.734375zm10.821625 -2.453125l0 0.921875l-2.390625 0l0 6.703125l-1.0625 0l0 -6.703125l-2.40625 0l0 -0.921875l5.859375 0z" fill-rule="nonzero"></path><path fill="#000000" fill-opacity="0.0" d="m133.40683 266.37927l88.94487 0l0 22.582672l-88.94487 0z" fill-rule="evenodd"></path><path fill="#ffffff" d="m147.0162 283.16614q0 0.546875 -0.125 1.03125q-0.109375 0.46875 -0.40625 0.828125q-0.28125 0.359375 -0.78125 0.5625q-0.484375 0.203125 -1.21875 0.203125q-0.375 0 -0.6875 -0.0625q-0.3125 -0.0625 -0.5625 -0.15625q-0.25 -0.09375 -0.4375 -0.203125q-0.1875 -0.109375 -0.296875 -0.203125l0.40625 -0.84375q0.234375 0.15625 0.59375 0.34375q0.375 0.1875 0.9375 0.1875q0.78125 0 1.140625 -0.40625q0.375 -0.40625 0.375 -1.375l0 -5.078125l1.0625 0l0 5.171875zm5.828186 -2.71875q-0.453125 1.46875 -0.9375 2.734375q-0.46875 1.25 -0.9375 2.4375l-1.0625 0q-0.59375 -1.6875 -1.046875 -3.546875q-0.4375 -1.875 -0.8125 -4.078125l1.125 0q0.140625 0.859375 0.296875 1.71875q0.171875 0.859375 0.34375 1.671875q0.1875 0.796875 0.359375 1.546875q0.1875 0.734375 0.375 1.359375q0.4375 -1.15625 0.921875 -2.53125q0.5 -1.390625 0.921875 -2.859375l0.9375 0q0.421875 1.46875 0.921875 2.859375q0.515625 1.375 0.953125 2.53125q0.171875 -0.625 0.34375 -1.359375q0.1875 -0.734375 0.359375 -1.53125q0.171875 -0.8125 0.328125 -1.671875q0.171875 -0.875 0.328125 -1.734375l1.078125 0q-0.390625 2.203125 -0.84375 4.078125q-0.4375 1.859375 -1.015625 3.546875l-1.0625 0q-0.484375 -1.1875 -0.953125 -2.4375q-0.453125 -1.265625 -0.921875 -2.734375zm10.821625 -2.453125l0 0.921875l-2.390625 0l0 6.703125l-1.0625 0l0 -6.703125l-2.40625 0l0 -0.921875l5.859375 0z" fill-rule="nonzero"></path><path fill="#000000" fill-opacity="0.0" d="m129.64043 133.67192l107.401566 0l0 22.582672l-107.401566 0z" fill-rule="evenodd"></path><path fill="#ffffff" d="m142.35918 146.58629q-0.328125 1.078125 -0.671875 2.0q-0.34375 0.90625 -0.6875 1.765625l-0.78125 0q-0.421875 -1.21875 -0.75 -2.578125q-0.328125 -1.359375 -0.609375 -2.96875l0.828125 0q0.109375 0.625 0.21875 1.25q0.125 0.625 0.25 1.21875q0.125 0.578125 0.25 1.125q0.140625 0.53125 0.28125 0.984375q0.3125 -0.84375 0.671875 -1.84375q0.359375 -1.0 0.671875 -2.078125l0.671875 0q0.3125 1.078125 0.671875 2.078125q0.375 1.0 0.703125 1.84375q0.125 -0.453125 0.25 -0.984375q0.125 -0.53125 0.25 -1.109375q0.125 -0.59375 0.234375 -1.21875q0.125 -0.640625 0.25 -1.265625l0.78125 0q-0.28125 1.609375 -0.609375 2.96875q-0.328125 1.359375 -0.734375 2.578125l-0.78125 0q-0.34375 -0.859375 -0.6875 -1.765625q-0.328125 -0.921875 -0.671875 -2.0zm5.103775 3.765625l-0.75 0l0 -4.15625l0.75 0l0 4.15625zm-0.375 -4.90625q-0.203125 0 -0.34375 -0.125q-0.140625 -0.140625 -0.140625 -0.375q0 -0.21875 0.140625 -0.34375q0.140625 -0.140625 0.34375 -0.140625q0.1875 0 0.328125 0.140625q0.140625 0.125 0.140625 0.34375q0 0.234375 -0.140625 0.375q-0.140625 0.125 -0.328125 0.125zm2.3520966 0.75l1.5625 0l0 0.625l-1.5625 0l0 1.921875q0 0.3125 0.046875 0.515625q0.046875 0.203125 0.140625 0.328125q0.09375 0.109375 0.234375 0.15625q0.140625 0.046875 0.34375 0.046875q0.328125 0 0.53125 -0.078125q0.203125 -0.078125 0.28125 -0.109375l0.15625 0.609375q-0.125 0.0625 -0.40625 0.140625q-0.265625 0.09375 -0.625 0.09375q-0.4375 0 -0.71875 -0.109375q-0.265625 -0.109375 -0.4375 -0.328125q-0.15625 -0.21875 -0.234375 -0.53125q-0.0625 -0.3125 -0.0625 -0.734375l0 -3.703125l0.75 -0.140625l0 1.296875zm2.5128326 4.15625l0 -6.078125l0.75 -0.125l0 2.125q0.203125 -0.078125 0.4375 -0.125q0.234375 -0.046875 0.46875 -0.046875q0.5 0 0.828125 0.140625q0.328125 0.140625 0.515625 0.390625q0.203125 0.25 0.28125 0.609375q0.078125 0.34375 0.078125 0.765625l0 2.34375l-0.75 0l0 -2.171875q0 -0.390625 -0.046875 -0.65625q-0.046875 -0.28125 -0.171875 -0.4375q-0.125 -0.171875 -0.328125 -0.25q-0.1875 -0.078125 -0.484375 -0.078125q-0.125 0 -0.25 0.015625q-0.125 0.015625 -0.25 0.046875q-0.109375 0.015625 -0.203125 0.046875q-0.09375 0.015625 -0.125 0.03125l0 3.453125l-0.75 0zm8.239822 -2.078125q0 0.5 -0.140625 0.90625q-0.140625 0.390625 -0.40625 0.6875q-0.265625 0.28125 -0.625 0.4375q-0.359375 0.15625 -0.78125 0.15625q-0.421875 0 -0.78125 -0.15625q-0.359375 -0.15625 -0.625 -0.4375q-0.25 -0.296875 -0.40625 -0.6875q-0.140625 -0.40625 -0.140625 -0.90625q0 -0.484375 0.140625 -0.890625q0.15625 -0.40625 0.40625 -0.6875q0.265625 -0.296875 0.625 -0.453125q0.359375 -0.15625 0.78125 -0.15625q0.421875 0 0.78125 0.15625q0.359375 0.15625 0.625 0.453125q0.265625 0.28125 0.40625 0.6875q0.140625 0.40625 0.140625 0.890625zm-0.78125 0q0 -0.703125 -0.3125 -1.109375q-0.3125 -0.421875 -0.859375 -0.421875q-0.546875 0 -0.859375 0.421875q-0.3125 0.40625 -0.3125 1.109375q0 0.703125 0.3125 1.125q0.3125 0.40625 0.859375 0.40625q0.546875 0 0.859375 -0.40625q0.3125 -0.421875 0.3125 -1.125zm5.141815 1.953125q-0.25 0.0625 -0.671875 0.140625q-0.421875 0.078125 -0.984375 0.078125q-0.46875 0 -0.796875 -0.140625q-0.328125 -0.140625 -0.53125 -0.390625q-0.203125 -0.265625 -0.296875 -0.609375q-0.078125 -0.359375 -0.078125 -0.78125l0 -2.328125l0.75 0l0 2.171875q0 0.765625 0.234375 1.09375q0.234375 0.328125 0.8125 0.328125q0.109375 0 0.234375 0q0.140625 -0.015625 0.25 -0.03125q0.109375 -0.015625 0.203125 -0.015625q0.09375 -0.015625 0.125 -0.03125l0 -3.515625l0.75 0l0 4.03125zm1.9825592 -4.03125l1.5625 0l0 0.625l-1.5625 0l0 1.921875q0 0.3125 0.046875 0.515625q0.046875 0.203125 0.140625 0.328125q0.09375 0.109375 0.234375 0.15625q0.140625 0.046875 0.34375 0.046875q0.328125 0 0.53125 -0.078125q0.203125 -0.078125 0.28125 -0.109375l0.15625 0.609375q-0.125 0.0625 -0.40625 0.140625q-0.265625 0.09375 -0.625 0.09375q-0.4375 0 -0.71875 -0.109375q-0.265625 -0.109375 -0.4375 -0.328125q-0.15625 -0.21875 -0.234375 -0.53125q-0.0625 -0.3125 -0.0625 -0.734375l0 -3.703125l0.75 -0.140625l0 1.296875z" fill-rule="nonzero"></path><path fill="#ffffff" d="m143.03105 160.35191q-0.140625 -0.359375 -0.265625 -0.703125q-0.109375 -0.359375 -0.234375 -0.71875l-2.515625 0l-0.5 1.421875l-0.8125 0q0.328125 -0.875 0.59375 -1.625q0.28125 -0.75 0.546875 -1.421875q0.28125 -0.671875 0.546875 -1.28125q0.265625 -0.609375 0.546875 -1.21875l0.71875 0q0.28125 0.609375 0.546875 1.21875q0.265625 0.609375 0.53125 1.28125q0.265625 0.671875 0.546875 1.421875q0.28125 0.75 0.59375 1.625l-0.84375 0zm-0.734375 -2.0625q-0.25 -0.6875 -0.5 -1.34375q-0.25 -0.65625 -0.53125 -1.25q-0.265625 0.59375 -0.53125 1.25q-0.25 0.65625 -0.5 1.34375l2.0625 0zm5.6007996 1.9375q-0.25 0.0625 -0.671875 0.140625q-0.421875 0.078125 -0.984375 0.078125q-0.46875 0 -0.796875 -0.140625q-0.328125 -0.140625 -0.53125 -0.390625q-0.203125 -0.265625 -0.296875 -0.609375q-0.078125 -0.359375 -0.078125 -0.78125l0 -2.328125l0.75 0l0 2.171875q0 0.765625 0.234375 1.09375q0.234375 0.328125 0.8125 0.328125q0.109375 0 0.234375 0q0.140625 -0.015625 0.25 -0.03125q0.109375 -0.015625 0.203125 -0.015625q0.09375 -0.015625 0.125 -0.03125l0 -3.515625l0.75 0l0 4.03125zm1.9825592 -4.03125l1.5625 0l0 0.625l-1.5625 0l0 1.921875q0 0.3125 0.046875 0.515625q0.046875 0.203125 0.140625 0.328125q0.09375 0.109375 0.234375 0.15625q0.140625 0.046875 0.34375 0.046875q0.328125 0 0.53125 -0.078125q0.203125 -0.078125 0.28125 -0.109375l0.15625 0.609375q-0.125 0.0625 -0.40625 0.140625q-0.265625 0.09375 -0.625 0.09375q-0.4375 0 -0.71875 -0.109375q-0.265625 -0.109375 -0.4375 -0.328125q-0.15625 -0.21875 -0.234375 -0.53125q-0.0625 -0.3125 -0.0625 -0.734375l0 -3.703125l0.75 -0.140625l0 1.296875zm2.5128326 4.15625l0 -6.078125l0.75 -0.125l0 2.125q0.203125 -0.078125 0.4375 -0.125q0.234375 -0.046875 0.46875 -0.046875q0.5 0 0.828125 0.140625q0.328125 0.140625 0.515625 0.390625q0.203125 0.25 0.28125 0.609375q0.078125 0.34375 0.078125 0.765625l0 2.34375l-0.75 0l0 -2.171875q0 -0.390625 -0.046875 -0.65625q-0.046875 -0.28125 -0.171875 -0.4375q-0.125 -0.171875 -0.328125 -0.25q-0.1875 -0.078125 -0.484375 -0.078125q-0.125 0 -0.25 0.015625q-0.125 0.015625 -0.25 0.046875q-0.109375 0.015625 -0.203125 0.046875q-0.09375 0.015625 -0.125 0.03125l0 3.453125l-0.75 0zm8.239822 -2.078125q0 0.5 -0.140625 0.90625q-0.140625 0.390625 -0.40625 0.6875q-0.265625 0.28125 -0.625 0.4375q-0.359375 0.15625 -0.78125 0.15625q-0.421875 0 -0.78125 -0.15625q-0.359375 -0.15625 -0.625 -0.4375q-0.25 -0.296875 -0.40625 -0.6875q-0.140625 -0.40625 -0.140625 -0.90625q0 -0.484375 0.140625 -0.890625q0.15625 -0.40625 0.40625 -0.6875q0.265625 -0.296875 0.625 -0.453125q0.359375 -0.15625 0.78125 -0.15625q0.421875 0 0.78125 0.15625q0.359375 0.15625 0.625 0.453125q0.265625 0.28125 0.40625 0.6875q0.140625 0.40625 0.140625 0.890625zm-0.78125 0q0 -0.703125 -0.3125 -1.109375q-0.3125 -0.421875 -0.859375 -0.421875q-0.546875 0 -0.859375 0.421875q-0.3125 0.40625 -0.3125 1.109375q0 0.703125 0.3125 1.125q0.3125 0.40625 0.859375 0.40625q0.546875 0 0.859375 -0.40625q0.3125 -0.421875 0.3125 -1.125zm3.3605652 -2.171875q0.09375 0 0.21875 0.015625q0.125 0.015625 0.25 0.03125q0.125 0.015625 0.21875 0.046875q0.09375 0.015625 0.15625 0.03125l-0.140625 0.640625q-0.078125 -0.03125 -0.28125 -0.0625q-0.203125 -0.046875 -0.53125 -0.046875q-0.203125 0 -0.40625 0.046875q-0.203125 0.03125 -0.265625 0.046875l0 3.5l-0.75 0l0 -3.984375q0.265625 -0.09375 0.65625 -0.171875q0.390625 -0.09375 0.875 -0.09375zm2.306717 4.25l-0.75 0l0 -4.15625l0.75 0l0 4.15625zm-0.375 -4.90625q-0.203125 0 -0.34375 -0.125q-0.140625 -0.140625 -0.140625 -0.375q0 -0.21875 0.140625 -0.34375q0.140625 -0.140625 0.34375 -0.140625q0.1875 0 0.328125 0.140625q0.140625 0.125 0.140625 0.34375q0 0.234375 -0.140625 0.375q-0.140625 0.125 -0.328125 0.125zm4.4145966 1.3125q-0.171875 0.171875 -0.453125 0.515625q-0.265625 0.328125 -0.59375 0.75q-0.3125 0.40625 -0.625 0.859375q-0.3125 0.4375 -0.5625 0.84375l2.296875 0l0 0.625l-3.1875 0l0 -0.5q0.203125 -0.34375 0.484375 -0.765625q0.28125 -0.4375 0.578125 -0.84375q0.3125 -0.421875 0.59375 -0.796875q0.296875 -0.375 0.515625 -0.625l-2.046875 0l0 -0.625l3.0 0l0 0.5625zm2.4085693 3.0625q0.265625 0 0.46875 -0.015625q0.203125 -0.015625 0.34375 -0.046875l0 -1.234375q-0.078125 -0.046875 -0.265625 -0.0625q-0.171875 -0.03125 -0.4375 -0.03125q-0.171875 0 -0.359375 0.03125q-0.1875 0.015625 -0.34375 0.09375q-0.15625 0.0625 -0.265625 0.203125q-0.09375 0.125 -0.09375 0.34375q0 0.40625 0.25 0.5625q0.265625 0.15625 0.703125 0.15625zm-0.0625 -3.734375q0.453125 0 0.75 0.125q0.3125 0.109375 0.5 0.328125q0.1875 0.203125 0.265625 0.5q0.078125 0.28125 0.078125 0.640625l0 2.59375q-0.09375 0.015625 -0.265625 0.046875q-0.171875 0.03125 -0.390625 0.046875q-0.203125 0.03125 -0.46875 0.046875q-0.25 0.03125 -0.5 0.03125q-0.34375 0 -0.640625 -0.078125q-0.296875 -0.078125 -0.515625 -0.234375q-0.21875 -0.15625 -0.34375 -0.40625q-0.109375 -0.25 -0.109375 -0.609375q0 -0.34375 0.140625 -0.59375q0.140625 -0.25 0.375 -0.40625q0.25 -0.15625 0.5625 -0.21875q0.328125 -0.078125 0.671875 -0.078125q0.109375 0 0.234375 0.015625q0.125 0.015625 0.21875 0.03125q0.109375 0.015625 0.1875 0.03125q0.09375 0.015625 0.125 0.03125l0 -0.203125q0 -0.1875 -0.046875 -0.359375q-0.03125 -0.1875 -0.140625 -0.328125q-0.109375 -0.140625 -0.296875 -0.21875q-0.171875 -0.09375 -0.453125 -0.09375q-0.375 0 -0.65625 0.0625q-0.265625 0.046875 -0.40625 0.09375l-0.078125 -0.609375q0.140625 -0.0625 0.46875 -0.125q0.34375 -0.0625 0.734375 -0.0625zm3.535324 0.109375l1.5625 0l0 0.625l-1.5625 0l0 1.921875q0 0.3125 0.046875 0.515625q0.046875 0.203125 0.140625 0.328125q0.09375 0.109375 0.234375 0.15625q0.140625 0.046875 0.34375 0.046875q0.328125 0 0.53125 -0.078125q0.203125 -0.078125 0.28125 -0.109375l0.15625 0.609375q-0.125 0.0625 -0.40625 0.140625q-0.265625 0.09375 -0.625 0.09375q-0.4375 0 -0.71875 -0.109375q-0.265625 -0.109375 -0.4375 -0.328125q-0.15625 -0.21875 -0.234375 -0.53125q-0.0625 -0.3125 -0.0625 -0.734375l0 -3.703125l0.75 -0.140625l0 1.296875zm3.2628326 4.15625l-0.75 0l0 -4.15625l0.75 0l0 4.15625zm-0.375 -4.90625q-0.203125 0 -0.34375 -0.125q-0.140625 -0.140625 -0.140625 -0.375q0 -0.21875 0.140625 -0.34375q0.140625 -0.140625 0.34375 -0.140625q0.1875 0 0.328125 0.140625q0.140625 0.125 0.140625 0.34375q0 0.234375 -0.140625 0.375q-0.140625 0.125 -0.328125 0.125zm5.3208466 2.828125q0 0.5 -0.140625 0.90625q-0.140625 0.390625 -0.40625 0.6875q-0.265625 0.28125 -0.625 0.4375q-0.359375 0.15625 -0.78125 0.15625q-0.421875 0 -0.78125 -0.15625q-0.359375 -0.15625 -0.625 -0.4375q-0.25 -0.296875 -0.40625 -0.6875q-0.140625 -0.40625 -0.140625 -0.90625q0 -0.484375 0.140625 -0.890625q0.15625 -0.40625 0.40625 -0.6875q0.265625 -0.296875 0.625 -0.453125q0.359375 -0.15625 0.78125 -0.15625q0.421875 0 0.78125 0.15625q0.359375 0.15625 0.625 0.453125q0.265625 0.28125 0.40625 0.6875q0.140625 0.40625 0.140625 0.890625zm-0.78125 0q0 -0.703125 -0.3125 -1.109375q-0.3125 -0.421875 -0.859375 -0.421875q-0.546875 0 -0.859375 0.421875q-0.3125 0.40625 -0.3125 1.109375q0 0.703125 0.3125 1.125q0.3125 0.40625 0.859375 0.40625q0.546875 0 0.859375 -0.40625q0.3125 -0.421875 0.3125 -1.125zm1.8293152 -1.96875q0.25 -0.0625 0.671875 -0.125q0.4375 -0.078125 0.984375 -0.078125q0.5 0 0.828125 0.140625q0.328125 0.140625 0.515625 0.390625q0.203125 0.25 0.28125 0.609375q0.078125 0.34375 0.078125 0.765625l0 2.34375l-0.75 0l0 -2.171875q0 -0.390625 -0.046875 -0.65625q-0.046875 -0.28125 -0.171875 -0.4375q-0.125 -0.171875 -0.328125 -0.25q-0.1875 -0.078125 -0.484375 -0.078125q-0.125 0 -0.25 0.015625q-0.125 0 -0.25 0.015625q-0.109375 0.015625 -0.203125 0.03125q-0.09375 0.015625 -0.125 0.015625l0 3.515625l-0.75 0l0 -4.046875z" fill-rule="nonzero"></path><path fill="#000000" fill-opacity="0.0" d="m295.90027 378.43307l0 58.4252" fill-rule="evenodd"></path><path stroke="#fbd800" stroke-width="2.0" stroke-linejoin="round" stroke-linecap="butt" d="m295.90027 378.43307l0 46.4252" fill-rule="evenodd"></path><path fill="#fbd800" stroke="#fbd800" stroke-width="2.0" stroke-linecap="butt" d="m292.5968 424.85828l3.3034668 9.076172l3.3034668 -9.076172z" fill-rule="evenodd"></path><path fill="#3aa9f0" d="m395.72702 22.08924l107.40158 0l0 88.09448l-107.40158 0z" fill-rule="evenodd"></path><path stroke="#ffffff" stroke-width="1.0" stroke-linejoin="round" stroke-linecap="butt" d="m395.72702 22.08924l107.40158 0l0 88.09448l-107.40158 0z" fill-rule="evenodd"></path><path fill="#ffffff" d="m432.4406 73.05648q-0.328125 -0.859375 -0.625 -1.6875q-0.28125 -0.828125 -0.578125 -1.671875l-5.96875 0l-1.1875 3.359375l-1.921875 0q0.75 -2.09375 1.40625 -3.859375q0.671875 -1.78125 1.3125 -3.375q0.640625 -1.59375 1.265625 -3.046875q0.625 -1.453125 1.3125 -2.890625l1.6875 0q0.6875 1.4375 1.3125 2.890625q0.625 1.453125 1.265625 3.046875q0.640625 1.59375 1.296875 3.375q0.671875 1.765625 1.421875 3.859375l-2.0 0zm-1.734375 -4.890625q-0.609375 -1.640625 -1.21875 -3.1875q-0.59375 -1.5625 -1.234375 -2.984375q-0.65625 1.421875 -1.265625 2.984375q-0.59375 1.546875 -1.1875 3.1875l4.90625 0zm11.572235 -2.90625q-0.328125 -0.265625 -0.9375 -0.5q-0.609375 -0.25 -1.328125 -0.25q-0.75 0 -1.296875 0.28125q-0.546875 0.265625 -0.890625 0.75q-0.34375 0.484375 -0.5 1.15625q-0.140625 0.65625 -0.140625 1.421875q0 1.71875 0.84375 2.671875q0.859375 0.9375 2.296875 0.9375q0.71875 0 1.203125 -0.0625q0.484375 -0.078125 0.75 -0.140625l0 -6.265625zm0 -6.640625l1.765625 -0.3125l0 14.46875q-0.609375 0.171875 -1.5625 0.34375q-0.953125 0.171875 -2.1875 0.171875q-1.140625 0 -2.046875 -0.359375q-0.90625 -0.375 -1.5625 -1.03125q-0.640625 -0.671875 -1.0 -1.625q-0.34375 -0.96875 -0.34375 -2.15625q0 -1.140625 0.296875 -2.09375q0.296875 -0.953125 0.859375 -1.625q0.578125 -0.6875 1.390625 -1.0625q0.828125 -0.390625 1.90625 -0.390625q0.84375 0 1.5 0.234375q0.65625 0.21875 0.984375 0.4375l0 -5.0zm4.5979004 4.84375q0.609375 -0.15625 1.609375 -0.328125q1.0 -0.171875 2.3125 -0.171875q0.953125 0 1.59375 0.265625q0.640625 0.25 1.078125 0.75q0.140625 -0.09375 0.421875 -0.265625q0.28125 -0.171875 0.703125 -0.328125q0.421875 -0.171875 0.921875 -0.296875q0.515625 -0.125 1.109375 -0.125q1.140625 0 1.859375 0.34375q0.71875 0.328125 1.125 0.9375q0.421875 0.609375 0.5625 1.453125q0.140625 0.828125 0.140625 1.8125l0 5.546875l-1.765625 0l0 -5.171875q0 -0.875 -0.09375 -1.5q-0.078125 -0.625 -0.3125 -1.03125q-0.234375 -0.421875 -0.65625 -0.625q-0.40625 -0.203125 -1.046875 -0.203125q-0.890625 0 -1.46875 0.234375q-0.578125 0.234375 -0.796875 0.4375q0.15625 0.484375 0.234375 1.078125q0.078125 0.59375 0.078125 1.234375l0 5.546875l-1.765625 0l0 -5.171875q0 -0.875 -0.109375 -1.5q-0.09375 -0.625 -0.328125 -1.03125q-0.234375 -0.421875 -0.640625 -0.625q-0.40625 -0.203125 -1.03125 -0.203125q-0.265625 0 -0.578125 0.015625q-0.296875 0.015625 -0.578125 0.046875q-0.28125 0.03125 -0.515625 0.078125q-0.21875 0.03125 -0.296875 0.046875l0 8.34375l-1.765625 0l0 -9.59375zm17.828674 9.59375l-1.765625 0l0 -9.875l1.765625 0l0 9.875zm-0.890625 -11.671875q-0.46875 0 -0.8125 -0.3125q-0.328125 -0.3125 -0.328125 -0.84375q0 -0.53125 0.328125 -0.84375q0.34375 -0.3125 0.8125 -0.3125q0.484375 0 0.8125 0.3125q0.328125 0.3125 0.328125 0.84375q0 0.53125 -0.328125 0.84375q-0.328125 0.3125 -0.8125 0.3125zm3.8450317 2.078125q0.609375 -0.15625 1.609375 -0.328125q1.015625 -0.171875 2.328125 -0.171875q1.171875 0 1.953125 0.34375q0.78125 0.328125 1.25 0.921875q0.46875 0.59375 0.65625 1.4375q0.1875 0.828125 0.1875 1.84375l0 5.546875l-1.765625 0l0 -5.171875q0 -0.90625 -0.125 -1.546875q-0.125 -0.65625 -0.40625 -1.046875q-0.28125 -0.40625 -0.765625 -0.578125q-0.46875 -0.1875 -1.171875 -0.1875q-0.28125 0 -0.59375 0.015625q-0.296875 0.015625 -0.578125 0.046875q-0.28125 0.03125 -0.5 0.078125q-0.21875 0.03125 -0.3125 0.046875l0 8.34375l-1.765625 0l0 -9.59375z" fill-rule="nonzero"></path><path fill="#000000" fill-opacity="0.0" d="m387.72702 87.60105l88.944885 0l0 22.582672l-88.944885 0z" fill-rule="evenodd"></path><path fill="#ffffff" d="m401.3989 103.65355q0.171875 0.21875 0.4375 0.578125q0.28125 0.359375 0.5625 0.796875q0.296875 0.421875 0.5625 0.90625q0.28125 0.46875 0.484375 0.90625l-1.15625 0q-0.234375 -0.421875 -0.5 -0.84375q-0.25 -0.4375 -0.515625 -0.828125q-0.25 -0.390625 -0.515625 -0.71875q-0.265625 -0.34375 -0.46875 -0.59375q-0.140625 0 -0.296875 0q-0.140625 0 -0.296875 0l-0.953125 0l0 2.984375l-1.0625 0l0 -7.515625q0.4375 -0.109375 1.0 -0.140625q0.5625 -0.046875 1.015625 -0.046875q1.609375 0 2.453125 0.609375q0.84375 0.609375 0.84375 1.796875q0 0.765625 -0.40625 1.3125q-0.40625 0.53125 -1.1875 0.796875zm-1.609375 -3.578125q-0.6875 0 -1.046875 0.03125l0 2.875l0.75 0q0.5625 0 1.0 -0.046875q0.4375 -0.0625 0.734375 -0.21875q0.3125 -0.15625 0.46875 -0.4375q0.171875 -0.28125 0.171875 -0.734375q0 -0.4375 -0.171875 -0.71875q-0.15625 -0.28125 -0.4375 -0.453125q-0.28125 -0.171875 -0.671875 -0.234375q-0.375 -0.0625 -0.796875 -0.0625zm4.2028503 3.921875q0 -0.765625 0.21875 -1.328125q0.21875 -0.5625 0.578125 -0.9375q0.375 -0.375 0.84375 -0.5625q0.46875 -0.1875 0.96875 -0.1875q1.15625 0 1.765625 0.71875q0.625 0.71875 0.625 2.1875q0 0.078125 0 0.1875q0 0.09375 -0.015625 0.1875l-3.921875 0q0.0625 0.890625 0.515625 1.359375q0.453125 0.453125 1.40625 0.453125q0.546875 0 0.90625 -0.09375q0.375 -0.09375 0.5625 -0.1875l0.140625 0.859375q-0.1875 0.09375 -0.65625 0.203125q-0.46875 0.109375 -1.0625 0.109375q-0.75 0 -1.296875 -0.21875q-0.53125 -0.21875 -0.890625 -0.609375q-0.34375 -0.40625 -0.515625 -0.953125q-0.171875 -0.546875 -0.171875 -1.1875zm3.921875 -0.5625q0.015625 -0.703125 -0.34375 -1.140625q-0.359375 -0.453125 -0.984375 -0.453125q-0.34375 0 -0.625 0.140625q-0.265625 0.140625 -0.453125 0.359375q-0.1875 0.21875 -0.296875 0.515625q-0.09375 0.28125 -0.125 0.578125l2.828125 0zm4.285034 2.671875q0.359375 0 0.640625 -0.015625q0.28125 -0.015625 0.46875 -0.0625l0 -1.703125q-0.109375 -0.0625 -0.359375 -0.09375q-0.234375 -0.046875 -0.59375 -0.046875q-0.234375 0 -0.5 0.046875q-0.25 0.03125 -0.46875 0.140625q-0.203125 0.09375 -0.359375 0.28125q-0.140625 0.171875 -0.140625 0.46875q0 0.546875 0.359375 0.765625q0.359375 0.21875 0.953125 0.21875zm-0.078125 -5.125q0.609375 0 1.03125 0.15625q0.421875 0.15625 0.671875 0.453125q0.265625 0.28125 0.375 0.6875q0.109375 0.40625 0.109375 0.890625l0 3.578125q-0.125 0.015625 -0.359375 0.0625q-0.234375 0.03125 -0.53125 0.0625q-0.296875 0.03125 -0.65625 0.0625q-0.34375 0.03125 -0.6875 0.03125q-0.46875 0 -0.890625 -0.109375q-0.40625 -0.09375 -0.703125 -0.296875q-0.296875 -0.21875 -0.46875 -0.5625q-0.15625 -0.359375 -0.15625 -0.859375q0 -0.46875 0.1875 -0.8125q0.203125 -0.34375 0.53125 -0.546875q0.328125 -0.21875 0.765625 -0.3125q0.4375 -0.09375 0.921875 -0.09375q0.15625 0 0.3125 0.015625q0.171875 0.015625 0.3125 0.046875q0.15625 0.015625 0.265625 0.046875q0.125 0.015625 0.15625 0.03125l0 -0.296875q0 -0.25 -0.0625 -0.484375q-0.046875 -0.25 -0.1875 -0.4375q-0.140625 -0.203125 -0.390625 -0.3125q-0.25 -0.125 -0.640625 -0.125q-0.5 0 -0.890625 0.078125q-0.375 0.0625 -0.5625 0.140625l-0.125 -0.84375q0.203125 -0.09375 0.65625 -0.171875q0.46875 -0.078125 1.015625 -0.078125zm6.187622 5.984375q-0.6875 0 -1.21875 -0.21875q-0.515625 -0.21875 -0.875 -0.609375q-0.359375 -0.390625 -0.53125 -0.9375q-0.171875 -0.546875 -0.171875 -1.203125q0 -0.671875 0.1875 -1.21875q0.203125 -0.546875 0.546875 -0.9375q0.359375 -0.40625 0.859375 -0.625q0.515625 -0.234375 1.140625 -0.234375q0.390625 0 0.765625 0.0625q0.390625 0.0625 0.75 0.203125l-0.234375 0.875q-0.234375 -0.109375 -0.546875 -0.171875q-0.296875 -0.078125 -0.625 -0.078125q-0.859375 0 -1.328125 0.546875q-0.453125 0.53125 -0.453125 1.578125q0 0.453125 0.109375 0.84375q0.109375 0.390625 0.328125 0.671875q0.21875 0.265625 0.5625 0.421875q0.359375 0.140625 0.875 0.140625q0.40625 0 0.734375 -0.078125q0.328125 -0.078125 0.515625 -0.171875l0.140625 0.859375q-0.078125 0.0625 -0.25 0.109375q-0.15625 0.046875 -0.375 0.078125q-0.203125 0.046875 -0.4375 0.0625q-0.234375 0.03125 -0.46875 0.03125zm3.4395752 -5.84375l2.15625 0l0 0.859375l-2.15625 0l0 2.640625q0 0.421875 0.0625 0.703125q0.0625 0.28125 0.1875 0.453125q0.140625 0.15625 0.328125 0.21875q0.203125 0.0625 0.46875 0.0625q0.46875 0 0.75 -0.09375q0.28125 -0.109375 0.390625 -0.15625l0.1875 0.84375q-0.15625 0.078125 -0.546875 0.1875q-0.375 0.125 -0.859375 0.125q-0.59375 0 -0.96875 -0.140625q-0.375 -0.15625 -0.609375 -0.453125q-0.234375 -0.296875 -0.328125 -0.734375q-0.09375 -0.4375 -0.09375 -1.015625l0 -5.09375l1.03125 -0.171875l0 1.765625z" fill-rule="nonzero"></path><path fill="#000000" fill-opacity="0.0" d="m449.42783 110.18372l0 213.16537" fill-rule="evenodd"></path><path stroke="#fbd800" stroke-width="2.0" stroke-linejoin="round" stroke-linecap="butt" d="m449.42783 110.18372l0 201.16537" fill-rule="evenodd"></path><path fill="#fbd800" stroke="#fbd800" stroke-width="2.0" stroke-linecap="butt" d="m446.12436 311.3491l3.3034668 9.076172l3.3034668 -9.076172z" fill-rule="evenodd"></path><path fill="#000000" fill-opacity="0.0" d="m445.31497 189.20735l88.944855 0l0 22.582672l-88.944855 0z" fill-rule="evenodd"></path><path fill="#ffffff" d="m458.92435 205.99422q0 0.546875 -0.125 1.03125q-0.109375 0.46875 -0.40625 0.828125q-0.28125 0.359375 -0.78125 0.5625q-0.484375 0.203125 -1.21875 0.203125q-0.375 0 -0.6875 -0.0625q-0.3125 -0.0625 -0.5625 -0.15625q-0.25 -0.09375 -0.4375 -0.203125q-0.1875 -0.109375 -0.296875 -0.203125l0.40625 -0.84375q0.234375 0.15625 0.59375 0.34375q0.375 0.1875 0.9375 0.1875q0.78125 0 1.140625 -0.40625q0.375 -0.40625 0.375 -1.375l0 -5.078125l1.0625 0l0 5.171875zm5.828186 -2.71875q-0.453125 1.46875 -0.9375 2.734375q-0.46875 1.25 -0.9375 2.4375l-1.0625 0q-0.59375 -1.6875 -1.046875 -3.546875q-0.4375 -1.875 -0.8125 -4.078125l1.125 0q0.140625 0.859375 0.296875 1.71875q0.171875 0.859375 0.34375 1.671875q0.1875 0.796875 0.359375 1.546875q0.1875 0.734375 0.375 1.359375q0.4375 -1.15625 0.921875 -2.53125q0.5 -1.390625 0.921875 -2.859375l0.9375 0q0.421875 1.46875 0.921875 2.859375q0.515625 1.375 0.953125 2.53125q0.171875 -0.625 0.34375 -1.359375q0.1875 -0.734375 0.359375 -1.53125q0.171875 -0.8125 0.328125 -1.671875q0.171875 -0.875 0.328125 -1.734375l1.078125 0q-0.390625 2.203125 -0.84375 4.078125q-0.4375 1.859375 -1.015625 3.546875l-1.0625 0q-0.484375 -1.1875 -0.953125 -2.4375q-0.453125 -1.265625 -0.921875 -2.734375zm10.821625 -2.453125l0 0.921875l-2.390625 0l0 6.703125l-1.0625 0l0 -6.703125l-2.40625 0l0 -0.921875l5.859375 0z" fill-rule="nonzero"></path></g></svg>

