<?xml version="1.0" encoding="iso-8859-1"?>
<!-- Generator: Adobe Illustrator 19.1.0, SVG Export Plug-In . SVG Version: 6.00 Build 0)  -->
<svg version="1.1" id="Capa_1" xmlns="http://www.w3.org/2000/svg" xmlns:xlink="http://www.w3.org/1999/xlink" x="0px" y="0px"
	 viewBox="0 0 440.407 440.407" style="enable-background:new 0 0 440.407 440.407;" xml:space="preserve">
<g>
	<g>
		<path style="fill:#231F20;" d="M343.667,440.407H96.74c-26.724,0-48.103-21.379-48.103-48.103v-1.069L70.016,112.24
			c1.069-8.552,7.483-14.965,16.034-14.965h268.306c8.552,0,14.965,6.414,16.034,14.965l21.379,278.996v1.069
			C391.77,419.028,370.391,440.407,343.667,440.407z M80.706,393.373c0,8.552,7.483,16.034,16.034,16.034h246.927
			c8.552,0,16.034-6.414,16.034-16.034l-20.31-262.962H101.016C101.016,130.412,80.706,393.373,80.706,393.373z"/>
		<path style="fill:#231F20;" d="M290.22,128.274c-8.552,0-16.034-7.483-16.034-16.034V85.516c0-29.931-23.517-53.447-53.447-53.447
			s-53.447,23.517-53.447,53.447v26.724c0,8.552-7.483,16.034-16.034,16.034s-16.034-7.483-16.034-16.034V85.516
			C135.222,38.482,173.704,0,220.738,0s85.516,38.482,85.516,85.516v26.724C306.254,120.791,298.771,128.274,290.22,128.274z"/>
		<circle style="fill:#231F20;" cx="150.187" cy="171.032" r="19.241"/>
		<circle style="fill:#231F20;" cx="290.22" cy="171.032" r="19.241"/>
	</g>
</g>
<g>
</g>
<g>
</g>
<g>
</g>
<g>
</g>
<g>
</g>
<g>
</g>
<g>
</g>
<g>
</g>
<g>
</g>
<g>
</g>
<g>
</g>
<g>
</g>
<g>
</g>
<g>
</g>
<g>
</g>
</svg>
