<?xml version="1.0" encoding="iso-8859-1"?>
<!-- Generator: Adobe Illustrator 19.0.0, SVG Export Plug-In . SVG Version: 6.00 Build 0)  -->
<svg version="1.1" id="Layer_1" xmlns="http://www.w3.org/2000/svg" xmlns:xlink="http://www.w3.org/1999/xlink" x="0px" y="0px"
	 viewBox="0 0 512 512" style="enable-background:new 0 0 512 512;" xml:space="preserve">
<g transform="translate(1 1)">
	<path style="fill:#FFFFFF;" d="M475.16,434.2H34.84c-15.36,0-27.307-11.947-27.307-27.307V103.107
		C7.533,87.747,19.48,75.8,34.84,75.8h440.32c15.36,0,27.307,11.947,27.307,27.307v303.787
		C502.467,422.253,490.52,434.2,475.16,434.2L475.16,434.2z"/>
	<path style="fill:#0096E6;" d="M475.16,442.733H34.84C15.213,442.733-1,426.52-1,406.893V103.107
		c0-19.627,16.213-35.84,35.84-35.84h440.32c19.627,0,35.84,16.213,35.84,35.84v303.787C511,426.52,494.787,442.733,475.16,442.733z
		 M34.84,84.333c-10.24,0-18.773,8.533-18.773,18.773v303.787c0,10.24,8.533,18.773,18.773,18.773h440.32
		c10.24,0,18.773-8.533,18.773-18.773V103.107c0-10.24-8.533-18.773-18.773-18.773H34.84z"/>
	<polygon style="fill:#D0E8F9;" points="7.533,118.467 502.467,118.467 502.467,186.733 7.533,186.733 	"/>
	<g>
		<path style="fill:#0096E6;" d="M511,195.267H-1v-85.333h512V195.267z M16.067,178.2h477.867V127H16.067V178.2z"/>
		<path style="fill:#0096E6;" d="M212.333,289.133h-17.067c-5.12,0-8.533-3.413-8.533-8.533c0-5.12,3.413-8.533,8.533-8.533h17.067
			c5.12,0,8.533,3.413,8.533,8.533C220.867,285.72,217.453,289.133,212.333,289.133z M161.133,289.133H152.6
			c-5.12,0-8.533-3.413-8.533-8.533c0-5.12,3.413-8.533,8.533-8.533h8.533c5.12,0,8.533,3.413,8.533,8.533
			C169.667,285.72,166.253,289.133,161.133,289.133z M118.467,289.133H101.4c-5.12,0-8.533-3.413-8.533-8.533
			c0-5.12,3.413-8.533,8.533-8.533h17.067c5.12,0,8.533,3.413,8.533,8.533C127,285.72,123.587,289.133,118.467,289.133z
			 M67.267,289.133h-8.533c-5.12,0-8.533-3.413-8.533-8.533c0-5.12,3.413-8.533,8.533-8.533h8.533c5.12,0,8.533,3.413,8.533,8.533
			C75.8,285.72,72.387,289.133,67.267,289.133z M246.467,246.467h-76.8c-5.12,0-8.533-3.413-8.533-8.533
			c0-5.12,3.413-8.533,8.533-8.533h76.8c5.12,0,8.533,3.413,8.533,8.533C255,243.053,251.587,246.467,246.467,246.467z
			 M135.533,246.467h-76.8c-5.12,0-8.533-3.413-8.533-8.533c0-5.12,3.413-8.533,8.533-8.533h76.8c5.12,0,8.533,3.413,8.533,8.533
			C144.067,243.053,140.653,246.467,135.533,246.467z"/>
		<path style="fill:#0096E6;" d="M212.333,152.6c0,5.12-3.413,8.533-8.533,8.533c-5.12,0-8.533-3.413-8.533-8.533
			c0-5.12,3.413-8.533,8.533-8.533C208.92,144.067,212.333,147.48,212.333,152.6"/>
		<path style="fill:#0096E6;" d="M237.933,127c0,5.12-3.413,8.533-8.533,8.533c-5.12,0-8.533-3.413-8.533-8.533
			s3.413-8.533,8.533-8.533C234.52,118.467,237.933,121.88,237.933,127"/>
		<path style="fill:#0096E6;" d="M237.933,178.2c0,5.12-3.413,8.533-8.533,8.533c-5.12,0-8.533-3.413-8.533-8.533
			c0-5.12,3.413-8.533,8.533-8.533C234.52,169.667,237.933,173.08,237.933,178.2"/>
		<path style="fill:#0096E6;" d="M263.533,152.6c0,5.12-3.413,8.533-8.533,8.533s-8.533-3.413-8.533-8.533
			c0-5.12,3.413-8.533,8.533-8.533S263.533,147.48,263.533,152.6"/>
		<path style="fill:#0096E6;" d="M161.133,152.6c0,5.12-3.413,8.533-8.533,8.533c-5.12,0-8.533-3.413-8.533-8.533
			c0-5.12,3.413-8.533,8.533-8.533C157.72,144.067,161.133,147.48,161.133,152.6"/>
		<path style="fill:#0096E6;" d="M186.733,127c0,5.12-3.413,8.533-8.533,8.533c-5.12,0-8.533-3.413-8.533-8.533
			s3.413-8.533,8.533-8.533C183.32,118.467,186.733,121.88,186.733,127"/>
		<path style="fill:#0096E6;" d="M186.733,178.2c0,5.12-3.413,8.533-8.533,8.533c-5.12,0-8.533-3.413-8.533-8.533
			c0-5.12,3.413-8.533,8.533-8.533C183.32,169.667,186.733,173.08,186.733,178.2"/>
		<path style="fill:#0096E6;" d="M33.133,127c0,5.12-3.413,8.533-8.533,8.533s-8.533-3.413-8.533-8.533s3.413-8.533,8.533-8.533
			S33.133,121.88,33.133,127"/>
		<path style="fill:#0096E6;" d="M33.133,178.2c0,5.12-3.413,8.533-8.533,8.533s-8.533-3.413-8.533-8.533
			c0-5.12,3.413-8.533,8.533-8.533S33.133,173.08,33.133,178.2"/>
		<path style="fill:#0096E6;" d="M58.733,152.6c0,5.12-3.413,8.533-8.533,8.533s-8.533-3.413-8.533-8.533
			c0-5.12,3.413-8.533,8.533-8.533S58.733,147.48,58.733,152.6"/>
		<path style="fill:#0096E6;" d="M109.933,152.6c0,5.12-3.413,8.533-8.533,8.533c-5.12,0-8.533-3.413-8.533-8.533
			c0-5.12,3.413-8.533,8.533-8.533C106.52,144.067,109.933,147.48,109.933,152.6"/>
		<path style="fill:#0096E6;" d="M84.333,127c0,5.12-3.413,8.533-8.533,8.533s-8.533-3.413-8.533-8.533s3.413-8.533,8.533-8.533
			C80.92,118.467,84.333,121.88,84.333,127"/>
		<path style="fill:#0096E6;" d="M135.533,127c0,5.12-3.413,8.533-8.533,8.533s-8.533-3.413-8.533-8.533s3.413-8.533,8.533-8.533
			S135.533,121.88,135.533,127"/>
		<path style="fill:#0096E6;" d="M84.333,178.2c0,5.12-3.413,8.533-8.533,8.533s-8.533-3.413-8.533-8.533
			c0-5.12,3.413-8.533,8.533-8.533C80.92,169.667,84.333,173.08,84.333,178.2"/>
		<path style="fill:#0096E6;" d="M135.533,178.2c0,5.12-3.413,8.533-8.533,8.533s-8.533-3.413-8.533-8.533
			c0-5.12,3.413-8.533,8.533-8.533S135.533,173.08,135.533,178.2"/>
		<path style="fill:#0096E6;" d="M468.333,152.6c0,5.12-3.413,8.533-8.533,8.533s-8.533-3.413-8.533-8.533
			c0-5.12,3.413-8.533,8.533-8.533S468.333,147.48,468.333,152.6"/>
		<path style="fill:#0096E6;" d="M493.933,127c0,5.12-3.413,8.533-8.533,8.533s-8.533-3.413-8.533-8.533s3.413-8.533,8.533-8.533
			S493.933,121.88,493.933,127"/>
		<path style="fill:#0096E6;" d="M493.933,178.2c0,5.12-3.413,8.533-8.533,8.533s-8.533-3.413-8.533-8.533
			c0-5.12,3.413-8.533,8.533-8.533S493.933,173.08,493.933,178.2"/>
		<path style="fill:#0096E6;" d="M417.133,152.6c0,5.12-3.413,8.533-8.533,8.533c-5.12,0-8.533-3.413-8.533-8.533
			c0-5.12,3.413-8.533,8.533-8.533C413.72,144.067,417.133,147.48,417.133,152.6"/>
		<path style="fill:#0096E6;" d="M442.733,127c0,5.12-3.413,8.533-8.533,8.533c-5.12,0-8.533-3.413-8.533-8.533
			s3.413-8.533,8.533-8.533C439.32,118.467,442.733,121.88,442.733,127"/>
		<path style="fill:#0096E6;" d="M442.733,178.2c0,5.12-3.413,8.533-8.533,8.533c-5.12,0-8.533-3.413-8.533-8.533
			c0-5.12,3.413-8.533,8.533-8.533C439.32,169.667,442.733,173.08,442.733,178.2"/>
		<path style="fill:#0096E6;" d="M289.133,127c0,5.12-3.413,8.533-8.533,8.533s-8.533-3.413-8.533-8.533s3.413-8.533,8.533-8.533
			S289.133,121.88,289.133,127"/>
		<path style="fill:#0096E6;" d="M289.133,178.2c0,5.12-3.413,8.533-8.533,8.533s-8.533-3.413-8.533-8.533
			c0-5.12,3.413-8.533,8.533-8.533S289.133,173.08,289.133,178.2"/>
		<path style="fill:#0096E6;" d="M314.733,152.6c0,5.12-3.413,8.533-8.533,8.533s-8.533-3.413-8.533-8.533
			c0-5.12,3.413-8.533,8.533-8.533S314.733,147.48,314.733,152.6"/>
		<path style="fill:#0096E6;" d="M365.933,152.6c0,5.12-3.413,8.533-8.533,8.533s-8.533-3.413-8.533-8.533
			c0-5.12,3.413-8.533,8.533-8.533S365.933,147.48,365.933,152.6"/>
		<path style="fill:#0096E6;" d="M340.333,127c0,5.12-3.413,8.533-8.533,8.533s-8.533-3.413-8.533-8.533s3.413-8.533,8.533-8.533
			S340.333,121.88,340.333,127"/>
		<path style="fill:#0096E6;" d="M391.533,127c0,5.12-3.413,8.533-8.533,8.533c-5.12,0-8.533-3.413-8.533-8.533
			s3.413-8.533,8.533-8.533C388.12,118.467,391.533,121.88,391.533,127"/>
		<path style="fill:#0096E6;" d="M340.333,178.2c0,5.12-3.413,8.533-8.533,8.533s-8.533-3.413-8.533-8.533
			c0-5.12,3.413-8.533,8.533-8.533S340.333,173.08,340.333,178.2"/>
		<path style="fill:#0096E6;" d="M391.533,178.2c0,5.12-3.413,8.533-8.533,8.533c-5.12,0-8.533-3.413-8.533-8.533
			c0-5.12,3.413-8.533,8.533-8.533C388.12,169.667,391.533,173.08,391.533,178.2"/>
	</g>
	<path style="fill:#D0E8F9;" d="M400.067,340.333c0,28.16-23.04,51.2-51.2,51.2c-28.16,0-51.2-23.04-51.2-51.2
		c0-28.16,23.04-51.2,51.2-51.2C377.027,289.133,400.067,312.173,400.067,340.333L400.067,340.333z"/>
	<path style="fill:#0096E6;" d="M348.867,400.067c-33.28,0-59.733-26.453-59.733-59.733s26.453-59.733,59.733-59.733
		s59.733,26.453,59.733,59.733S382.147,400.067,348.867,400.067z M348.867,297.667c-23.893,0-42.667,18.773-42.667,42.667
		c0,23.893,18.773,42.667,42.667,42.667c23.893,0,42.667-18.773,42.667-42.667C391.533,316.44,372.76,297.667,348.867,297.667z"/>
	<path style="fill:#D0E8F9;" d="M459.8,340.333c0,28.16-23.04,51.2-51.2,51.2c-28.16,0-51.2-23.04-51.2-51.2
		c0-28.16,23.04-51.2,51.2-51.2C436.76,289.133,459.8,312.173,459.8,340.333L459.8,340.333z"/>
	<path style="fill:#0096E6;" d="M408.6,400.067c-33.28,0-59.733-26.453-59.733-59.733S375.32,280.6,408.6,280.6
		s59.733,26.453,59.733,59.733S441.88,400.067,408.6,400.067z M408.6,297.667c-23.893,0-42.667,18.773-42.667,42.667
		c0,23.893,18.773,42.667,42.667,42.667c23.893,0,42.667-18.773,42.667-42.667C451.267,316.44,432.493,297.667,408.6,297.667z"/>
</g>
<g>
</g>
<g>
</g>
<g>
</g>
<g>
</g>
<g>
</g>
<g>
</g>
<g>
</g>
<g>
</g>
<g>
</g>
<g>
</g>
<g>
</g>
<g>
</g>
<g>
</g>
<g>
</g>
<g>
</g>
</svg>
