<?xml version="1.0" encoding="iso-8859-1"?>
<!-- Generator: Adobe Illustrator 19.0.0, SVG Export Plug-In . SVG Version: 6.00 Build 0)  -->
<svg version="1.1" id="Layer_1" xmlns="http://www.w3.org/2000/svg" xmlns:xlink="http://www.w3.org/1999/xlink" x="0px" y="0px"
	 viewBox="0 0 512 512" style="enable-background:new 0 0 512 512;" xml:space="preserve">
<g transform="translate(1 1)">
	<path style="fill:#FFFFFF;" d="M203.8,442.733c0,18.773-15.36,34.133-34.133,34.133s-34.133-15.36-34.133-34.133
		c0-18.773,15.36-34.133,34.133-34.133S203.8,423.96,203.8,442.733L203.8,442.733z"/>
	<path style="fill:#0096E6;" d="M169.667,485.4c-23.893,0-42.667-18.773-42.667-42.667c0-23.893,18.773-42.667,42.667-42.667
		s42.667,18.773,42.667,42.667C212.333,466.627,193.56,485.4,169.667,485.4z M169.667,417.133c-14.507,0-25.6,11.093-25.6,25.6
		c0,14.507,11.093,25.6,25.6,25.6c14.507,0,25.6-11.093,25.6-25.6C195.267,428.227,184.173,417.133,169.667,417.133z"/>
	<path style="fill:#FFFFFF;" d="M459.8,442.733c0,18.773-15.36,34.133-34.133,34.133s-34.133-15.36-34.133-34.133
		c0-18.773,15.36-34.133,34.133-34.133S459.8,423.96,459.8,442.733L459.8,442.733z"/>
	<g>
		<path style="fill:#0096E6;" d="M425.667,485.4c-23.893,0-42.667-18.773-42.667-42.667c0-23.893,18.773-42.667,42.667-42.667
			s42.667,18.773,42.667,42.667C468.333,466.627,449.56,485.4,425.667,485.4z M425.667,417.133c-14.507,0-25.6,11.093-25.6,25.6
			c0,14.507,11.093,25.6,25.6,25.6s25.6-11.093,25.6-25.6C451.267,428.227,440.173,417.133,425.667,417.133z"/>
		<path style="fill:#0096E6;" d="M502.467,408.6H84.333c-5.12,0-8.533-3.413-8.533-8.533s3.413-8.533,8.533-8.533h418.133
			c5.12,0,8.533,3.413,8.533,8.533S507.587,408.6,502.467,408.6z"/>
	</g>
	<path style="fill:#FFFFFF;" d="M58.733,58.733c0,14.507-11.093,25.6-25.6,25.6s-25.6-11.093-25.6-25.6s11.093-25.6,25.6-25.6
		S58.733,44.227,58.733,58.733L58.733,58.733z"/>
	<path style="fill:#0096E6;" d="M33.133,92.867C14.36,92.867-1,77.507-1,58.733S14.36,24.6,33.133,24.6s34.133,15.36,34.133,34.133
		S51.907,92.867,33.133,92.867z M33.133,41.667c-9.387,0-17.067,7.68-17.067,17.067S23.747,75.8,33.133,75.8S50.2,68.12,50.2,58.733
		S42.52,41.667,33.133,41.667z"/>
	<polygon style="fill:#FFFFFF;" points="135.533,41.667 263.533,41.667 263.533,400.067 135.533,400.067 	"/>
	<path style="fill:#0096E6;" d="M272.067,408.6H127V33.133h145.067V408.6z M144.067,391.533H255V50.2H144.067V391.533z"/>
	<polygon style="fill:#FFFFFF;" points="263.533,220.867 485.4,220.867 485.4,400.067 263.533,400.067 	"/>
	<path style="fill:#0096E6;" d="M493.933,408.6H255V212.333h238.933V408.6z M272.067,391.533h204.8V229.4h-204.8V391.533z"/>
	<path style="fill:#D0E8F9;" d="M442.733,131.267c0,49.493-40.107,89.6-89.6,89.6s-89.6-40.107-89.6-89.6s40.107-89.6,89.6-89.6
		S442.733,81.773,442.733,131.267L442.733,131.267z"/>
	<path style="fill:#0096E6;" d="M353.133,229.4c-53.76,0-98.133-44.373-98.133-98.133s44.373-98.133,98.133-98.133
		s98.133,44.373,98.133,98.133S406.893,229.4,353.133,229.4z M353.133,50.2c-44.373,0-81.067,36.693-81.067,81.067
		s36.693,81.067,81.067,81.067S434.2,175.64,434.2,131.267S397.507,50.2,353.133,50.2z"/>
	<polygon style="fill:#D0E8F9;" points="178.2,41.667 220.867,41.667 220.867,92.867 178.2,92.867 	"/>
	<path style="fill:#0096E6;" d="M229.4,101.4h-59.733V33.133H229.4V101.4z M186.733,84.333h25.6V50.2h-25.6V84.333z"/>
	<polygon style="fill:#D0E8F9;" points="348.867,220.867 391.533,220.867 391.533,272.067 348.867,272.067 	"/>
	<g>
		<path style="fill:#0096E6;" d="M400.067,280.6h-59.733v-68.267h59.733V280.6z M357.4,263.533H383V229.4h-25.6V263.533z"/>
		<path style="fill:#0096E6;" d="M84.333,408.6c-5.12,0-8.533-3.413-8.533-8.533v-332.8H41.667c-5.12,0-8.533-3.413-8.533-8.533
			s3.413-8.533,8.533-8.533h42.667c5.12,0,8.533,3.413,8.533,8.533v341.333C92.867,405.187,89.453,408.6,84.333,408.6z"/>
	</g>
</g>
<g>
</g>
<g>
</g>
<g>
</g>
<g>
</g>
<g>
</g>
<g>
</g>
<g>
</g>
<g>
</g>
<g>
</g>
<g>
</g>
<g>
</g>
<g>
</g>
<g>
</g>
<g>
</g>
<g>
</g>
</svg>
