<?xml version="1.0" encoding="iso-8859-1"?>
<!-- Generator: Adobe Illustrator 19.0.0, SVG Export Plug-In . SVG Version: 6.00 Build 0)  -->
<svg version="1.1" id="Layer_1" xmlns="http://www.w3.org/2000/svg" xmlns:xlink="http://www.w3.org/1999/xlink" x="0px" y="0px"
	 viewBox="0 0 512 512" style="enable-background:new 0 0 512 512;" xml:space="preserve">
<g transform="translate(1 1)">
	<path style="fill:#D0E8F9;" d="M289.133,63c0,18.773-15.36,34.133-34.133,34.133S220.867,81.773,220.867,63
		S236.227,28.867,255,28.867S289.133,44.227,289.133,63L289.133,63z"/>
	<path style="fill:#0096E6;" d="M255,105.667c-23.893,0-42.667-18.773-42.667-42.667S231.107,20.333,255,20.333
		S297.667,39.107,297.667,63S278.893,105.667,255,105.667z M255,37.4c-14.507,0-25.6,11.093-25.6,25.6s11.093,25.6,25.6,25.6
		c14.507,0,25.6-11.093,25.6-25.6S269.507,37.4,255,37.4z"/>
	<polygon style="fill:#FFFFFF;" points="7.533,208.067 502.467,208.067 502.467,481.133 7.533,481.133 	"/>
	<path style="fill:#0096E6;" d="M511,489.667H-1V199.533h512V489.667z M16.067,472.6h477.867v-256H16.067V472.6z"/>
	<path style="fill:#FFFFFF;" d="M220.867,63L75.8,208.067"/>
	<g>
		<path style="fill:#0096E6;" d="M75.8,216.6c-2.56,0-4.267-0.853-5.973-2.56c-3.413-3.413-3.413-8.533,0-11.947L214.893,57.027
			c3.413-3.413,8.533-3.413,11.947,0s3.413,8.533,0,11.947L81.773,214.04C80.067,215.747,78.36,216.6,75.8,216.6z"/>
		<path style="fill:#0096E6;" d="M434.2,216.6c-2.56,0-4.267-0.853-5.973-2.56L283.16,68.973c-3.413-3.413-3.413-8.533,0-11.947
			s8.533-3.413,11.947,0l145.067,145.067c3.413,3.413,3.413,8.533,0,11.947C438.467,215.747,436.76,216.6,434.2,216.6z"/>
	</g>
	<path style="fill:#FFFFFF;" d="M101.4,429.933L101.4,429.933c-18.773,0-34.133-15.36-34.133-34.133V293.4
		c0-18.773,15.36-34.133,34.133-34.133s34.133,15.36,34.133,34.133v102.4C135.533,414.573,120.173,429.933,101.4,429.933
		L101.4,429.933z"/>
	<path style="fill:#0096E6;" d="M101.4,438.467c-23.893,0-42.667-18.773-42.667-42.667V293.4c0-23.893,18.773-42.667,42.667-42.667
		s42.667,18.773,42.667,42.667v102.4C144.067,419.693,125.293,438.467,101.4,438.467z M101.4,267.8c-14.507,0-25.6,11.093-25.6,25.6
		v102.4c0,14.507,11.093,25.6,25.6,25.6s25.6-11.093,25.6-25.6V293.4C127,278.893,115.907,267.8,101.4,267.8z"/>
	<path style="fill:#FFFFFF;" d="M203.8,370.2L203.8,370.2c-18.773,0-34.133-15.36-34.133-34.133V293.4
		c0-18.773,15.36-34.133,34.133-34.133s34.133,15.36,34.133,34.133v42.667C237.933,354.84,222.573,370.2,203.8,370.2L203.8,370.2z"
		/>
	<g>
		<path style="fill:#0096E6;" d="M203.8,378.733c-23.893,0-42.667-18.773-42.667-42.667V293.4c0-23.893,18.773-42.667,42.667-42.667
			s42.667,18.773,42.667,42.667v42.667C246.467,359.96,227.693,378.733,203.8,378.733z M203.8,267.8
			c-14.507,0-25.6,11.093-25.6,25.6v42.667c0,14.507,11.093,25.6,25.6,25.6c14.507,0,25.6-11.093,25.6-25.6V293.4
			C229.4,278.893,218.307,267.8,203.8,267.8z"/>
		<path style="fill:#0096E6;" d="M442.733,438.467c-0.853,0-0.853,0-1.707,0c-0.853,0-2.56-0.853-3.413-1.707
			c-0.853-0.853-1.707-1.707-2.56-2.56c0-0.853-0.853-0.853-0.853-1.707L383,303.64v126.293c0,5.12-3.413,8.533-8.533,8.533
			c-5.12,0-8.533-3.413-8.533-8.533V259.267c0-0.853,0-0.853,0-1.707s0.853-2.56,1.707-3.413c0.853-0.853,1.707-1.707,2.56-2.56
			c0.853-0.853,1.707-0.853,2.56-0.853c0.853,0,1.707,0,3.413,0c0.853,0,2.56,0.853,3.413,1.707c0.853,0.853,1.707,1.707,2.56,2.56
			c0,0.853,0.853,0.853,0.853,1.707l51.2,128.853V259.267c0-5.12,3.413-8.533,8.533-8.533c5.12,0,8.533,3.413,8.533,8.533v170.667
			c0,0.853,0,0.853,0,1.707s-0.853,2.56-1.707,3.413c-0.853,0.853-1.707,1.707-2.56,2.56c-0.853,0.853-1.707,0.853-2.56,0.853
			C443.587,438.467,443.587,438.467,442.733,438.467z M340.333,438.467h-68.267c-5.12,0-8.533-3.413-8.533-8.533V259.267
			c0-5.12,3.413-8.533,8.533-8.533h68.267c5.12,0,8.533,3.413,8.533,8.533c0,5.12-3.413,8.533-8.533,8.533H280.6v68.267h59.733
			c5.12,0,8.533,3.413,8.533,8.533c0,5.12-3.413,8.533-8.533,8.533H280.6V421.4h59.733c5.12,0,8.533,3.413,8.533,8.533
			S345.453,438.467,340.333,438.467z M169.667,438.467c-5.12,0-8.533-3.413-8.533-8.533v-93.867c0-5.12,3.413-8.533,8.533-8.533
			c5.12,0,8.533,3.413,8.533,8.533v93.867C178.2,435.053,174.787,438.467,169.667,438.467z"/>
	</g>
</g>
<g>
</g>
<g>
</g>
<g>
</g>
<g>
</g>
<g>
</g>
<g>
</g>
<g>
</g>
<g>
</g>
<g>
</g>
<g>
</g>
<g>
</g>
<g>
</g>
<g>
</g>
<g>
</g>
<g>
</g>
</svg>
