<?xml version="1.0" encoding="utf-8"?>
<!DOCTYPE svg PUBLIC "-//W3C//DTD SVG 1.1//EN" "http://www.w3.org/Graphics/SVG/1.1/DTD/svg11.dtd">
<svg xmlns="http://www.w3.org/2000/svg" xmlns:xlink="http://www.w3.org/1999/xlink" width="512px" version="1.1" height="512px" viewBox="0 0 64 64" enable-background="new 0 0 64 64">
  <g>
    <g fill="#1D1D1B">
      <path d="m46.025,18.086l-21.914,24.221-6.91-7.637c-0.74-0.82-2.006-0.881-2.824-0.142-0.818,0.741-0.883,2.006-0.141,2.825l8.048,8.894c0.368,0.536 0.979,0.85 1.627,0.85 0.073,0 0.146-0.03 0.22-0.039 0.051,0.004 0.1,0.032 0.15,0.032 0.592,0 1.166-0.266 1.555-0.725l23.154-25.595c0.742-0.82 0.678-2.085-0.141-2.826-0.818-0.741-2.083-0.68-2.824,0.142z" fill="#85be37"/>
      <path d="M31.998,0C14.354,0,0,14.355,0,32s14.354,32,31.998,32C49.645,64,64,49.645,64,32S49.645,0,31.998,0z     M31.998,60C16.561,60,4,47.439,4,32S16.561,4,31.998,4C47.438,4,60,16.561,60,32S47.438,60,31.998,60z" fill="#85be37"/>
    </g>
  </g>
</svg>
